%TF.GenerationSoftware,KiCad,Pcbnew,8.0.8*%
%TF.CreationDate,2025-03-27T18:49:55+02:00*%
%TF.ProjectId,Main PCB,4d61696e-2050-4434-922e-6b696361645f,v1*%
%TF.SameCoordinates,Original*%
%TF.FileFunction,Copper,L2,Bot*%
%TF.FilePolarity,Positive*%
%FSLAX46Y46*%
G04 Gerber Fmt 4.6, Leading zero omitted, Abs format (unit mm)*
G04 Created by KiCad (PCBNEW 8.0.8) date 2025-03-27 18:49:55*
%MOMM*%
%LPD*%
G01*
G04 APERTURE LIST*
%TA.AperFunction,ComponentPad*%
%ADD10O,2.900000X1.700000*%
%TD*%
%TA.AperFunction,ComponentPad*%
%ADD11C,1.879500*%
%TD*%
%TA.AperFunction,ComponentPad*%
%ADD12R,0.850000X0.850000*%
%TD*%
%TA.AperFunction,ComponentPad*%
%ADD13O,0.850000X0.850000*%
%TD*%
%TA.AperFunction,ComponentPad*%
%ADD14C,1.600000*%
%TD*%
%TA.AperFunction,ComponentPad*%
%ADD15C,1.200000*%
%TD*%
%TA.AperFunction,ComponentPad*%
%ADD16O,0.950000X1.750000*%
%TD*%
%TA.AperFunction,ComponentPad*%
%ADD17O,0.950000X2.050000*%
%TD*%
%TA.AperFunction,ComponentPad*%
%ADD18C,1.524000*%
%TD*%
%TA.AperFunction,ComponentPad*%
%ADD19R,3.200000X3.200000*%
%TD*%
%TA.AperFunction,ComponentPad*%
%ADD20O,3.200000X3.200000*%
%TD*%
%TA.AperFunction,ViaPad*%
%ADD21C,0.600000*%
%TD*%
%TA.AperFunction,Conductor*%
%ADD22C,0.200000*%
%TD*%
G04 APERTURE END LIST*
D10*
%TO.P,SW1,3,A*%
%TO.N,unconnected-(SW1-A-Pad3)*%
X170500000Y-88700000D03*
%TO.P,SW1,2,B*%
%TO.N,Net-(Q2-G)*%
X170500000Y-93500000D03*
%TO.P,SW1,1,C*%
%TO.N,GND*%
X170500000Y-98300000D03*
%TD*%
D11*
%TO.P,R17,2*%
%TO.N,/BAT*%
X177000000Y-89250000D03*
%TO.P,R17,1*%
%TO.N,Net-(Q2-G)*%
X177000000Y-99750000D03*
%TD*%
D12*
%TO.P,J3,1,Pin_1*%
%TO.N,/BAT*%
X157000000Y-98500000D03*
D13*
%TO.P,J3,2,Pin_2*%
%TO.N,GND*%
X156000000Y-98500000D03*
%TD*%
D14*
%TO.P,C10,1*%
%TO.N,/BAT*%
X169730000Y-59000000D03*
%TO.P,C10,2*%
%TO.N,GND*%
X172270000Y-59000000D03*
%TD*%
D15*
%TO.P,C13,1*%
%TO.N,/3v3*%
X144000000Y-78750000D03*
%TO.P,C13,2*%
%TO.N,GND*%
X144000000Y-80250000D03*
%TD*%
D16*
%TO.P,J1,SH4*%
%TO.N,N/C*%
X146325000Y-105575000D03*
%TO.P,J1,SH3*%
X137675000Y-105575000D03*
D17*
%TO.P,J1,SH2*%
X146325000Y-101375000D03*
%TO.P,J1,SH1*%
X137675000Y-101375000D03*
%TD*%
D18*
%TO.P,R11,2*%
%TO.N,GND*%
X162500000Y-106250000D03*
%TO.P,R11,1*%
%TO.N,Net-(U4-FB)*%
X162500000Y-90750000D03*
%TD*%
D12*
%TO.P,J2,1,Pin_1*%
%TO.N,/Pin 1*%
X152500000Y-54000000D03*
D13*
%TO.P,J2,2,Pin_2*%
%TO.N,/Pin 2*%
X152500000Y-55000000D03*
%TO.P,J2,3,Pin_3*%
%TO.N,/Pin 3*%
X151500000Y-54000000D03*
%TO.P,J2,4,Pin_4*%
%TO.N,/Pin 4*%
X151500000Y-55000000D03*
%TO.P,J2,5,Pin_5*%
%TO.N,/Pin 5*%
X150500000Y-54000000D03*
%TO.P,J2,6,Pin_6*%
%TO.N,/Pin 6*%
X150500000Y-55000000D03*
%TO.P,J2,7,Pin_7*%
%TO.N,/Pin 7*%
X149500000Y-54000000D03*
%TO.P,J2,8,Pin_8*%
%TO.N,/Pin 8*%
X149500000Y-55000000D03*
%TO.P,J2,9,Pin_9*%
%TO.N,unconnected-(J2-Pin_9-Pad9)*%
X148500000Y-54000000D03*
%TO.P,J2,10,Pin_10*%
%TO.N,/Pin 10*%
X148500000Y-55000000D03*
%TO.P,J2,11,Pin_11*%
%TO.N,/5V*%
X147500000Y-54000000D03*
%TO.P,J2,12,Pin_12*%
%TO.N,unconnected-(J2-Pin_12-Pad12)*%
X147500000Y-55000000D03*
%TO.P,J2,13,Pin_13*%
%TO.N,unconnected-(J2-Pin_13-Pad13)*%
X146500000Y-54000000D03*
%TO.P,J2,14,Pin_14*%
%TO.N,/BAT*%
X146500000Y-55000000D03*
%TO.P,J2,15,Pin_15*%
%TO.N,unconnected-(J2-Pin_15-Pad15)*%
X145500000Y-54000000D03*
%TO.P,J2,16,Pin_16*%
%TO.N,/Pin 16*%
X145500000Y-55000000D03*
%TO.P,J2,17,Pin_17*%
%TO.N,/Pin 17*%
X144500000Y-54000000D03*
%TO.P,J2,18,Pin_18*%
%TO.N,/3v3*%
X144500000Y-55000000D03*
%TO.P,J2,19,Pin_19*%
%TO.N,GND*%
X143500000Y-54000000D03*
%TO.P,J2,20,Pin_20*%
%TO.N,/5V*%
X143500000Y-55000000D03*
%TO.P,J2,21,Pin_21*%
X142500000Y-54000000D03*
%TO.P,J2,22,Pin_22*%
%TO.N,unconnected-(J2-Pin_22-Pad22)*%
X142500000Y-55000000D03*
%TO.P,J2,23,Pin_23*%
%TO.N,GND*%
X141500000Y-54000000D03*
%TO.P,J2,24,Pin_24*%
%TO.N,/Pin 24*%
X141500000Y-55000000D03*
%TO.P,J2,25,Pin_25*%
%TO.N,/Pin 25*%
X140500000Y-54000000D03*
%TO.P,J2,26,Pin_26*%
%TO.N,/Pin 26*%
X140500000Y-55000000D03*
%TO.P,J2,27,Pin_27*%
%TO.N,/Pin 27*%
X139500000Y-54000000D03*
%TO.P,J2,28,Pin_28*%
%TO.N,unconnected-(J2-Pin_28-Pad28)*%
X139500000Y-55000000D03*
%TO.P,J2,29,Pin_29*%
%TO.N,/Pin 29*%
X138500000Y-54000000D03*
%TO.P,J2,30,Pin_30*%
%TO.N,/Pin 30*%
X138500000Y-55000000D03*
%TO.P,J2,31,Pin_31*%
%TO.N,/Pin 31*%
X137500000Y-54000000D03*
%TO.P,J2,32,Pin_32*%
%TO.N,/Pin 32*%
X137500000Y-55000000D03*
%TD*%
D15*
%TO.P,C11,1*%
%TO.N,/5V*%
X147750000Y-68000000D03*
%TO.P,C11,2*%
%TO.N,GND*%
X149250000Y-68000000D03*
%TD*%
D18*
%TO.P,R14,1*%
%TO.N,Net-(Q4-S)*%
X127000000Y-74500000D03*
%TO.P,R14,2*%
%TO.N,GND*%
X127000000Y-87500000D03*
%TD*%
D11*
%TO.P,R12,1*%
%TO.N,Net-(Q2-G)*%
X166750000Y-103000000D03*
%TO.P,R12,2*%
%TO.N,/BAT*%
X177250000Y-103000000D03*
%TD*%
D18*
%TO.P,R16,1*%
%TO.N,Net-(Q6-S)*%
X126500000Y-58500000D03*
%TO.P,R16,2*%
%TO.N,GND*%
X126500000Y-71500000D03*
%TD*%
D14*
%TO.P,C8,1*%
%TO.N,/BAT*%
X151230000Y-60000000D03*
%TO.P,C8,2*%
%TO.N,GND*%
X153770000Y-60000000D03*
%TD*%
D18*
%TO.P,R10,1*%
%TO.N,/5V*%
X152850000Y-88500000D03*
%TO.P,R10,2*%
%TO.N,Net-(U4-FB)*%
X163150000Y-88500000D03*
%TD*%
D11*
%TO.P,R15,1*%
%TO.N,/5V*%
X136500000Y-70750000D03*
%TO.P,R15,2*%
%TO.N,Net-(Q5-D)*%
X136500000Y-60250000D03*
%TD*%
%TO.P,R13,1*%
%TO.N,/5V*%
X137000000Y-84250000D03*
%TO.P,R13,2*%
%TO.N,Net-(Q3-D)*%
X137000000Y-73750000D03*
%TD*%
D19*
%TO.P,D1,1,K*%
%TO.N,/3v3*%
X159000000Y-84120000D03*
D20*
%TO.P,D1,2,A*%
%TO.N,GND*%
X159000000Y-68880000D03*
%TD*%
D21*
%TO.N,/SWITCH_OUT*%
X148055200Y-79224200D03*
X148055200Y-90301600D03*
%TO.N,/Pin 27*%
X142884900Y-59936800D03*
%TO.N,/Pin 30*%
X164106600Y-59375000D03*
X156785800Y-57292500D03*
%TO.N,/Pin 2*%
X156636500Y-62625000D03*
%TO.N,/Pin 1*%
X157609100Y-61325000D03*
%TO.N,/Pin 10*%
X149114500Y-63125000D03*
%TO.N,/Pin 7*%
X132780400Y-68227100D03*
X141159400Y-52203800D03*
%TO.N,/Pin 24*%
X145164800Y-59262200D03*
%TO.N,/Pin 25*%
X134911400Y-54941400D03*
X134078900Y-83307700D03*
%TO.N,/Pin 8*%
X149916300Y-63775000D03*
%TO.N,/Pin 26*%
X144482300Y-59875000D03*
%TO.N,/3v3*%
X146282700Y-58697700D03*
X144579200Y-56656900D03*
%TO.N,/Pin 17*%
X148686900Y-95720000D03*
%TO.N,/Pin 16*%
X150230200Y-95512600D03*
%TO.N,Net-(Q1-D)*%
X139167000Y-93750000D03*
X135631500Y-94209100D03*
%TO.N,/CC1*%
X140721600Y-101897900D03*
X140156700Y-96803200D03*
%TO.N,/5V*%
X150464300Y-94559700D03*
X135513100Y-52605500D03*
%TO.N,GND*%
X152874000Y-94325000D03*
X139868600Y-59407300D03*
%TD*%
D22*
%TO.N,/BAT*%
X178255700Y-90505700D02*
X177000000Y-89250000D01*
X178255700Y-101994300D02*
X178255700Y-90505700D01*
X177250000Y-103000000D02*
X178255700Y-101994300D01*
X169730000Y-81980000D02*
X177000000Y-89250000D01*
X169730000Y-59000000D02*
X169730000Y-81980000D01*
X151230000Y-63386600D02*
X151230000Y-60000000D01*
X150223400Y-64393200D02*
X151230000Y-63386600D01*
X149474900Y-64393200D02*
X150223400Y-64393200D01*
X148512800Y-63431100D02*
X149474900Y-64393200D01*
X148512800Y-58739500D02*
X148512800Y-63431100D01*
X147561200Y-57787900D02*
X148512800Y-58739500D01*
X147561200Y-56787900D02*
X147561200Y-57787900D01*
X146500000Y-55726700D02*
X147561200Y-56787900D01*
X146500000Y-55000000D02*
X146500000Y-55726700D01*
%TO.N,Net-(U4-FB)*%
X162500000Y-89150000D02*
X162500000Y-90750000D01*
X163150000Y-88500000D02*
X162500000Y-89150000D01*
%TO.N,/SWITCH_OUT*%
X148055200Y-90301600D02*
X148055200Y-79224200D01*
%TO.N,Net-(Q2-G)*%
X166750000Y-98401700D02*
X170500000Y-94651700D01*
X166750000Y-103000000D02*
X166750000Y-98401700D01*
X170500000Y-93500000D02*
X170500000Y-94651700D01*
%TO.N,/Pin 27*%
X137187300Y-53273300D02*
X139500000Y-53273300D01*
X136728300Y-53732300D02*
X137187300Y-53273300D01*
X136728300Y-55256000D02*
X136728300Y-53732300D01*
X137947800Y-56475500D02*
X136728300Y-55256000D01*
X139423600Y-56475500D02*
X137947800Y-56475500D01*
X142884900Y-59936800D02*
X139423600Y-56475500D01*
X139500000Y-54000000D02*
X139500000Y-53273300D01*
%TO.N,/Pin 30*%
X162024100Y-57292500D02*
X156785800Y-57292500D01*
X164106600Y-59375000D02*
X162024100Y-57292500D01*
%TO.N,/Pin 2*%
X152500000Y-55000000D02*
X152500000Y-55726700D01*
X156636500Y-59863200D02*
X156636500Y-62625000D01*
X152500000Y-55726700D02*
X156636500Y-59863200D01*
%TO.N,/Pin 1*%
X157609100Y-58983400D02*
X157609100Y-61325000D01*
X153226700Y-54601000D02*
X157609100Y-58983400D01*
X153226700Y-54000000D02*
X153226700Y-54601000D01*
X152500000Y-54000000D02*
X153226700Y-54000000D01*
%TO.N,/Pin 10*%
X149114500Y-58450300D02*
X149114500Y-63125000D01*
X148500000Y-57835800D02*
X149114500Y-58450300D01*
X148500000Y-55000000D02*
X148500000Y-57835800D01*
%TO.N,/Pin 7*%
X132780400Y-54470700D02*
X132780400Y-68227100D01*
X135270000Y-51981100D02*
X132780400Y-54470700D01*
X140936700Y-51981100D02*
X135270000Y-51981100D01*
X141159400Y-52203800D02*
X140936700Y-51981100D01*
%TO.N,/Pin 24*%
X141500000Y-55000000D02*
X141500000Y-55726700D01*
X141629300Y-55726700D02*
X145164800Y-59262200D01*
X141500000Y-55726700D02*
X141629300Y-55726700D01*
%TO.N,/Pin 25*%
X134078900Y-55773900D02*
X134078900Y-83307700D01*
X134911400Y-54941400D02*
X134078900Y-55773900D01*
%TO.N,/Pin 8*%
X149916300Y-56173800D02*
X149916300Y-63775000D01*
X149500000Y-55757500D02*
X149916300Y-56173800D01*
X149500000Y-55000000D02*
X149500000Y-55757500D01*
%TO.N,/Pin 26*%
X140500000Y-55892700D02*
X144482300Y-59875000D01*
X140500000Y-55000000D02*
X140500000Y-55892700D01*
%TO.N,/3v3*%
X146282700Y-58360400D02*
X146282700Y-58697700D01*
X144579200Y-56656900D02*
X146282700Y-58360400D01*
X146282700Y-76467300D02*
X144000000Y-78750000D01*
X146282700Y-58697700D02*
X146282700Y-76467300D01*
%TO.N,/Pin 17*%
X144500000Y-54000000D02*
X144500000Y-53273300D01*
X144032200Y-52805500D02*
X144500000Y-53273300D01*
X140910300Y-52805500D02*
X144032200Y-52805500D01*
X140557700Y-52452900D02*
X140910300Y-52805500D01*
X140557700Y-52452800D02*
X140557700Y-52452900D01*
X140546000Y-52441100D02*
X140557700Y-52452800D01*
X136796800Y-52441100D02*
X140546000Y-52441100D01*
X135924900Y-53313000D02*
X136796800Y-52441100D01*
X135924900Y-55588600D02*
X135924900Y-53313000D01*
X138350700Y-58014400D02*
X135924900Y-55588600D01*
X138350800Y-58014400D02*
X138350700Y-58014400D01*
X138350800Y-85383900D02*
X138350800Y-58014400D01*
X148686900Y-95720000D02*
X138350800Y-85383900D01*
%TO.N,/Pin 16*%
X145500000Y-55000000D02*
X145500000Y-55726700D01*
X147118200Y-57344900D02*
X145500000Y-55726700D01*
X147118200Y-57912900D02*
X147118200Y-57344900D01*
X148111100Y-58905800D02*
X147118200Y-57912900D01*
X148111100Y-63691500D02*
X148111100Y-58905800D01*
X150193300Y-65773700D02*
X148111100Y-63691500D01*
X150193300Y-90162700D02*
X150193300Y-65773700D01*
X149862600Y-90493400D02*
X150193300Y-90162700D01*
X149862600Y-94808800D02*
X149862600Y-90493400D01*
X150230100Y-95176300D02*
X149862600Y-94808800D01*
X150230200Y-95176300D02*
X150230100Y-95176300D01*
X150230200Y-95512600D02*
X150230200Y-95176300D01*
%TO.N,Net-(Q1-D)*%
X136090600Y-93750000D02*
X135631500Y-94209100D01*
X139167000Y-93750000D02*
X136090600Y-93750000D01*
%TO.N,/CC1*%
X140156700Y-101333000D02*
X140721600Y-101897900D01*
X140156700Y-96803200D02*
X140156700Y-101333000D01*
%TO.N,/5V*%
X152850000Y-92174000D02*
X150464300Y-94559700D01*
X152850000Y-88500000D02*
X152850000Y-92174000D01*
X143500000Y-55000000D02*
X143500000Y-55726700D01*
X135751100Y-71498900D02*
X136500000Y-70750000D01*
X135751100Y-83001100D02*
X135751100Y-71498900D01*
X137000000Y-84250000D02*
X135751100Y-83001100D01*
X135513100Y-55434500D02*
X135513100Y-52605500D01*
X135205700Y-55741900D02*
X135513100Y-55434500D01*
X135205700Y-69455700D02*
X135205700Y-55741900D01*
X136500000Y-70750000D02*
X135205700Y-69455700D01*
X147709400Y-67959400D02*
X147750000Y-68000000D01*
X147709400Y-59072100D02*
X147709400Y-67959400D01*
X146716500Y-58079200D02*
X147709400Y-59072100D01*
X146716500Y-57924100D02*
X146716500Y-58079200D01*
X144519100Y-55726700D02*
X146716500Y-57924100D01*
X143500000Y-55726700D02*
X144519100Y-55726700D01*
%TO.N,GND*%
X143500000Y-54000000D02*
X143500000Y-53273300D01*
X125903600Y-86403600D02*
X127000000Y-87500000D01*
X125903600Y-72096400D02*
X125903600Y-86403600D01*
X126500000Y-71500000D02*
X125903600Y-72096400D01*
X153770000Y-61748300D02*
X159000000Y-66978300D01*
X153770000Y-60000000D02*
X153770000Y-61748300D01*
X159000000Y-68880000D02*
X159000000Y-66978300D01*
X156000000Y-99750000D02*
X156000000Y-98500000D01*
X162500000Y-106250000D02*
X156000000Y-99750000D01*
X152874000Y-94647300D02*
X152874000Y-94325000D01*
X156000000Y-97773300D02*
X152874000Y-94647300D01*
X156000000Y-98500000D02*
X156000000Y-97773300D01*
X141500000Y-53273300D02*
X143500000Y-53273300D01*
X149250000Y-75000000D02*
X144000000Y-80250000D01*
X149250000Y-68000000D02*
X149250000Y-75000000D01*
X141500000Y-54000000D02*
X141500000Y-53374100D01*
X141500000Y-53274800D02*
X141500000Y-53273300D01*
X141500000Y-53374100D02*
X141500000Y-53274800D01*
X140811600Y-53274800D02*
X141500000Y-53274800D01*
X140379600Y-52842800D02*
X140811600Y-53274800D01*
X136963100Y-52842800D02*
X140379600Y-52842800D01*
X136326600Y-53479300D02*
X136963100Y-52842800D01*
X136326600Y-55422300D02*
X136326600Y-53479300D01*
X137923900Y-57019600D02*
X136326600Y-55422300D01*
X137995800Y-57019600D02*
X137923900Y-57019600D01*
X139868600Y-58892400D02*
X137995800Y-57019600D01*
X139868600Y-59407300D02*
X139868600Y-58892400D01*
%TD*%
%TA.AperFunction,Conductor*%
%TO.N,GND*%
G36*
X139190542Y-57095685D02*
G01*
X139211184Y-57112319D01*
X142054198Y-59955333D01*
X142087683Y-60016656D01*
X142089737Y-60029130D01*
X142099530Y-60116049D01*
X142159110Y-60286321D01*
X142172108Y-60307007D01*
X142255084Y-60439062D01*
X142382638Y-60566616D01*
X142535378Y-60662589D01*
X142705645Y-60722168D01*
X142705650Y-60722169D01*
X142884896Y-60742365D01*
X142884900Y-60742365D01*
X142884904Y-60742365D01*
X143064149Y-60722169D01*
X143064152Y-60722168D01*
X143064155Y-60722168D01*
X143234422Y-60662589D01*
X143387162Y-60566616D01*
X143514716Y-60439062D01*
X143598023Y-60306478D01*
X143650355Y-60260190D01*
X143719409Y-60249541D01*
X143783257Y-60277916D01*
X143808008Y-60306480D01*
X143852482Y-60377260D01*
X143852484Y-60377262D01*
X143980038Y-60504816D01*
X144008249Y-60522542D01*
X144122186Y-60594134D01*
X144132778Y-60600789D01*
X144280508Y-60652482D01*
X144303045Y-60660368D01*
X144303050Y-60660369D01*
X144482296Y-60680565D01*
X144482300Y-60680565D01*
X144482304Y-60680565D01*
X144661549Y-60660369D01*
X144661552Y-60660368D01*
X144661555Y-60660368D01*
X144831822Y-60600789D01*
X144984562Y-60504816D01*
X145112116Y-60377262D01*
X145208089Y-60224522D01*
X145241235Y-60129794D01*
X145281955Y-60073020D01*
X145337542Y-60050328D01*
X145337266Y-60049118D01*
X145344048Y-60047570D01*
X145344053Y-60047568D01*
X145344055Y-60047568D01*
X145514322Y-59987989D01*
X145514322Y-59987988D01*
X145517245Y-59986966D01*
X145587024Y-59983405D01*
X145647652Y-60018134D01*
X145679879Y-60080127D01*
X145682200Y-60104008D01*
X145682200Y-76167202D01*
X145662515Y-76234241D01*
X145645881Y-76254883D01*
X144273970Y-77626793D01*
X144212647Y-77660278D01*
X144163506Y-77661001D01*
X144101977Y-77649500D01*
X144101976Y-77649500D01*
X143898024Y-77649500D01*
X143697544Y-77686976D01*
X143697541Y-77686976D01*
X143697541Y-77686977D01*
X143507364Y-77760651D01*
X143507357Y-77760655D01*
X143333960Y-77868017D01*
X143333958Y-77868019D01*
X143183237Y-78005418D01*
X143060327Y-78168178D01*
X142969422Y-78350739D01*
X142969417Y-78350752D01*
X142913602Y-78546917D01*
X142894785Y-78749999D01*
X142894785Y-78750000D01*
X142913602Y-78953082D01*
X142969417Y-79149247D01*
X142969422Y-79149260D01*
X143060327Y-79331821D01*
X143131212Y-79425688D01*
X143155904Y-79491050D01*
X143141339Y-79559384D01*
X143131212Y-79575142D01*
X143060754Y-79668443D01*
X142969890Y-79850921D01*
X142969885Y-79850934D01*
X142927471Y-79999999D01*
X142927472Y-80000000D01*
X143684314Y-80000000D01*
X143679920Y-80004394D01*
X143627259Y-80095606D01*
X143600000Y-80197339D01*
X143600000Y-80302661D01*
X143627259Y-80404394D01*
X143679920Y-80495606D01*
X143684314Y-80500000D01*
X142927472Y-80500000D01*
X142969885Y-80649065D01*
X142969890Y-80649078D01*
X143060754Y-80831556D01*
X143183608Y-80994242D01*
X143334260Y-81131578D01*
X143507584Y-81238897D01*
X143697678Y-81312539D01*
X143750000Y-81322320D01*
X143750000Y-80565686D01*
X143754394Y-80570080D01*
X143845606Y-80622741D01*
X143947339Y-80650000D01*
X144052661Y-80650000D01*
X144154394Y-80622741D01*
X144245606Y-80570080D01*
X144250000Y-80565686D01*
X144250000Y-81322320D01*
X144302321Y-81312539D01*
X144492415Y-81238897D01*
X144665739Y-81131578D01*
X144816391Y-80994242D01*
X144939245Y-80831556D01*
X145030109Y-80649078D01*
X145030114Y-80649065D01*
X145072528Y-80500000D01*
X144315686Y-80500000D01*
X144320080Y-80495606D01*
X144372741Y-80404394D01*
X144400000Y-80302661D01*
X144400000Y-80197339D01*
X144372741Y-80095606D01*
X144320080Y-80004394D01*
X144315686Y-80000000D01*
X145072528Y-80000000D01*
X145072528Y-79999999D01*
X145030114Y-79850934D01*
X145030109Y-79850921D01*
X144939245Y-79668443D01*
X144868787Y-79575142D01*
X144844095Y-79509781D01*
X144858660Y-79441446D01*
X144868781Y-79425696D01*
X144939673Y-79331821D01*
X144993264Y-79224196D01*
X147249635Y-79224196D01*
X147249635Y-79224203D01*
X147269830Y-79403449D01*
X147269831Y-79403454D01*
X147329411Y-79573723D01*
X147425385Y-79726463D01*
X147427645Y-79729297D01*
X147428534Y-79731475D01*
X147429089Y-79732358D01*
X147428934Y-79732455D01*
X147454055Y-79793983D01*
X147454700Y-79806612D01*
X147454700Y-89719187D01*
X147435015Y-89786226D01*
X147427650Y-89796496D01*
X147425386Y-89799334D01*
X147329411Y-89952076D01*
X147269831Y-90122345D01*
X147269830Y-90122350D01*
X147249635Y-90301596D01*
X147249635Y-90301603D01*
X147269830Y-90480849D01*
X147269831Y-90480854D01*
X147329411Y-90651123D01*
X147386598Y-90742135D01*
X147425384Y-90803862D01*
X147552938Y-90931416D01*
X147705678Y-91027389D01*
X147875945Y-91086968D01*
X147875950Y-91086969D01*
X148055196Y-91107165D01*
X148055200Y-91107165D01*
X148055204Y-91107165D01*
X148234449Y-91086969D01*
X148234452Y-91086968D01*
X148234455Y-91086968D01*
X148404722Y-91027389D01*
X148557462Y-90931416D01*
X148685016Y-90803862D01*
X148780989Y-90651122D01*
X148840568Y-90480855D01*
X148840569Y-90480849D01*
X148860765Y-90301603D01*
X148860765Y-90301596D01*
X148840569Y-90122350D01*
X148840568Y-90122345D01*
X148805053Y-90020849D01*
X148780989Y-89952078D01*
X148780660Y-89951555D01*
X148720021Y-89855048D01*
X148685016Y-89799338D01*
X148685014Y-89799336D01*
X148685013Y-89799334D01*
X148682750Y-89796496D01*
X148681859Y-89794315D01*
X148681311Y-89793442D01*
X148681464Y-89793345D01*
X148656344Y-89731809D01*
X148655700Y-89719187D01*
X148655700Y-79806612D01*
X148675385Y-79739573D01*
X148682755Y-79729297D01*
X148685010Y-79726467D01*
X148685016Y-79726462D01*
X148780989Y-79573722D01*
X148840568Y-79403455D01*
X148860765Y-79224200D01*
X148852321Y-79149260D01*
X148840569Y-79044950D01*
X148840568Y-79044945D01*
X148780988Y-78874676D01*
X148741782Y-78812280D01*
X148685016Y-78721938D01*
X148557462Y-78594384D01*
X148481919Y-78546917D01*
X148404723Y-78498411D01*
X148234454Y-78438831D01*
X148234449Y-78438830D01*
X148055204Y-78418635D01*
X148055196Y-78418635D01*
X147875950Y-78438830D01*
X147875945Y-78438831D01*
X147705676Y-78498411D01*
X147552937Y-78594384D01*
X147425384Y-78721937D01*
X147329411Y-78874676D01*
X147269831Y-79044945D01*
X147269830Y-79044950D01*
X147249635Y-79224196D01*
X144993264Y-79224196D01*
X145030582Y-79149250D01*
X145086397Y-78953083D01*
X145105215Y-78750000D01*
X145088877Y-78573686D01*
X145102292Y-78505119D01*
X145124664Y-78474569D01*
X146651413Y-76947821D01*
X146651416Y-76947820D01*
X146763220Y-76836016D01*
X146813339Y-76749204D01*
X146842277Y-76699085D01*
X146883200Y-76546358D01*
X146883200Y-76388243D01*
X146883200Y-68979400D01*
X146902885Y-68912361D01*
X146955689Y-68866606D01*
X147024847Y-68856662D01*
X147078936Y-68879201D01*
X147079084Y-68878963D01*
X147080564Y-68879879D01*
X147081933Y-68880450D01*
X147083953Y-68881976D01*
X147083959Y-68881981D01*
X147083964Y-68881984D01*
X147083968Y-68881987D01*
X147125863Y-68907927D01*
X147257363Y-68989348D01*
X147447544Y-69063024D01*
X147648024Y-69100500D01*
X147648026Y-69100500D01*
X147851974Y-69100500D01*
X147851976Y-69100500D01*
X148052456Y-69063024D01*
X148242637Y-68989348D01*
X148416041Y-68881981D01*
X148416823Y-68881267D01*
X148417281Y-68881044D01*
X148420615Y-68878527D01*
X148421107Y-68879178D01*
X148479619Y-68850644D01*
X148549007Y-68858831D01*
X148579473Y-68878409D01*
X148579688Y-68878126D01*
X148583427Y-68880950D01*
X148583916Y-68881264D01*
X148584263Y-68881580D01*
X148757584Y-68988897D01*
X148947678Y-69062539D01*
X149000000Y-69072320D01*
X149000000Y-68315686D01*
X149004394Y-68320080D01*
X149095606Y-68372741D01*
X149197339Y-68400000D01*
X149302661Y-68400000D01*
X149404394Y-68372741D01*
X149495606Y-68320080D01*
X149500000Y-68315686D01*
X149500000Y-69072321D01*
X149544783Y-69109509D01*
X149543180Y-69111439D01*
X149570199Y-69132927D01*
X149592690Y-69199077D01*
X149592800Y-69204301D01*
X149592800Y-89862602D01*
X149573115Y-89929641D01*
X149556481Y-89950283D01*
X149493886Y-90012878D01*
X149493884Y-90012880D01*
X149456264Y-90050500D01*
X149382078Y-90124685D01*
X149382077Y-90124686D01*
X149370476Y-90144782D01*
X149370475Y-90144784D01*
X149303024Y-90261611D01*
X149303023Y-90261615D01*
X149262099Y-90414343D01*
X149262099Y-90414345D01*
X149262099Y-90582446D01*
X149262100Y-90582459D01*
X149262100Y-94722130D01*
X149262099Y-94722148D01*
X149262099Y-94887854D01*
X149263160Y-94895912D01*
X149259919Y-94896338D01*
X149258615Y-94950930D01*
X149219447Y-95008790D01*
X149155217Y-95036288D01*
X149086315Y-95024696D01*
X149074534Y-95018158D01*
X149036421Y-94994210D01*
X148866889Y-94934889D01*
X148866155Y-94934632D01*
X148866154Y-94934631D01*
X148866149Y-94934630D01*
X148779231Y-94924837D01*
X148714817Y-94897770D01*
X148705434Y-94889298D01*
X138987619Y-85171483D01*
X138954134Y-85110160D01*
X138951300Y-85083802D01*
X138951300Y-57935345D01*
X138951300Y-57935343D01*
X138910377Y-57782616D01*
X138870972Y-57714364D01*
X138831324Y-57645690D01*
X138831318Y-57645682D01*
X138714158Y-57528522D01*
X138713335Y-57527800D01*
X138473216Y-57287681D01*
X138439731Y-57226358D01*
X138444715Y-57156666D01*
X138486587Y-57100733D01*
X138552051Y-57076316D01*
X138560897Y-57076000D01*
X139123503Y-57076000D01*
X139190542Y-57095685D01*
G37*
%TD.AperFunction*%
%TA.AperFunction,Conductor*%
G36*
X148515103Y-64945184D02*
G01*
X148521581Y-64951216D01*
X149556481Y-65986116D01*
X149589966Y-66047439D01*
X149592800Y-66073797D01*
X149592800Y-66795697D01*
X149573115Y-66862736D01*
X149543235Y-66888626D01*
X149544784Y-66890492D01*
X149500000Y-66927679D01*
X149500000Y-67684314D01*
X149495606Y-67679920D01*
X149404394Y-67627259D01*
X149302661Y-67600000D01*
X149197339Y-67600000D01*
X149095606Y-67627259D01*
X149004394Y-67679920D01*
X149000000Y-67684314D01*
X149000000Y-66927679D01*
X148999998Y-66927677D01*
X148947690Y-66937456D01*
X148947684Y-66937458D01*
X148757586Y-67011101D01*
X148584260Y-67118421D01*
X148584253Y-67118426D01*
X148583895Y-67118753D01*
X148583686Y-67118854D01*
X148579688Y-67121874D01*
X148579096Y-67121091D01*
X148521086Y-67149361D01*
X148451700Y-67141152D01*
X148420767Y-67121270D01*
X148420615Y-67121473D01*
X148417946Y-67119458D01*
X148416839Y-67118746D01*
X148416041Y-67118019D01*
X148416036Y-67118015D01*
X148368622Y-67088657D01*
X148321986Y-67036629D01*
X148309900Y-66983231D01*
X148309900Y-65038897D01*
X148329585Y-64971858D01*
X148382389Y-64926103D01*
X148451547Y-64916159D01*
X148515103Y-64945184D01*
G37*
%TD.AperFunction*%
%TA.AperFunction,Conductor*%
G36*
X151050425Y-55812922D02*
G01*
X151212429Y-55885051D01*
X151212432Y-55885051D01*
X151212433Y-55885052D01*
X151402726Y-55925500D01*
X151597274Y-55925500D01*
X151793928Y-55883700D01*
X151794244Y-55885190D01*
X151856293Y-55883410D01*
X151916130Y-55919483D01*
X151939343Y-55955880D01*
X151940420Y-55958480D01*
X151948085Y-55971755D01*
X151948087Y-55971759D01*
X152019477Y-56095412D01*
X152019481Y-56095417D01*
X152138349Y-56214285D01*
X152138355Y-56214290D01*
X154659301Y-58735236D01*
X154692786Y-58796559D01*
X154687802Y-58866251D01*
X154645930Y-58922184D01*
X154580466Y-58946601D01*
X154512193Y-58931749D01*
X154500496Y-58924492D01*
X154422482Y-58869866D01*
X154216328Y-58773734D01*
X154020000Y-58721127D01*
X154020000Y-59566988D01*
X153962993Y-59534075D01*
X153835826Y-59500000D01*
X153704174Y-59500000D01*
X153577007Y-59534075D01*
X153520000Y-59566988D01*
X153520000Y-58721127D01*
X153323671Y-58773734D01*
X153117517Y-58869865D01*
X152931179Y-59000342D01*
X152770342Y-59161179D01*
X152639867Y-59347515D01*
X152612657Y-59405867D01*
X152566484Y-59458306D01*
X152499290Y-59477457D01*
X152432409Y-59457241D01*
X152387893Y-59405865D01*
X152385204Y-59400099D01*
X152360568Y-59347266D01*
X152230047Y-59160861D01*
X152230045Y-59160858D01*
X152069141Y-58999954D01*
X151882734Y-58869432D01*
X151882732Y-58869431D01*
X151676497Y-58773261D01*
X151676488Y-58773258D01*
X151456697Y-58714366D01*
X151456693Y-58714365D01*
X151456692Y-58714365D01*
X151456691Y-58714364D01*
X151456686Y-58714364D01*
X151230002Y-58694532D01*
X151229998Y-58694532D01*
X151003313Y-58714364D01*
X151003302Y-58714366D01*
X150783511Y-58773258D01*
X150783497Y-58773263D01*
X150693204Y-58815368D01*
X150624127Y-58825860D01*
X150560343Y-58797340D01*
X150522104Y-58738863D01*
X150516800Y-58702986D01*
X150516800Y-56094745D01*
X150516800Y-56094743D01*
X150512050Y-56077015D01*
X150513713Y-56007170D01*
X150552875Y-55949307D01*
X150606042Y-55923636D01*
X150787571Y-55885051D01*
X150949569Y-55812925D01*
X151018815Y-55803642D01*
X151050425Y-55812922D01*
G37*
%TD.AperFunction*%
%TA.AperFunction,Conductor*%
G36*
X184442539Y-50520185D02*
G01*
X184488294Y-50572989D01*
X184499500Y-50624500D01*
X184499500Y-107375500D01*
X184479815Y-107442539D01*
X184427011Y-107488294D01*
X184375500Y-107499500D01*
X163309037Y-107499500D01*
X163241998Y-107479815D01*
X163196243Y-107427011D01*
X163186299Y-107357853D01*
X163215324Y-107294297D01*
X163237913Y-107273926D01*
X163314297Y-107220440D01*
X163470436Y-107064301D01*
X163597099Y-106883409D01*
X163597100Y-106883407D01*
X163690419Y-106683284D01*
X163690424Y-106683270D01*
X163739531Y-106500000D01*
X162933012Y-106500000D01*
X162965925Y-106442993D01*
X163000000Y-106315826D01*
X163000000Y-106184174D01*
X162965925Y-106057007D01*
X162933012Y-106000000D01*
X163739531Y-106000000D01*
X163739531Y-105999999D01*
X163690424Y-105816729D01*
X163690420Y-105816720D01*
X163597099Y-105616591D01*
X163597098Y-105616589D01*
X163470442Y-105435704D01*
X163314297Y-105279560D01*
X163133409Y-105152900D01*
X163133407Y-105152899D01*
X162933283Y-105059580D01*
X162750000Y-105010468D01*
X162750000Y-105816988D01*
X162692993Y-105784075D01*
X162565826Y-105750000D01*
X162434174Y-105750000D01*
X162307007Y-105784075D01*
X162250000Y-105816988D01*
X162250000Y-105010468D01*
X162066718Y-105059579D01*
X161866591Y-105152900D01*
X161866589Y-105152901D01*
X161685700Y-105279560D01*
X161529560Y-105435700D01*
X161402901Y-105616589D01*
X161402900Y-105616591D01*
X161309579Y-105816720D01*
X161309575Y-105816729D01*
X161260468Y-105999999D01*
X161260469Y-106000000D01*
X162066988Y-106000000D01*
X162034075Y-106057007D01*
X162000000Y-106184174D01*
X162000000Y-106315826D01*
X162034075Y-106442993D01*
X162066988Y-106500000D01*
X161260469Y-106500000D01*
X161309575Y-106683270D01*
X161309580Y-106683284D01*
X161402899Y-106883407D01*
X161402900Y-106883409D01*
X161529563Y-107064301D01*
X161685702Y-107220440D01*
X161762087Y-107273926D01*
X161805712Y-107328503D01*
X161812904Y-107398001D01*
X161781382Y-107460356D01*
X161721152Y-107495769D01*
X161690963Y-107499500D01*
X120624500Y-107499500D01*
X120557461Y-107479815D01*
X120511706Y-107427011D01*
X120500500Y-107375500D01*
X120500500Y-105078917D01*
X136699500Y-105078917D01*
X136699500Y-106071082D01*
X136736986Y-106259535D01*
X136736989Y-106259547D01*
X136810520Y-106437068D01*
X136810521Y-106437070D01*
X136917279Y-106596844D01*
X136917282Y-106596848D01*
X137053151Y-106732717D01*
X137053155Y-106732720D01*
X137212927Y-106839477D01*
X137212928Y-106839477D01*
X137212929Y-106839478D01*
X137212931Y-106839479D01*
X137390452Y-106913010D01*
X137390457Y-106913012D01*
X137578917Y-106950499D01*
X137578920Y-106950500D01*
X137578922Y-106950500D01*
X137771080Y-106950500D01*
X137771081Y-106950499D01*
X137959543Y-106913012D01*
X138137073Y-106839477D01*
X138296845Y-106732720D01*
X138432720Y-106596845D01*
X138539477Y-106437073D01*
X138613012Y-106259543D01*
X138650500Y-106071078D01*
X138650500Y-105078922D01*
X138650500Y-105078919D01*
X138650499Y-105078917D01*
X145349500Y-105078917D01*
X145349500Y-106071082D01*
X145386986Y-106259535D01*
X145386989Y-106259547D01*
X145460520Y-106437068D01*
X145460521Y-106437070D01*
X145567279Y-106596844D01*
X145567282Y-106596848D01*
X145703151Y-106732717D01*
X145703155Y-106732720D01*
X145862927Y-106839477D01*
X145862928Y-106839477D01*
X145862929Y-106839478D01*
X145862931Y-106839479D01*
X146040452Y-106913010D01*
X146040457Y-106913012D01*
X146228917Y-106950499D01*
X146228920Y-106950500D01*
X146228922Y-106950500D01*
X146421080Y-106950500D01*
X146421081Y-106950499D01*
X146609543Y-106913012D01*
X146787073Y-106839477D01*
X146946845Y-106732720D01*
X147082720Y-106596845D01*
X147189477Y-106437073D01*
X147263012Y-106259543D01*
X147300500Y-106071078D01*
X147300500Y-105078922D01*
X147300500Y-105078919D01*
X147300499Y-105078917D01*
X147263013Y-104890464D01*
X147263012Y-104890457D01*
X147189477Y-104712927D01*
X147082720Y-104553155D01*
X147082717Y-104553151D01*
X146946848Y-104417282D01*
X146946844Y-104417279D01*
X146787070Y-104310521D01*
X146787068Y-104310520D01*
X146609547Y-104236989D01*
X146609535Y-104236986D01*
X146421081Y-104199500D01*
X146421078Y-104199500D01*
X146228922Y-104199500D01*
X146228919Y-104199500D01*
X146040464Y-104236986D01*
X146040452Y-104236989D01*
X145862931Y-104310520D01*
X145862929Y-104310521D01*
X145703155Y-104417279D01*
X145703151Y-104417282D01*
X145567282Y-104553151D01*
X145567279Y-104553155D01*
X145460521Y-104712929D01*
X145460520Y-104712931D01*
X145386989Y-104890452D01*
X145386986Y-104890464D01*
X145349500Y-105078917D01*
X138650499Y-105078917D01*
X138613013Y-104890464D01*
X138613012Y-104890457D01*
X138539477Y-104712927D01*
X138432720Y-104553155D01*
X138432717Y-104553151D01*
X138296848Y-104417282D01*
X138296844Y-104417279D01*
X138137070Y-104310521D01*
X138137068Y-104310520D01*
X137959547Y-104236989D01*
X137959535Y-104236986D01*
X137771081Y-104199500D01*
X137771078Y-104199500D01*
X137578922Y-104199500D01*
X137578919Y-104199500D01*
X137390464Y-104236986D01*
X137390452Y-104236989D01*
X137212931Y-104310520D01*
X137212929Y-104310521D01*
X137053155Y-104417279D01*
X137053151Y-104417282D01*
X136917282Y-104553151D01*
X136917279Y-104553155D01*
X136810521Y-104712929D01*
X136810520Y-104712931D01*
X136736989Y-104890452D01*
X136736986Y-104890464D01*
X136699500Y-105078917D01*
X120500500Y-105078917D01*
X120500500Y-102999993D01*
X165304814Y-102999993D01*
X165304814Y-103000006D01*
X165324522Y-103237862D01*
X165324524Y-103237873D01*
X165383117Y-103469251D01*
X165478996Y-103687832D01*
X165609542Y-103887649D01*
X165771204Y-104063260D01*
X165771208Y-104063263D01*
X165959549Y-104209855D01*
X165959555Y-104209859D01*
X165959558Y-104209861D01*
X166169475Y-104323463D01*
X166286700Y-104363706D01*
X166395224Y-104400963D01*
X166395226Y-104400963D01*
X166395228Y-104400964D01*
X166630657Y-104440250D01*
X166630658Y-104440250D01*
X166869342Y-104440250D01*
X166869343Y-104440250D01*
X167104772Y-104400964D01*
X167330525Y-104323463D01*
X167540442Y-104209861D01*
X167728798Y-104063258D01*
X167890455Y-103887652D01*
X168021003Y-103687833D01*
X168116882Y-103469251D01*
X168175476Y-103237870D01*
X168195186Y-103000000D01*
X168195186Y-102999993D01*
X168175477Y-102762137D01*
X168175475Y-102762126D01*
X168116882Y-102530748D01*
X168021003Y-102312167D01*
X167890457Y-102112350D01*
X167869716Y-102089820D01*
X167728798Y-101936742D01*
X167540442Y-101790139D01*
X167415482Y-101722513D01*
X167365891Y-101673294D01*
X167350500Y-101613459D01*
X167350500Y-98701796D01*
X167370185Y-98634757D01*
X167386814Y-98614120D01*
X168541754Y-97459180D01*
X168603076Y-97425696D01*
X168672768Y-97430680D01*
X168728701Y-97472552D01*
X168753118Y-97538016D01*
X168739919Y-97603157D01*
X168648904Y-97781782D01*
X168583242Y-97983870D01*
X168583242Y-97983873D01*
X168572769Y-98050000D01*
X169409252Y-98050000D01*
X169387482Y-98087708D01*
X169350000Y-98227591D01*
X169350000Y-98372409D01*
X169387482Y-98512292D01*
X169409252Y-98550000D01*
X168572769Y-98550000D01*
X168583242Y-98616126D01*
X168583242Y-98616129D01*
X168648904Y-98818217D01*
X168745379Y-99007557D01*
X168870272Y-99179459D01*
X168870276Y-99179464D01*
X169020535Y-99329723D01*
X169020540Y-99329727D01*
X169192442Y-99454620D01*
X169381782Y-99551095D01*
X169583870Y-99616757D01*
X169793754Y-99650000D01*
X170250000Y-99650000D01*
X170250000Y-98850000D01*
X170750000Y-98850000D01*
X170750000Y-99650000D01*
X171206246Y-99650000D01*
X171416127Y-99616757D01*
X171416130Y-99616757D01*
X171618217Y-99551095D01*
X171807557Y-99454620D01*
X171979459Y-99329727D01*
X171979464Y-99329723D01*
X172129723Y-99179464D01*
X172129727Y-99179459D01*
X172254620Y-99007557D01*
X172351095Y-98818217D01*
X172416757Y-98616129D01*
X172416757Y-98616126D01*
X172427231Y-98550000D01*
X171590748Y-98550000D01*
X171612518Y-98512292D01*
X171650000Y-98372409D01*
X171650000Y-98227591D01*
X171612518Y-98087708D01*
X171590748Y-98050000D01*
X172427231Y-98050000D01*
X172416757Y-97983873D01*
X172416757Y-97983870D01*
X172351095Y-97781782D01*
X172254620Y-97592442D01*
X172129727Y-97420540D01*
X172129723Y-97420535D01*
X171979464Y-97270276D01*
X171979459Y-97270272D01*
X171807557Y-97145379D01*
X171618217Y-97048904D01*
X171416129Y-96983242D01*
X171206246Y-96950000D01*
X170750000Y-96950000D01*
X170750000Y-97750000D01*
X170250000Y-97750000D01*
X170250000Y-96950000D01*
X169793754Y-96950000D01*
X169583872Y-96983242D01*
X169583869Y-96983242D01*
X169381782Y-97048904D01*
X169203156Y-97139919D01*
X169134486Y-97152815D01*
X169069746Y-97126539D01*
X169029489Y-97069432D01*
X169026497Y-96999626D01*
X169059178Y-96941756D01*
X170858506Y-95142427D01*
X170858511Y-95142424D01*
X170868714Y-95132220D01*
X170868716Y-95132220D01*
X170980520Y-95020416D01*
X171041708Y-94914435D01*
X171042821Y-94912506D01*
X171093385Y-94864288D01*
X171150212Y-94850500D01*
X171206286Y-94850500D01*
X171206287Y-94850500D01*
X171416243Y-94817246D01*
X171618412Y-94751557D01*
X171807816Y-94655051D01*
X171871317Y-94608915D01*
X171979786Y-94530109D01*
X171979788Y-94530106D01*
X171979792Y-94530104D01*
X172130104Y-94379792D01*
X172130106Y-94379788D01*
X172130109Y-94379786D01*
X172255048Y-94207820D01*
X172255047Y-94207820D01*
X172255051Y-94207816D01*
X172351557Y-94018412D01*
X172417246Y-93816243D01*
X172450500Y-93606287D01*
X172450500Y-93393713D01*
X172417246Y-93183757D01*
X172351557Y-92981588D01*
X172255051Y-92792184D01*
X172255049Y-92792181D01*
X172255048Y-92792179D01*
X172130109Y-92620213D01*
X171979786Y-92469890D01*
X171807820Y-92344951D01*
X171618414Y-92248444D01*
X171618413Y-92248443D01*
X171618412Y-92248443D01*
X171416243Y-92182754D01*
X171416241Y-92182753D01*
X171416240Y-92182753D01*
X171254957Y-92157208D01*
X171206287Y-92149500D01*
X169793713Y-92149500D01*
X169745042Y-92157208D01*
X169583760Y-92182753D01*
X169381585Y-92248444D01*
X169192179Y-92344951D01*
X169020213Y-92469890D01*
X168869890Y-92620213D01*
X168744951Y-92792179D01*
X168648444Y-92981585D01*
X168582753Y-93183760D01*
X168549500Y-93393713D01*
X168549500Y-93606286D01*
X168572262Y-93750003D01*
X168582754Y-93816243D01*
X168596834Y-93859578D01*
X168648444Y-94018414D01*
X168744951Y-94207820D01*
X168869890Y-94379786D01*
X169020213Y-94530109D01*
X169181134Y-94647023D01*
X169192184Y-94655051D01*
X169286631Y-94703174D01*
X169341685Y-94731226D01*
X169392481Y-94779201D01*
X169409276Y-94847022D01*
X169386738Y-94913157D01*
X169373071Y-94929392D01*
X166381286Y-97921178D01*
X166269481Y-98032982D01*
X166269479Y-98032985D01*
X166219361Y-98119794D01*
X166219359Y-98119796D01*
X166190425Y-98169909D01*
X166190424Y-98169910D01*
X166190423Y-98169915D01*
X166149499Y-98322643D01*
X166149499Y-98322645D01*
X166149499Y-98490746D01*
X166149500Y-98490759D01*
X166149500Y-101613459D01*
X166129815Y-101680498D01*
X166084518Y-101722513D01*
X165959564Y-101790135D01*
X165959556Y-101790140D01*
X165771203Y-101936741D01*
X165609542Y-102112350D01*
X165478996Y-102312167D01*
X165383117Y-102530748D01*
X165324524Y-102762126D01*
X165324522Y-102762137D01*
X165304814Y-102999993D01*
X120500500Y-102999993D01*
X120500500Y-100728917D01*
X136699500Y-100728917D01*
X136699500Y-102021082D01*
X136736986Y-102209535D01*
X136736989Y-102209547D01*
X136810520Y-102387068D01*
X136810521Y-102387070D01*
X136917279Y-102546844D01*
X136917282Y-102546848D01*
X137053151Y-102682717D01*
X137053155Y-102682720D01*
X137212927Y-102789477D01*
X137212928Y-102789477D01*
X137212929Y-102789478D01*
X137212931Y-102789479D01*
X137390452Y-102863010D01*
X137390457Y-102863012D01*
X137578917Y-102900499D01*
X137578920Y-102900500D01*
X137578922Y-102900500D01*
X137771080Y-102900500D01*
X137771081Y-102900499D01*
X137959543Y-102863012D01*
X138137073Y-102789477D01*
X138296845Y-102682720D01*
X138432720Y-102546845D01*
X138539477Y-102387073D01*
X138541303Y-102382663D01*
X138585140Y-102328257D01*
X138651433Y-102306188D01*
X138719133Y-102323463D01*
X138743548Y-102342428D01*
X138756635Y-102355515D01*
X138887865Y-102431281D01*
X139034234Y-102470500D01*
X139034236Y-102470500D01*
X139185764Y-102470500D01*
X139185766Y-102470500D01*
X139332135Y-102431281D01*
X139463365Y-102355515D01*
X139570515Y-102248365D01*
X139646281Y-102117135D01*
X139683953Y-101976539D01*
X139720317Y-101916880D01*
X139783164Y-101886351D01*
X139852539Y-101894646D01*
X139906417Y-101939131D01*
X139926947Y-101994751D01*
X139936230Y-102077149D01*
X139995810Y-102247421D01*
X140063730Y-102355514D01*
X140091784Y-102400162D01*
X140219338Y-102527716D01*
X140372078Y-102623689D01*
X140540770Y-102682717D01*
X140542345Y-102683268D01*
X140542350Y-102683269D01*
X140721596Y-102703465D01*
X140721600Y-102703465D01*
X140721604Y-102703465D01*
X140900849Y-102683269D01*
X140900852Y-102683268D01*
X140900855Y-102683268D01*
X141071122Y-102623689D01*
X141223862Y-102527716D01*
X141351416Y-102400162D01*
X141447389Y-102247422D01*
X141506968Y-102077155D01*
X141513286Y-102021080D01*
X141527165Y-101897903D01*
X141527165Y-101897896D01*
X141518302Y-101819234D01*
X144314500Y-101819234D01*
X144314500Y-101970766D01*
X144327982Y-102021082D01*
X144353719Y-102117136D01*
X144391602Y-102182750D01*
X144429485Y-102248365D01*
X144536635Y-102355515D01*
X144667865Y-102431281D01*
X144814234Y-102470500D01*
X144814236Y-102470500D01*
X144965764Y-102470500D01*
X144965766Y-102470500D01*
X145112135Y-102431281D01*
X145243365Y-102355515D01*
X145256452Y-102342427D01*
X145317771Y-102308943D01*
X145387462Y-102313926D01*
X145443397Y-102355796D01*
X145458692Y-102382654D01*
X145460521Y-102387069D01*
X145460521Y-102387070D01*
X145567279Y-102546844D01*
X145567282Y-102546848D01*
X145703151Y-102682717D01*
X145703155Y-102682720D01*
X145862927Y-102789477D01*
X145862928Y-102789477D01*
X145862929Y-102789478D01*
X145862931Y-102789479D01*
X146040452Y-102863010D01*
X146040457Y-102863012D01*
X146228917Y-102900499D01*
X146228920Y-102900500D01*
X146228922Y-102900500D01*
X146421080Y-102900500D01*
X146421081Y-102900499D01*
X146609543Y-102863012D01*
X146787073Y-102789477D01*
X146946845Y-102682720D01*
X147082720Y-102546845D01*
X147189477Y-102387073D01*
X147263012Y-102209543D01*
X147300500Y-102021078D01*
X147300500Y-100728922D01*
X147300500Y-100728919D01*
X147300499Y-100728917D01*
X147282345Y-100637652D01*
X147263012Y-100540457D01*
X147189477Y-100362927D01*
X147082720Y-100203155D01*
X147082717Y-100203151D01*
X146946848Y-100067282D01*
X146946844Y-100067279D01*
X146787070Y-99960521D01*
X146787068Y-99960520D01*
X146609547Y-99886989D01*
X146609535Y-99886986D01*
X146421081Y-99849500D01*
X146421078Y-99849500D01*
X146228922Y-99849500D01*
X146228919Y-99849500D01*
X146040464Y-99886986D01*
X146040452Y-99886989D01*
X145862931Y-99960520D01*
X145862929Y-99960521D01*
X145703155Y-100067279D01*
X145703151Y-100067282D01*
X145567282Y-100203151D01*
X145567279Y-100203155D01*
X145460521Y-100362929D01*
X145460520Y-100362931D01*
X145386989Y-100540452D01*
X145386986Y-100540464D01*
X145349500Y-100728917D01*
X145349500Y-101280987D01*
X145329815Y-101348026D01*
X145277011Y-101393781D01*
X145207853Y-101403725D01*
X145163500Y-101388374D01*
X145112138Y-101358720D01*
X145112135Y-101358719D01*
X144965766Y-101319500D01*
X144814234Y-101319500D01*
X144667863Y-101358719D01*
X144536635Y-101434485D01*
X144536632Y-101434487D01*
X144429487Y-101541632D01*
X144429485Y-101541635D01*
X144353719Y-101672863D01*
X144316031Y-101813520D01*
X144314500Y-101819234D01*
X141518302Y-101819234D01*
X141506969Y-101718650D01*
X141506968Y-101718645D01*
X141447388Y-101548376D01*
X141375825Y-101434485D01*
X141351416Y-101395638D01*
X141223862Y-101268084D01*
X141201350Y-101253939D01*
X141071121Y-101172110D01*
X140900849Y-101112530D01*
X140867315Y-101108752D01*
X140802902Y-101081685D01*
X140763347Y-101024090D01*
X140757200Y-100985532D01*
X140757200Y-98750000D01*
X155108628Y-98750000D01*
X155150316Y-98878306D01*
X155150317Y-98878307D01*
X155247536Y-99046694D01*
X155247535Y-99046694D01*
X155377639Y-99191190D01*
X155377642Y-99191192D01*
X155534950Y-99305484D01*
X155712587Y-99384573D01*
X155749999Y-99392524D01*
X155750000Y-99392524D01*
X155750000Y-98750000D01*
X155108628Y-98750000D01*
X140757200Y-98750000D01*
X140757200Y-98450272D01*
X155750000Y-98450272D01*
X155750000Y-98549728D01*
X155788060Y-98641614D01*
X155858386Y-98711940D01*
X155950272Y-98750000D01*
X156049728Y-98750000D01*
X156074501Y-98739738D01*
X156074501Y-98972876D01*
X156080908Y-99032483D01*
X156131202Y-99167328D01*
X156131203Y-99167329D01*
X156131204Y-99167331D01*
X156215646Y-99280131D01*
X156222769Y-99289646D01*
X156220529Y-99291322D01*
X156247161Y-99340072D01*
X156250000Y-99366454D01*
X156250000Y-99392524D01*
X156287410Y-99384574D01*
X156293063Y-99382737D01*
X156362904Y-99380735D01*
X156374721Y-99384480D01*
X156467517Y-99419091D01*
X156467516Y-99419091D01*
X156474444Y-99419835D01*
X156527127Y-99425500D01*
X157472872Y-99425499D01*
X157532483Y-99419091D01*
X157667331Y-99368796D01*
X157782546Y-99282546D01*
X157868796Y-99167331D01*
X157919091Y-99032483D01*
X157925500Y-98972873D01*
X157925499Y-98027128D01*
X157919091Y-97967517D01*
X157917142Y-97962292D01*
X157868797Y-97832671D01*
X157868793Y-97832664D01*
X157782547Y-97717455D01*
X157782544Y-97717452D01*
X157667335Y-97631206D01*
X157667328Y-97631202D01*
X157532482Y-97580908D01*
X157532483Y-97580908D01*
X157472883Y-97574501D01*
X157472881Y-97574500D01*
X157472873Y-97574500D01*
X157472864Y-97574500D01*
X156527129Y-97574500D01*
X156527123Y-97574501D01*
X156467516Y-97580908D01*
X156374727Y-97615517D01*
X156305035Y-97620501D01*
X156293079Y-97617267D01*
X156287414Y-97615426D01*
X156250000Y-97607473D01*
X156250000Y-97633546D01*
X156230315Y-97700585D01*
X156222564Y-97710202D01*
X156222768Y-97710355D01*
X156131206Y-97832664D01*
X156131202Y-97832671D01*
X156080910Y-97967513D01*
X156080909Y-97967517D01*
X156074500Y-98027127D01*
X156074500Y-98260260D01*
X156049728Y-98250000D01*
X155950272Y-98250000D01*
X155858386Y-98288060D01*
X155788060Y-98358386D01*
X155750000Y-98450272D01*
X140757200Y-98450272D01*
X140757200Y-98249999D01*
X155108628Y-98249999D01*
X155108628Y-98250000D01*
X155750000Y-98250000D01*
X155750000Y-97607473D01*
X155712585Y-97615426D01*
X155712580Y-97615428D01*
X155534953Y-97694513D01*
X155377643Y-97808806D01*
X155247535Y-97953305D01*
X155150317Y-98121692D01*
X155150316Y-98121693D01*
X155108628Y-98249999D01*
X140757200Y-98249999D01*
X140757200Y-97385612D01*
X140776885Y-97318573D01*
X140784255Y-97308297D01*
X140786510Y-97305467D01*
X140786516Y-97305462D01*
X140882489Y-97152722D01*
X140942068Y-96982455D01*
X140962265Y-96803200D01*
X140942068Y-96623945D01*
X140882489Y-96453678D01*
X140877531Y-96445788D01*
X140786515Y-96300937D01*
X140658962Y-96173384D01*
X140506223Y-96077411D01*
X140335954Y-96017831D01*
X140335949Y-96017830D01*
X140156704Y-95997635D01*
X140156696Y-95997635D01*
X139977450Y-96017830D01*
X139977445Y-96017831D01*
X139807176Y-96077411D01*
X139654437Y-96173384D01*
X139526884Y-96300937D01*
X139430911Y-96453676D01*
X139371331Y-96623945D01*
X139371330Y-96623950D01*
X139351135Y-96803196D01*
X139351135Y-96803203D01*
X139371330Y-96982449D01*
X139371331Y-96982454D01*
X139430911Y-97152723D01*
X139526885Y-97305463D01*
X139529145Y-97308297D01*
X139530034Y-97310475D01*
X139530589Y-97311358D01*
X139530434Y-97311455D01*
X139555555Y-97372983D01*
X139556200Y-97385612D01*
X139556200Y-101246330D01*
X139556199Y-101246348D01*
X139556199Y-101273307D01*
X139536514Y-101340346D01*
X139483710Y-101386101D01*
X139414552Y-101396045D01*
X139370200Y-101380695D01*
X139332137Y-101358719D01*
X139214029Y-101327073D01*
X139185766Y-101319500D01*
X139034234Y-101319500D01*
X138887865Y-101358719D01*
X138887864Y-101358719D01*
X138887862Y-101358720D01*
X138887861Y-101358720D01*
X138836500Y-101388374D01*
X138768600Y-101404847D01*
X138702573Y-101381994D01*
X138659382Y-101327073D01*
X138650500Y-101280987D01*
X138650500Y-100728919D01*
X138650499Y-100728917D01*
X138632345Y-100637652D01*
X138613012Y-100540457D01*
X138539477Y-100362927D01*
X138432720Y-100203155D01*
X138432717Y-100203151D01*
X138296848Y-100067282D01*
X138296844Y-100067279D01*
X138137070Y-99960521D01*
X138137068Y-99960520D01*
X137959547Y-99886989D01*
X137959535Y-99886986D01*
X137771081Y-99849500D01*
X137771078Y-99849500D01*
X137578922Y-99849500D01*
X137578919Y-99849500D01*
X137390464Y-99886986D01*
X137390452Y-99886989D01*
X137212931Y-99960520D01*
X137212929Y-99960521D01*
X137053155Y-100067279D01*
X137053151Y-100067282D01*
X136917282Y-100203151D01*
X136917279Y-100203155D01*
X136810521Y-100362929D01*
X136810520Y-100362931D01*
X136736989Y-100540452D01*
X136736986Y-100540464D01*
X136699500Y-100728917D01*
X120500500Y-100728917D01*
X120500500Y-94209096D01*
X134825935Y-94209096D01*
X134825935Y-94209103D01*
X134846130Y-94388349D01*
X134846131Y-94388354D01*
X134905711Y-94558623D01*
X134966301Y-94655051D01*
X135001684Y-94711362D01*
X135129238Y-94838916D01*
X135200169Y-94883485D01*
X135281565Y-94934630D01*
X135281978Y-94934889D01*
X135327821Y-94950930D01*
X135452245Y-94994468D01*
X135452250Y-94994469D01*
X135631496Y-95014665D01*
X135631500Y-95014665D01*
X135631504Y-95014665D01*
X135810749Y-94994469D01*
X135810752Y-94994468D01*
X135810755Y-94994468D01*
X135981022Y-94934889D01*
X136133762Y-94838916D01*
X136261316Y-94711362D01*
X136357289Y-94558622D01*
X136401055Y-94433546D01*
X136441777Y-94376770D01*
X136506730Y-94351022D01*
X136518097Y-94350500D01*
X138584588Y-94350500D01*
X138651627Y-94370185D01*
X138661903Y-94377555D01*
X138664736Y-94379814D01*
X138664738Y-94379816D01*
X138817478Y-94475789D01*
X138972701Y-94530104D01*
X138987745Y-94535368D01*
X138987750Y-94535369D01*
X139166996Y-94555565D01*
X139167000Y-94555565D01*
X139167004Y-94555565D01*
X139346249Y-94535369D01*
X139346252Y-94535368D01*
X139346255Y-94535368D01*
X139516522Y-94475789D01*
X139669262Y-94379816D01*
X139796816Y-94252262D01*
X139892789Y-94099522D01*
X139952368Y-93929255D01*
X139960219Y-93859576D01*
X139972565Y-93750003D01*
X139972565Y-93749996D01*
X139952369Y-93570750D01*
X139952368Y-93570745D01*
X139892789Y-93400478D01*
X139796816Y-93247738D01*
X139669262Y-93120184D01*
X139516523Y-93024211D01*
X139346254Y-92964631D01*
X139346249Y-92964630D01*
X139167004Y-92944435D01*
X139166996Y-92944435D01*
X138987750Y-92964630D01*
X138987745Y-92964631D01*
X138817476Y-93024211D01*
X138664736Y-93120185D01*
X138661903Y-93122445D01*
X138659724Y-93123334D01*
X138658842Y-93123889D01*
X138658744Y-93123734D01*
X138597217Y-93148855D01*
X138584588Y-93149500D01*
X136011540Y-93149500D01*
X135970619Y-93160464D01*
X135970619Y-93160465D01*
X135933351Y-93170451D01*
X135858814Y-93190423D01*
X135858809Y-93190426D01*
X135721890Y-93269475D01*
X135721886Y-93269478D01*
X135612965Y-93378399D01*
X135551642Y-93411883D01*
X135539168Y-93413937D01*
X135452250Y-93423730D01*
X135281978Y-93483310D01*
X135129237Y-93579284D01*
X135001684Y-93706837D01*
X134905711Y-93859576D01*
X134846131Y-94029845D01*
X134846130Y-94029850D01*
X134825935Y-94209096D01*
X120500500Y-94209096D01*
X120500500Y-87249999D01*
X125760468Y-87249999D01*
X125760469Y-87250000D01*
X126616351Y-87250000D01*
X126573910Y-87323508D01*
X126542750Y-87439802D01*
X126542750Y-87560198D01*
X126573910Y-87676492D01*
X126616351Y-87750000D01*
X125760469Y-87750000D01*
X125809575Y-87933270D01*
X125809580Y-87933284D01*
X125902899Y-88133407D01*
X125902900Y-88133409D01*
X126029563Y-88314301D01*
X126185698Y-88470436D01*
X126366590Y-88597099D01*
X126366592Y-88597100D01*
X126566715Y-88690419D01*
X126566729Y-88690424D01*
X126749999Y-88739531D01*
X126750000Y-88739530D01*
X126750000Y-87883649D01*
X126823508Y-87926090D01*
X126939802Y-87957250D01*
X127060198Y-87957250D01*
X127176492Y-87926090D01*
X127250000Y-87883649D01*
X127250000Y-88739531D01*
X127433270Y-88690424D01*
X127433284Y-88690419D01*
X127633407Y-88597100D01*
X127633409Y-88597099D01*
X127814301Y-88470436D01*
X127970436Y-88314301D01*
X128097099Y-88133409D01*
X128097100Y-88133407D01*
X128190419Y-87933284D01*
X128190424Y-87933270D01*
X128239531Y-87750000D01*
X127383649Y-87750000D01*
X127426090Y-87676492D01*
X127457250Y-87560198D01*
X127457250Y-87439802D01*
X127426090Y-87323508D01*
X127383649Y-87250000D01*
X128239531Y-87250000D01*
X128239531Y-87249999D01*
X128190424Y-87066729D01*
X128190420Y-87066720D01*
X128097099Y-86866591D01*
X128097098Y-86866589D01*
X127970442Y-86685704D01*
X127814297Y-86529560D01*
X127633409Y-86402900D01*
X127633407Y-86402899D01*
X127433283Y-86309580D01*
X127250000Y-86260468D01*
X127250000Y-87116350D01*
X127176492Y-87073910D01*
X127060198Y-87042750D01*
X126939802Y-87042750D01*
X126823508Y-87073910D01*
X126750000Y-87116350D01*
X126750000Y-86260468D01*
X126566718Y-86309579D01*
X126366591Y-86402900D01*
X126366589Y-86402901D01*
X126185700Y-86529560D01*
X126029560Y-86685700D01*
X125902901Y-86866589D01*
X125902900Y-86866591D01*
X125809579Y-87066720D01*
X125809575Y-87066729D01*
X125760468Y-87249999D01*
X120500500Y-87249999D01*
X120500500Y-74499997D01*
X125732677Y-74499997D01*
X125732677Y-74500002D01*
X125751929Y-74720062D01*
X125751930Y-74720070D01*
X125809104Y-74933445D01*
X125809105Y-74933447D01*
X125809106Y-74933450D01*
X125884995Y-75096195D01*
X125902466Y-75133662D01*
X125902468Y-75133666D01*
X126029170Y-75314615D01*
X126029175Y-75314621D01*
X126185378Y-75470824D01*
X126185384Y-75470829D01*
X126366333Y-75597531D01*
X126366335Y-75597532D01*
X126366338Y-75597534D01*
X126566550Y-75690894D01*
X126779932Y-75748070D01*
X126937123Y-75761822D01*
X126999998Y-75767323D01*
X127000000Y-75767323D01*
X127000002Y-75767323D01*
X127055017Y-75762509D01*
X127220068Y-75748070D01*
X127433450Y-75690894D01*
X127633662Y-75597534D01*
X127814620Y-75470826D01*
X127970826Y-75314620D01*
X128097534Y-75133662D01*
X128190894Y-74933450D01*
X128248070Y-74720068D01*
X128267323Y-74500000D01*
X128248070Y-74279932D01*
X128190894Y-74066550D01*
X128097534Y-73866339D01*
X127970826Y-73685380D01*
X127814620Y-73529174D01*
X127814616Y-73529171D01*
X127814615Y-73529170D01*
X127633666Y-73402468D01*
X127633662Y-73402466D01*
X127633660Y-73402465D01*
X127433450Y-73309106D01*
X127433447Y-73309105D01*
X127433445Y-73309104D01*
X127220070Y-73251930D01*
X127220062Y-73251929D01*
X127000002Y-73232677D01*
X126999998Y-73232677D01*
X126779937Y-73251929D01*
X126779929Y-73251930D01*
X126566554Y-73309104D01*
X126566548Y-73309107D01*
X126366340Y-73402465D01*
X126366338Y-73402466D01*
X126185377Y-73529175D01*
X126029175Y-73685377D01*
X125902466Y-73866338D01*
X125902465Y-73866340D01*
X125809107Y-74066548D01*
X125809104Y-74066554D01*
X125751930Y-74279929D01*
X125751929Y-74279937D01*
X125732677Y-74499997D01*
X120500500Y-74499997D01*
X120500500Y-71249999D01*
X125260468Y-71249999D01*
X125260469Y-71250000D01*
X126116351Y-71250000D01*
X126073910Y-71323508D01*
X126042750Y-71439802D01*
X126042750Y-71560198D01*
X126073910Y-71676492D01*
X126116351Y-71750000D01*
X125260469Y-71750000D01*
X125309575Y-71933270D01*
X125309580Y-71933284D01*
X125402899Y-72133407D01*
X125402900Y-72133409D01*
X125529563Y-72314301D01*
X125685698Y-72470436D01*
X125866590Y-72597099D01*
X125866592Y-72597100D01*
X126066715Y-72690419D01*
X126066729Y-72690424D01*
X126249999Y-72739531D01*
X126250000Y-72739530D01*
X126250000Y-71883649D01*
X126323508Y-71926090D01*
X126439802Y-71957250D01*
X126560198Y-71957250D01*
X126676492Y-71926090D01*
X126750000Y-71883649D01*
X126750000Y-72739531D01*
X126933270Y-72690424D01*
X126933284Y-72690419D01*
X127133407Y-72597100D01*
X127133409Y-72597099D01*
X127314301Y-72470436D01*
X127470436Y-72314301D01*
X127597099Y-72133409D01*
X127597100Y-72133407D01*
X127690419Y-71933284D01*
X127690424Y-71933270D01*
X127739531Y-71750000D01*
X126883649Y-71750000D01*
X126926090Y-71676492D01*
X126957250Y-71560198D01*
X126957250Y-71439802D01*
X126926090Y-71323508D01*
X126883649Y-71250000D01*
X127739531Y-71250000D01*
X127739531Y-71249999D01*
X127690424Y-71066729D01*
X127690420Y-71066720D01*
X127597099Y-70866591D01*
X127597098Y-70866589D01*
X127470442Y-70685704D01*
X127314297Y-70529560D01*
X127133409Y-70402900D01*
X127133407Y-70402899D01*
X126933283Y-70309580D01*
X126750000Y-70260468D01*
X126750000Y-71116350D01*
X126676492Y-71073910D01*
X126560198Y-71042750D01*
X126439802Y-71042750D01*
X126323508Y-71073910D01*
X126250000Y-71116350D01*
X126250000Y-70260468D01*
X126066718Y-70309579D01*
X125866591Y-70402900D01*
X125866589Y-70402901D01*
X125685700Y-70529560D01*
X125529560Y-70685700D01*
X125402901Y-70866589D01*
X125402900Y-70866591D01*
X125309579Y-71066720D01*
X125309575Y-71066729D01*
X125260468Y-71249999D01*
X120500500Y-71249999D01*
X120500500Y-68227096D01*
X131974835Y-68227096D01*
X131974835Y-68227103D01*
X131995030Y-68406349D01*
X131995031Y-68406354D01*
X132054611Y-68576623D01*
X132098612Y-68646649D01*
X132150584Y-68729362D01*
X132278138Y-68856916D01*
X132430878Y-68952889D01*
X132535072Y-68989348D01*
X132601145Y-69012468D01*
X132601150Y-69012469D01*
X132780396Y-69032665D01*
X132780400Y-69032665D01*
X132780404Y-69032665D01*
X132959649Y-69012469D01*
X132959652Y-69012468D01*
X132959655Y-69012468D01*
X133129922Y-68952889D01*
X133282662Y-68856916D01*
X133282663Y-68856914D01*
X133288427Y-68853293D01*
X133355664Y-68834292D01*
X133422499Y-68854659D01*
X133467714Y-68907927D01*
X133478400Y-68958286D01*
X133478400Y-82725287D01*
X133458715Y-82792326D01*
X133451350Y-82802596D01*
X133449086Y-82805434D01*
X133353111Y-82958176D01*
X133293531Y-83128445D01*
X133293530Y-83128450D01*
X133273335Y-83307696D01*
X133273335Y-83307703D01*
X133293530Y-83486949D01*
X133293531Y-83486954D01*
X133353111Y-83657223D01*
X133409590Y-83747108D01*
X133449084Y-83809962D01*
X133576638Y-83937516D01*
X133666980Y-83994282D01*
X133695396Y-84012137D01*
X133729378Y-84033489D01*
X133899645Y-84093068D01*
X133899650Y-84093069D01*
X134078896Y-84113265D01*
X134078900Y-84113265D01*
X134078904Y-84113265D01*
X134258149Y-84093069D01*
X134258152Y-84093068D01*
X134258155Y-84093068D01*
X134428422Y-84033489D01*
X134581162Y-83937516D01*
X134708716Y-83809962D01*
X134804689Y-83657222D01*
X134864268Y-83486955D01*
X134877466Y-83369817D01*
X134884465Y-83307703D01*
X134884465Y-83307696D01*
X134864269Y-83128450D01*
X134864268Y-83128445D01*
X134804688Y-82958176D01*
X134754466Y-82878249D01*
X134708716Y-82805438D01*
X134708714Y-82805436D01*
X134708713Y-82805434D01*
X134706450Y-82802596D01*
X134705559Y-82800415D01*
X134705011Y-82799542D01*
X134705164Y-82799445D01*
X134680044Y-82737909D01*
X134679400Y-82725287D01*
X134679400Y-70077997D01*
X134699085Y-70010958D01*
X134751889Y-69965203D01*
X134821047Y-69955259D01*
X134884603Y-69984284D01*
X134891078Y-69990313D01*
X135093076Y-70192312D01*
X135126561Y-70253634D01*
X135125601Y-70310432D01*
X135074524Y-70512126D01*
X135074522Y-70512137D01*
X135054814Y-70749993D01*
X135054814Y-70750006D01*
X135074522Y-70987862D01*
X135074524Y-70987873D01*
X135133118Y-71219253D01*
X135159851Y-71280199D01*
X135168754Y-71349499D01*
X135166070Y-71362099D01*
X135150599Y-71419838D01*
X135150599Y-71587946D01*
X135150600Y-71587959D01*
X135150600Y-82914430D01*
X135150599Y-82914448D01*
X135150599Y-83080154D01*
X135150598Y-83080154D01*
X135150599Y-83080157D01*
X135191523Y-83232885D01*
X135191524Y-83232887D01*
X135191523Y-83232887D01*
X135201116Y-83249501D01*
X135201117Y-83249502D01*
X135270577Y-83369812D01*
X135270581Y-83369817D01*
X135389449Y-83488685D01*
X135389455Y-83488690D01*
X135593076Y-83692311D01*
X135626561Y-83753634D01*
X135625601Y-83810432D01*
X135574524Y-84012126D01*
X135574522Y-84012137D01*
X135554814Y-84249993D01*
X135554814Y-84250006D01*
X135574522Y-84487862D01*
X135574524Y-84487873D01*
X135633117Y-84719251D01*
X135728996Y-84937832D01*
X135859542Y-85137649D01*
X136021204Y-85313260D01*
X136021208Y-85313263D01*
X136209549Y-85459855D01*
X136209555Y-85459859D01*
X136209558Y-85459861D01*
X136419475Y-85573463D01*
X136521960Y-85608646D01*
X136645224Y-85650963D01*
X136645226Y-85650963D01*
X136645228Y-85650964D01*
X136880657Y-85690250D01*
X136880658Y-85690250D01*
X137119342Y-85690250D01*
X137119343Y-85690250D01*
X137354772Y-85650964D01*
X137580525Y-85573463D01*
X137617404Y-85553504D01*
X137685731Y-85538909D01*
X137751103Y-85563571D01*
X137786347Y-85609114D01*
X137787159Y-85608646D01*
X137790606Y-85614617D01*
X137790981Y-85615101D01*
X137791222Y-85615683D01*
X137811590Y-85650960D01*
X137811591Y-85650964D01*
X137870275Y-85752609D01*
X137870281Y-85752617D01*
X137989149Y-85871485D01*
X137989155Y-85871490D01*
X147856198Y-95738534D01*
X147889683Y-95799857D01*
X147891737Y-95812331D01*
X147901530Y-95899249D01*
X147961110Y-96069521D01*
X147961111Y-96069522D01*
X148057084Y-96222262D01*
X148184638Y-96349816D01*
X148337378Y-96445789D01*
X148507645Y-96505368D01*
X148507650Y-96505369D01*
X148686896Y-96525565D01*
X148686900Y-96525565D01*
X148686904Y-96525565D01*
X148866149Y-96505369D01*
X148866152Y-96505368D01*
X148866155Y-96505368D01*
X149036422Y-96445789D01*
X149189162Y-96349816D01*
X149316716Y-96222262D01*
X149412689Y-96069522D01*
X149412689Y-96069520D01*
X149412691Y-96069518D01*
X149415639Y-96063398D01*
X149462461Y-96011538D01*
X149529888Y-95993225D01*
X149596512Y-96014273D01*
X149615040Y-96029518D01*
X149727938Y-96142416D01*
X149880678Y-96238389D01*
X150050945Y-96297968D01*
X150050950Y-96297969D01*
X150230196Y-96318165D01*
X150230200Y-96318165D01*
X150230204Y-96318165D01*
X150409449Y-96297969D01*
X150409452Y-96297968D01*
X150409455Y-96297968D01*
X150579722Y-96238389D01*
X150732462Y-96142416D01*
X150860016Y-96014862D01*
X150955989Y-95862122D01*
X151015568Y-95691855D01*
X151035765Y-95512600D01*
X151015568Y-95333345D01*
X151015567Y-95333343D01*
X151015566Y-95333337D01*
X150991317Y-95264037D01*
X150987755Y-95194258D01*
X151020677Y-95135401D01*
X151023858Y-95132220D01*
X151094116Y-95061962D01*
X151190089Y-94909222D01*
X151249668Y-94738955D01*
X151259461Y-94652029D01*
X151286526Y-94587618D01*
X151294990Y-94578243D01*
X153208506Y-92664728D01*
X153208511Y-92664724D01*
X153218714Y-92654520D01*
X153218716Y-92654520D01*
X153330520Y-92542716D01*
X153334127Y-92536468D01*
X153384338Y-92449501D01*
X153384339Y-92449499D01*
X153409574Y-92405790D01*
X153409573Y-92405790D01*
X153409577Y-92405785D01*
X153450500Y-92253058D01*
X153450500Y-92094943D01*
X153450500Y-90749997D01*
X161232677Y-90749997D01*
X161232677Y-90750002D01*
X161251929Y-90970062D01*
X161251930Y-90970070D01*
X161309104Y-91183445D01*
X161309105Y-91183447D01*
X161309106Y-91183450D01*
X161402466Y-91383662D01*
X161402468Y-91383666D01*
X161529170Y-91564615D01*
X161529175Y-91564621D01*
X161685378Y-91720824D01*
X161685384Y-91720829D01*
X161866333Y-91847531D01*
X161866335Y-91847532D01*
X161866338Y-91847534D01*
X162066550Y-91940894D01*
X162279932Y-91998070D01*
X162437123Y-92011822D01*
X162499998Y-92017323D01*
X162500000Y-92017323D01*
X162500002Y-92017323D01*
X162555017Y-92012509D01*
X162720068Y-91998070D01*
X162933450Y-91940894D01*
X163133662Y-91847534D01*
X163314620Y-91720826D01*
X163470826Y-91564620D01*
X163597534Y-91383662D01*
X163690894Y-91183450D01*
X163748070Y-90970068D01*
X163763518Y-90793497D01*
X163767323Y-90750002D01*
X163767323Y-90749997D01*
X163759043Y-90655361D01*
X163748070Y-90529932D01*
X163690894Y-90316550D01*
X163597534Y-90116339D01*
X163470826Y-89935380D01*
X163470824Y-89935377D01*
X163453675Y-89918228D01*
X163420190Y-89856905D01*
X163425174Y-89787213D01*
X163467046Y-89731280D01*
X163509260Y-89710773D01*
X163583450Y-89690894D01*
X163783662Y-89597534D01*
X163964620Y-89470826D01*
X164120826Y-89314620D01*
X164247534Y-89133662D01*
X164340894Y-88933450D01*
X164398070Y-88720068D01*
X164409124Y-88593713D01*
X168549500Y-88593713D01*
X168549500Y-88806286D01*
X168582103Y-89012137D01*
X168582754Y-89016243D01*
X168620907Y-89133666D01*
X168648444Y-89218414D01*
X168744951Y-89407820D01*
X168869890Y-89579786D01*
X169020213Y-89730109D01*
X169192179Y-89855048D01*
X169192181Y-89855049D01*
X169192184Y-89855051D01*
X169381588Y-89951557D01*
X169583757Y-90017246D01*
X169793713Y-90050500D01*
X169793714Y-90050500D01*
X171206286Y-90050500D01*
X171206287Y-90050500D01*
X171416243Y-90017246D01*
X171618412Y-89951557D01*
X171807816Y-89855051D01*
X171884499Y-89799338D01*
X171979786Y-89730109D01*
X171979788Y-89730106D01*
X171979792Y-89730104D01*
X172130104Y-89579792D01*
X172130106Y-89579788D01*
X172130109Y-89579786D01*
X172255048Y-89407820D01*
X172255047Y-89407820D01*
X172255051Y-89407816D01*
X172351557Y-89218412D01*
X172417246Y-89016243D01*
X172450500Y-88806287D01*
X172450500Y-88593713D01*
X172417246Y-88383757D01*
X172351557Y-88181588D01*
X172255051Y-87992184D01*
X172255049Y-87992181D01*
X172255048Y-87992179D01*
X172130109Y-87820213D01*
X171979786Y-87669890D01*
X171807820Y-87544951D01*
X171618414Y-87448444D01*
X171618413Y-87448443D01*
X171618412Y-87448443D01*
X171416243Y-87382754D01*
X171416241Y-87382753D01*
X171416240Y-87382753D01*
X171254957Y-87357208D01*
X171206287Y-87349500D01*
X169793713Y-87349500D01*
X169745042Y-87357208D01*
X169583760Y-87382753D01*
X169381585Y-87448444D01*
X169192179Y-87544951D01*
X169020213Y-87669890D01*
X168869890Y-87820213D01*
X168744951Y-87992179D01*
X168648444Y-88181585D01*
X168582753Y-88383760D01*
X168549500Y-88593713D01*
X164409124Y-88593713D01*
X164417323Y-88500000D01*
X164398070Y-88279932D01*
X164340894Y-88066550D01*
X164247534Y-87866339D01*
X164120826Y-87685380D01*
X163964620Y-87529174D01*
X163964616Y-87529171D01*
X163964615Y-87529170D01*
X163783666Y-87402468D01*
X163783662Y-87402466D01*
X163741387Y-87382753D01*
X163583450Y-87309106D01*
X163583447Y-87309105D01*
X163583445Y-87309104D01*
X163370070Y-87251930D01*
X163370062Y-87251929D01*
X163150002Y-87232677D01*
X163149998Y-87232677D01*
X162929937Y-87251929D01*
X162929929Y-87251930D01*
X162716554Y-87309104D01*
X162716548Y-87309107D01*
X162516340Y-87402465D01*
X162516338Y-87402466D01*
X162335377Y-87529175D01*
X162179175Y-87685377D01*
X162052466Y-87866338D01*
X162052465Y-87866340D01*
X161959107Y-88066548D01*
X161959104Y-88066554D01*
X161901930Y-88279929D01*
X161901929Y-88279937D01*
X161892846Y-88383760D01*
X161882677Y-88500000D01*
X161901929Y-88720062D01*
X161901930Y-88720066D01*
X161901930Y-88720070D01*
X161939123Y-88858878D01*
X161939123Y-88923064D01*
X161899499Y-89070943D01*
X161899499Y-89239046D01*
X161899500Y-89239059D01*
X161899500Y-89564695D01*
X161879815Y-89631734D01*
X161846623Y-89666270D01*
X161685378Y-89779174D01*
X161529175Y-89935377D01*
X161402466Y-90116338D01*
X161402465Y-90116340D01*
X161309107Y-90316548D01*
X161309104Y-90316554D01*
X161251930Y-90529929D01*
X161251929Y-90529937D01*
X161232677Y-90749997D01*
X153450500Y-90749997D01*
X153450500Y-89685304D01*
X153470185Y-89618265D01*
X153503375Y-89583730D01*
X153664620Y-89470826D01*
X153820826Y-89314620D01*
X153947534Y-89133662D01*
X154040894Y-88933450D01*
X154098070Y-88720068D01*
X154117323Y-88500000D01*
X154098070Y-88279932D01*
X154040894Y-88066550D01*
X153947534Y-87866339D01*
X153820826Y-87685380D01*
X153664620Y-87529174D01*
X153664616Y-87529171D01*
X153664615Y-87529170D01*
X153483666Y-87402468D01*
X153483662Y-87402466D01*
X153441387Y-87382753D01*
X153283450Y-87309106D01*
X153283447Y-87309105D01*
X153283445Y-87309104D01*
X153070070Y-87251930D01*
X153070062Y-87251929D01*
X152850002Y-87232677D01*
X152849998Y-87232677D01*
X152629937Y-87251929D01*
X152629929Y-87251930D01*
X152416554Y-87309104D01*
X152416548Y-87309107D01*
X152216340Y-87402465D01*
X152216338Y-87402466D01*
X152035377Y-87529175D01*
X151879175Y-87685377D01*
X151752466Y-87866338D01*
X151752465Y-87866340D01*
X151659107Y-88066548D01*
X151659104Y-88066554D01*
X151601930Y-88279929D01*
X151601929Y-88279937D01*
X151582677Y-88499997D01*
X151582677Y-88500002D01*
X151601929Y-88720062D01*
X151601930Y-88720070D01*
X151659104Y-88933445D01*
X151659105Y-88933447D01*
X151659106Y-88933450D01*
X151697711Y-89016239D01*
X151752466Y-89133662D01*
X151752468Y-89133666D01*
X151879170Y-89314615D01*
X151879175Y-89314621D01*
X152035378Y-89470824D01*
X152035384Y-89470829D01*
X152086806Y-89506835D01*
X152196623Y-89583729D01*
X152240248Y-89638306D01*
X152249500Y-89685304D01*
X152249500Y-91873903D01*
X152229815Y-91940942D01*
X152213181Y-91961584D01*
X150674781Y-93499984D01*
X150613458Y-93533469D01*
X150543766Y-93528485D01*
X150487833Y-93486613D01*
X150463416Y-93421149D01*
X150463100Y-93412303D01*
X150463100Y-90793497D01*
X150482785Y-90726458D01*
X150499418Y-90705817D01*
X150551803Y-90653431D01*
X150551808Y-90653427D01*
X150562014Y-90643220D01*
X150562016Y-90643220D01*
X150673820Y-90531416D01*
X150752877Y-90394484D01*
X150788479Y-90261615D01*
X150793800Y-90241758D01*
X150793800Y-90083643D01*
X150793800Y-82472135D01*
X156899500Y-82472135D01*
X156899500Y-85767870D01*
X156899501Y-85767876D01*
X156905908Y-85827483D01*
X156956202Y-85962328D01*
X156956206Y-85962335D01*
X157042452Y-86077544D01*
X157042455Y-86077547D01*
X157157664Y-86163793D01*
X157157671Y-86163797D01*
X157292517Y-86214091D01*
X157292516Y-86214091D01*
X157299444Y-86214835D01*
X157352127Y-86220500D01*
X160647872Y-86220499D01*
X160707483Y-86214091D01*
X160842331Y-86163796D01*
X160957546Y-86077546D01*
X161043796Y-85962331D01*
X161094091Y-85827483D01*
X161100500Y-85767873D01*
X161100499Y-82472128D01*
X161094091Y-82412517D01*
X161043796Y-82277669D01*
X161043795Y-82277668D01*
X161043793Y-82277664D01*
X160957547Y-82162455D01*
X160957544Y-82162452D01*
X160842335Y-82076206D01*
X160842328Y-82076202D01*
X160707482Y-82025908D01*
X160707483Y-82025908D01*
X160647883Y-82019501D01*
X160647881Y-82019500D01*
X160647873Y-82019500D01*
X160647864Y-82019500D01*
X157352129Y-82019500D01*
X157352123Y-82019501D01*
X157292516Y-82025908D01*
X157157671Y-82076202D01*
X157157664Y-82076206D01*
X157042455Y-82162452D01*
X157042452Y-82162455D01*
X156956206Y-82277664D01*
X156956202Y-82277671D01*
X156905908Y-82412517D01*
X156899988Y-82467585D01*
X156899501Y-82472123D01*
X156899500Y-82472135D01*
X150793800Y-82472135D01*
X150793800Y-68629999D01*
X156912192Y-68629999D01*
X156912193Y-68630000D01*
X158237639Y-68630000D01*
X158230743Y-68646649D01*
X158200000Y-68801207D01*
X158200000Y-68958793D01*
X158230743Y-69113351D01*
X158237639Y-69130000D01*
X156912193Y-69130000D01*
X156914697Y-69166619D01*
X156973146Y-69447888D01*
X156973150Y-69447902D01*
X157069355Y-69718595D01*
X157201527Y-69973676D01*
X157367204Y-70208385D01*
X157367204Y-70208386D01*
X157563288Y-70418341D01*
X157786135Y-70599641D01*
X157786146Y-70599648D01*
X158031607Y-70748917D01*
X158295108Y-70863371D01*
X158571737Y-70940879D01*
X158571746Y-70940881D01*
X158749999Y-70965380D01*
X158750000Y-70965380D01*
X158750000Y-69642360D01*
X158766649Y-69649257D01*
X158921207Y-69680000D01*
X159078793Y-69680000D01*
X159233351Y-69649257D01*
X159250000Y-69642360D01*
X159250000Y-70965380D01*
X159428253Y-70940881D01*
X159428262Y-70940879D01*
X159704891Y-70863371D01*
X159968392Y-70748917D01*
X160213853Y-70599648D01*
X160213864Y-70599641D01*
X160436711Y-70418341D01*
X160632795Y-70208386D01*
X160632795Y-70208385D01*
X160798472Y-69973676D01*
X160930644Y-69718595D01*
X161026849Y-69447902D01*
X161026853Y-69447888D01*
X161085302Y-69166619D01*
X161087807Y-69130000D01*
X159762361Y-69130000D01*
X159769257Y-69113351D01*
X159800000Y-68958793D01*
X159800000Y-68801207D01*
X159769257Y-68646649D01*
X159762361Y-68630000D01*
X161087807Y-68630000D01*
X161087807Y-68629999D01*
X161085302Y-68593380D01*
X161026853Y-68312111D01*
X161026849Y-68312097D01*
X160930644Y-68041404D01*
X160798472Y-67786323D01*
X160632795Y-67551614D01*
X160632795Y-67551613D01*
X160436711Y-67341658D01*
X160213864Y-67160358D01*
X160213853Y-67160351D01*
X159968392Y-67011082D01*
X159704891Y-66896628D01*
X159428262Y-66819120D01*
X159428255Y-66819119D01*
X159250000Y-66794618D01*
X159250000Y-68117639D01*
X159233351Y-68110743D01*
X159078793Y-68080000D01*
X158921207Y-68080000D01*
X158766649Y-68110743D01*
X158750000Y-68117639D01*
X158750000Y-66794618D01*
X158571744Y-66819119D01*
X158571737Y-66819120D01*
X158295108Y-66896628D01*
X158031607Y-67011082D01*
X157786146Y-67160351D01*
X157786135Y-67160358D01*
X157563288Y-67341658D01*
X157367204Y-67551613D01*
X157367204Y-67551614D01*
X157201527Y-67786323D01*
X157069355Y-68041404D01*
X156973150Y-68312097D01*
X156973146Y-68312111D01*
X156914697Y-68593380D01*
X156912192Y-68629999D01*
X150793800Y-68629999D01*
X150793800Y-65694643D01*
X150752877Y-65541916D01*
X150752873Y-65541909D01*
X150673824Y-65404990D01*
X150673821Y-65404986D01*
X150673820Y-65404984D01*
X150562016Y-65293180D01*
X150562015Y-65293179D01*
X150557685Y-65288849D01*
X150557674Y-65288839D01*
X150421248Y-65152413D01*
X150387763Y-65091090D01*
X150392747Y-65021398D01*
X150434619Y-64965465D01*
X150448546Y-64957536D01*
X150448145Y-64956842D01*
X150468336Y-64945184D01*
X150505304Y-64923839D01*
X150592116Y-64873720D01*
X150703920Y-64761916D01*
X150703920Y-64761914D01*
X150714128Y-64751707D01*
X150714130Y-64751704D01*
X151588506Y-63877328D01*
X151588511Y-63877324D01*
X151598714Y-63867120D01*
X151598716Y-63867120D01*
X151710520Y-63755316D01*
X151789577Y-63618384D01*
X151828125Y-63474522D01*
X151830500Y-63465658D01*
X151830500Y-63307543D01*
X151830500Y-61231692D01*
X151850185Y-61164653D01*
X151883374Y-61130119D01*
X152069139Y-61000047D01*
X152230047Y-60839139D01*
X152360568Y-60652734D01*
X152387895Y-60594129D01*
X152434064Y-60541695D01*
X152501257Y-60522542D01*
X152568139Y-60542757D01*
X152612657Y-60594133D01*
X152639865Y-60652482D01*
X152770342Y-60838820D01*
X152931179Y-60999657D01*
X153117517Y-61130134D01*
X153323673Y-61226265D01*
X153323682Y-61226269D01*
X153519999Y-61278872D01*
X153520000Y-61278871D01*
X153520000Y-60433012D01*
X153577007Y-60465925D01*
X153704174Y-60500000D01*
X153835826Y-60500000D01*
X153962993Y-60465925D01*
X154020000Y-60433012D01*
X154020000Y-61278872D01*
X154216317Y-61226269D01*
X154216326Y-61226265D01*
X154422482Y-61130134D01*
X154608820Y-60999657D01*
X154769657Y-60838820D01*
X154900134Y-60652482D01*
X154996265Y-60446326D01*
X154996269Y-60446317D01*
X155048872Y-60250000D01*
X154203012Y-60250000D01*
X154235925Y-60192993D01*
X154270000Y-60065826D01*
X154270000Y-59934174D01*
X154235925Y-59807007D01*
X154203012Y-59750000D01*
X155048872Y-59750000D01*
X155048872Y-59749999D01*
X154996269Y-59553682D01*
X154996265Y-59553673D01*
X154900134Y-59347517D01*
X154845507Y-59269503D01*
X154823180Y-59203297D01*
X154840190Y-59135530D01*
X154891138Y-59087716D01*
X154959847Y-59075038D01*
X155024504Y-59101519D01*
X155034763Y-59110698D01*
X155999681Y-60075616D01*
X156033166Y-60136939D01*
X156036000Y-60163297D01*
X156036000Y-62042587D01*
X156016315Y-62109626D01*
X156008950Y-62119896D01*
X156006686Y-62122734D01*
X155910711Y-62275476D01*
X155851131Y-62445745D01*
X155851130Y-62445750D01*
X155830935Y-62624996D01*
X155830935Y-62625003D01*
X155851130Y-62804249D01*
X155851131Y-62804254D01*
X155910711Y-62974523D01*
X156006684Y-63127262D01*
X156134238Y-63254816D01*
X156286978Y-63350789D01*
X156457245Y-63410368D01*
X156457250Y-63410369D01*
X156636496Y-63430565D01*
X156636500Y-63430565D01*
X156636504Y-63430565D01*
X156815749Y-63410369D01*
X156815752Y-63410368D01*
X156815755Y-63410368D01*
X156986022Y-63350789D01*
X157138762Y-63254816D01*
X157266316Y-63127262D01*
X157362289Y-62974522D01*
X157421868Y-62804255D01*
X157442065Y-62625000D01*
X157421868Y-62445745D01*
X157421867Y-62445743D01*
X157421866Y-62445737D01*
X157364550Y-62281938D01*
X157360988Y-62212159D01*
X157395716Y-62151532D01*
X157457710Y-62119304D01*
X157495474Y-62117763D01*
X157609096Y-62130565D01*
X157609100Y-62130565D01*
X157609104Y-62130565D01*
X157788349Y-62110369D01*
X157788352Y-62110368D01*
X157788355Y-62110368D01*
X157958622Y-62050789D01*
X158111362Y-61954816D01*
X158238916Y-61827262D01*
X158334889Y-61674522D01*
X158394468Y-61504255D01*
X158399470Y-61459861D01*
X158414665Y-61325003D01*
X158414665Y-61324996D01*
X158394469Y-61145750D01*
X158394468Y-61145745D01*
X158389005Y-61130134D01*
X158334889Y-60975478D01*
X158238916Y-60822738D01*
X158238914Y-60822736D01*
X158238913Y-60822734D01*
X158236650Y-60819896D01*
X158235759Y-60817715D01*
X158235211Y-60816842D01*
X158235364Y-60816745D01*
X158210244Y-60755209D01*
X158209600Y-60742587D01*
X158209600Y-59072460D01*
X158209601Y-59072447D01*
X158209601Y-58904344D01*
X158201132Y-58872737D01*
X158168677Y-58751616D01*
X158150463Y-58720068D01*
X158089624Y-58614690D01*
X158089618Y-58614682D01*
X157579617Y-58104681D01*
X157546132Y-58043358D01*
X157551116Y-57973666D01*
X157592988Y-57917733D01*
X157658452Y-57893316D01*
X157667298Y-57893000D01*
X161724003Y-57893000D01*
X161791042Y-57912685D01*
X161811684Y-57929319D01*
X163275898Y-59393534D01*
X163309383Y-59454857D01*
X163311437Y-59467331D01*
X163321230Y-59554249D01*
X163380810Y-59724521D01*
X163411465Y-59773308D01*
X163476784Y-59877262D01*
X163604338Y-60004816D01*
X163672377Y-60047568D01*
X163724194Y-60080127D01*
X163757078Y-60100789D01*
X163860389Y-60136939D01*
X163927345Y-60160368D01*
X163927350Y-60160369D01*
X164106596Y-60180565D01*
X164106600Y-60180565D01*
X164106604Y-60180565D01*
X164285849Y-60160369D01*
X164285852Y-60160368D01*
X164285855Y-60160368D01*
X164456122Y-60100789D01*
X164608862Y-60004816D01*
X164736416Y-59877262D01*
X164832389Y-59724522D01*
X164891968Y-59554255D01*
X164901368Y-59470826D01*
X164912165Y-59375003D01*
X164912165Y-59374996D01*
X164891969Y-59195750D01*
X164891968Y-59195745D01*
X164879873Y-59161179D01*
X164832389Y-59025478D01*
X164816379Y-58999998D01*
X168424532Y-58999998D01*
X168424532Y-59000001D01*
X168444364Y-59226686D01*
X168444366Y-59226697D01*
X168503258Y-59446488D01*
X168503261Y-59446497D01*
X168599431Y-59652732D01*
X168599432Y-59652734D01*
X168729954Y-59839141D01*
X168890858Y-60000045D01*
X168890861Y-60000047D01*
X169076624Y-60130118D01*
X169120248Y-60184693D01*
X169129500Y-60231692D01*
X169129500Y-81893330D01*
X169129499Y-81893348D01*
X169129499Y-82059054D01*
X169129498Y-82059054D01*
X169170423Y-82211785D01*
X169199358Y-82261900D01*
X169199359Y-82261904D01*
X169199360Y-82261904D01*
X169249479Y-82348714D01*
X169249481Y-82348717D01*
X169368349Y-82467585D01*
X169368355Y-82467590D01*
X175593076Y-88692312D01*
X175626561Y-88753635D01*
X175625601Y-88810434D01*
X175574524Y-89012129D01*
X175574522Y-89012137D01*
X175554814Y-89249993D01*
X175554814Y-89250006D01*
X175574522Y-89487862D01*
X175574524Y-89487873D01*
X175633117Y-89719251D01*
X175728996Y-89937832D01*
X175859542Y-90137649D01*
X176021204Y-90313260D01*
X176021208Y-90313263D01*
X176209549Y-90459855D01*
X176209555Y-90459859D01*
X176209558Y-90459861D01*
X176419475Y-90573463D01*
X176498604Y-90600628D01*
X176645224Y-90650963D01*
X176645226Y-90650963D01*
X176645228Y-90650964D01*
X176880657Y-90690250D01*
X176880658Y-90690250D01*
X177119343Y-90690250D01*
X177354772Y-90650964D01*
X177428184Y-90625760D01*
X177497980Y-90622611D01*
X177556126Y-90655361D01*
X177618881Y-90718116D01*
X177652366Y-90779439D01*
X177655200Y-90805797D01*
X177655200Y-98278500D01*
X177635515Y-98345539D01*
X177582711Y-98391294D01*
X177513553Y-98401238D01*
X177490937Y-98395781D01*
X177354775Y-98349036D01*
X177178200Y-98319571D01*
X177119343Y-98309750D01*
X176880657Y-98309750D01*
X176833571Y-98317607D01*
X176645224Y-98349036D01*
X176419482Y-98426534D01*
X176419474Y-98426537D01*
X176209555Y-98540140D01*
X176209549Y-98540144D01*
X176021208Y-98686736D01*
X176021204Y-98686739D01*
X175859542Y-98862350D01*
X175728996Y-99062167D01*
X175633117Y-99280748D01*
X175574524Y-99512126D01*
X175574522Y-99512137D01*
X175554814Y-99749993D01*
X175554814Y-99750006D01*
X175574522Y-99987862D01*
X175574524Y-99987873D01*
X175633117Y-100219251D01*
X175728996Y-100437832D01*
X175859542Y-100637649D01*
X176021204Y-100813260D01*
X176021208Y-100813263D01*
X176209549Y-100959855D01*
X176209555Y-100959859D01*
X176209558Y-100959861D01*
X176419475Y-101073463D01*
X176533273Y-101112530D01*
X176645224Y-101150963D01*
X176645226Y-101150963D01*
X176645228Y-101150964D01*
X176880657Y-101190250D01*
X176880658Y-101190250D01*
X177119342Y-101190250D01*
X177119343Y-101190250D01*
X177354772Y-101150964D01*
X177354775Y-101150963D01*
X177490937Y-101104219D01*
X177560736Y-101101069D01*
X177621157Y-101136155D01*
X177653018Y-101198338D01*
X177655200Y-101221500D01*
X177655200Y-101461044D01*
X177635515Y-101528083D01*
X177582711Y-101573838D01*
X177513553Y-101583782D01*
X177510791Y-101583353D01*
X177369343Y-101559750D01*
X177130657Y-101559750D01*
X177100484Y-101564785D01*
X176895224Y-101599036D01*
X176669482Y-101676534D01*
X176669474Y-101676537D01*
X176459555Y-101790140D01*
X176459549Y-101790144D01*
X176271208Y-101936736D01*
X176271204Y-101936739D01*
X176109542Y-102112350D01*
X175978996Y-102312167D01*
X175883117Y-102530748D01*
X175824524Y-102762126D01*
X175824522Y-102762137D01*
X175804814Y-102999993D01*
X175804814Y-103000006D01*
X175824522Y-103237862D01*
X175824524Y-103237873D01*
X175883117Y-103469251D01*
X175978996Y-103687832D01*
X176109542Y-103887649D01*
X176271204Y-104063260D01*
X176271208Y-104063263D01*
X176459549Y-104209855D01*
X176459555Y-104209859D01*
X176459558Y-104209861D01*
X176669475Y-104323463D01*
X176786700Y-104363706D01*
X176895224Y-104400963D01*
X176895226Y-104400963D01*
X176895228Y-104400964D01*
X177130657Y-104440250D01*
X177130658Y-104440250D01*
X177369342Y-104440250D01*
X177369343Y-104440250D01*
X177604772Y-104400964D01*
X177830525Y-104323463D01*
X178040442Y-104209861D01*
X178228798Y-104063258D01*
X178390455Y-103887652D01*
X178521003Y-103687833D01*
X178616882Y-103469251D01*
X178675476Y-103237870D01*
X178695186Y-103000000D01*
X178695186Y-102999993D01*
X178675477Y-102762137D01*
X178675475Y-102762126D01*
X178624399Y-102560432D01*
X178627024Y-102490612D01*
X178656921Y-102442313D01*
X178736220Y-102363016D01*
X178815277Y-102226084D01*
X178856201Y-102073357D01*
X178856201Y-101915242D01*
X178856201Y-101907647D01*
X178856200Y-101907629D01*
X178856200Y-90594759D01*
X178856201Y-90594746D01*
X178856201Y-90426645D01*
X178856201Y-90426643D01*
X178815277Y-90273915D01*
X178786339Y-90223795D01*
X178736220Y-90136984D01*
X178624416Y-90025180D01*
X178624415Y-90025179D01*
X178620085Y-90020849D01*
X178620074Y-90020839D01*
X178406923Y-89807688D01*
X178373438Y-89746365D01*
X178374399Y-89689566D01*
X178375479Y-89685304D01*
X178425476Y-89487870D01*
X178426888Y-89470829D01*
X178445186Y-89250006D01*
X178445186Y-89249993D01*
X178425477Y-89012137D01*
X178425475Y-89012126D01*
X178366882Y-88780748D01*
X178271003Y-88562167D01*
X178140457Y-88362350D01*
X177978795Y-88186739D01*
X177978791Y-88186736D01*
X177790450Y-88040144D01*
X177790444Y-88040140D01*
X177580525Y-87926537D01*
X177580517Y-87926534D01*
X177354775Y-87849036D01*
X177178200Y-87819571D01*
X177119343Y-87809750D01*
X176880657Y-87809750D01*
X176851202Y-87814665D01*
X176645227Y-87849035D01*
X176571815Y-87874238D01*
X176502016Y-87877387D01*
X176443872Y-87844637D01*
X170366819Y-81767583D01*
X170333334Y-81706260D01*
X170330500Y-81679902D01*
X170330500Y-60231692D01*
X170350185Y-60164653D01*
X170383374Y-60130119D01*
X170569139Y-60000047D01*
X170730047Y-59839139D01*
X170860568Y-59652734D01*
X170887895Y-59594129D01*
X170934064Y-59541695D01*
X171001257Y-59522542D01*
X171068139Y-59542757D01*
X171112657Y-59594133D01*
X171139865Y-59652482D01*
X171270342Y-59838820D01*
X171431179Y-59999657D01*
X171617517Y-60130134D01*
X171823673Y-60226265D01*
X171823682Y-60226269D01*
X172019999Y-60278872D01*
X172020000Y-60278871D01*
X172020000Y-59433012D01*
X172077007Y-59465925D01*
X172204174Y-59500000D01*
X172335826Y-59500000D01*
X172462993Y-59465925D01*
X172520000Y-59433012D01*
X172520000Y-60278872D01*
X172716317Y-60226269D01*
X172716326Y-60226265D01*
X172922482Y-60130134D01*
X173108820Y-59999657D01*
X173269657Y-59838820D01*
X173400134Y-59652482D01*
X173496265Y-59446326D01*
X173496269Y-59446317D01*
X173548872Y-59250000D01*
X172703012Y-59250000D01*
X172735925Y-59192993D01*
X172770000Y-59065826D01*
X172770000Y-58934174D01*
X172735925Y-58807007D01*
X172703012Y-58750000D01*
X173548872Y-58750000D01*
X173548872Y-58749999D01*
X173496269Y-58553682D01*
X173496265Y-58553673D01*
X173400134Y-58347517D01*
X173269657Y-58161179D01*
X173108820Y-58000342D01*
X172922482Y-57869865D01*
X172716328Y-57773734D01*
X172520000Y-57721127D01*
X172520000Y-58566988D01*
X172462993Y-58534075D01*
X172335826Y-58500000D01*
X172204174Y-58500000D01*
X172077007Y-58534075D01*
X172020000Y-58566988D01*
X172020000Y-57721127D01*
X171823671Y-57773734D01*
X171617517Y-57869865D01*
X171431179Y-58000342D01*
X171270342Y-58161179D01*
X171139867Y-58347515D01*
X171112657Y-58405867D01*
X171066484Y-58458306D01*
X170999290Y-58477457D01*
X170932409Y-58457241D01*
X170887893Y-58405865D01*
X170860570Y-58347271D01*
X170860567Y-58347265D01*
X170813420Y-58279932D01*
X170730047Y-58160861D01*
X170730045Y-58160858D01*
X170569141Y-57999954D01*
X170382734Y-57869432D01*
X170382732Y-57869431D01*
X170176497Y-57773261D01*
X170176488Y-57773258D01*
X169956697Y-57714366D01*
X169956693Y-57714365D01*
X169956692Y-57714365D01*
X169956691Y-57714364D01*
X169956686Y-57714364D01*
X169730002Y-57694532D01*
X169729998Y-57694532D01*
X169503313Y-57714364D01*
X169503302Y-57714366D01*
X169283511Y-57773258D01*
X169283502Y-57773261D01*
X169077267Y-57869431D01*
X169077265Y-57869432D01*
X168890858Y-57999954D01*
X168729954Y-58160858D01*
X168599432Y-58347265D01*
X168599431Y-58347267D01*
X168503261Y-58553502D01*
X168503258Y-58553511D01*
X168444366Y-58773302D01*
X168444364Y-58773313D01*
X168424532Y-58999998D01*
X164816379Y-58999998D01*
X164736416Y-58872738D01*
X164608862Y-58745184D01*
X164568881Y-58720062D01*
X164456121Y-58649210D01*
X164285849Y-58589630D01*
X164198931Y-58579837D01*
X164134517Y-58552770D01*
X164125134Y-58544298D01*
X162511690Y-56930855D01*
X162511688Y-56930852D01*
X162392817Y-56811981D01*
X162392809Y-56811975D01*
X162291036Y-56753217D01*
X162291034Y-56753216D01*
X162255890Y-56732925D01*
X162255889Y-56732924D01*
X162243363Y-56729567D01*
X162103157Y-56691999D01*
X161945043Y-56691999D01*
X161937447Y-56691999D01*
X161937431Y-56692000D01*
X157368212Y-56692000D01*
X157301173Y-56672315D01*
X157290897Y-56664945D01*
X157288063Y-56662685D01*
X157288062Y-56662684D01*
X157217739Y-56618497D01*
X157135323Y-56566711D01*
X156965054Y-56507131D01*
X156965049Y-56507130D01*
X156785804Y-56486935D01*
X156785796Y-56486935D01*
X156606550Y-56507130D01*
X156606545Y-56507131D01*
X156436276Y-56566711D01*
X156277655Y-56666380D01*
X156210418Y-56685380D01*
X156143583Y-56665012D01*
X156124002Y-56649067D01*
X155017050Y-55542115D01*
X153863519Y-54388583D01*
X153830034Y-54327260D01*
X153827200Y-54300902D01*
X153827200Y-53920945D01*
X153827200Y-53920943D01*
X153786277Y-53768216D01*
X153775760Y-53750000D01*
X153707224Y-53631290D01*
X153707218Y-53631282D01*
X153595417Y-53519481D01*
X153595409Y-53519475D01*
X153458490Y-53440426D01*
X153458487Y-53440424D01*
X153458484Y-53440423D01*
X153458480Y-53440422D01*
X153450977Y-53437314D01*
X153452224Y-53434302D01*
X153405573Y-53405863D01*
X153381150Y-53365792D01*
X153368796Y-53332669D01*
X153368794Y-53332667D01*
X153368794Y-53332665D01*
X153282547Y-53217455D01*
X153282544Y-53217452D01*
X153167335Y-53131206D01*
X153167328Y-53131202D01*
X153032482Y-53080908D01*
X153032483Y-53080908D01*
X152972883Y-53074501D01*
X152972881Y-53074500D01*
X152972873Y-53074500D01*
X152972864Y-53074500D01*
X152027129Y-53074500D01*
X152027123Y-53074501D01*
X151967516Y-53080908D01*
X151875472Y-53115239D01*
X151805780Y-53120223D01*
X151793934Y-53116390D01*
X151793750Y-53116957D01*
X151787573Y-53114950D01*
X151787571Y-53114949D01*
X151787568Y-53114948D01*
X151787567Y-53114948D01*
X151597274Y-53074500D01*
X151402726Y-53074500D01*
X151212430Y-53114948D01*
X151212427Y-53114949D01*
X151050434Y-53187072D01*
X150981184Y-53196356D01*
X150949566Y-53187072D01*
X150787572Y-53114949D01*
X150787569Y-53114948D01*
X150597274Y-53074500D01*
X150402726Y-53074500D01*
X150212430Y-53114948D01*
X150212427Y-53114949D01*
X150050434Y-53187072D01*
X149981184Y-53196356D01*
X149949566Y-53187072D01*
X149787572Y-53114949D01*
X149787569Y-53114948D01*
X149597274Y-53074500D01*
X149402726Y-53074500D01*
X149212430Y-53114948D01*
X149212427Y-53114949D01*
X149050434Y-53187072D01*
X148981184Y-53196356D01*
X148949566Y-53187072D01*
X148787572Y-53114949D01*
X148787569Y-53114948D01*
X148597274Y-53074500D01*
X148402726Y-53074500D01*
X148212430Y-53114948D01*
X148212427Y-53114949D01*
X148050434Y-53187072D01*
X147981184Y-53196356D01*
X147949566Y-53187072D01*
X147787572Y-53114949D01*
X147787569Y-53114948D01*
X147597274Y-53074500D01*
X147402726Y-53074500D01*
X147212430Y-53114948D01*
X147212427Y-53114949D01*
X147050434Y-53187072D01*
X146981184Y-53196356D01*
X146949566Y-53187072D01*
X146787572Y-53114949D01*
X146787569Y-53114948D01*
X146597274Y-53074500D01*
X146402726Y-53074500D01*
X146212430Y-53114948D01*
X146212427Y-53114949D01*
X146050434Y-53187072D01*
X145981184Y-53196356D01*
X145949566Y-53187072D01*
X145787572Y-53114949D01*
X145787569Y-53114948D01*
X145597274Y-53074500D01*
X145402726Y-53074500D01*
X145206073Y-53116300D01*
X145205758Y-53114818D01*
X145143663Y-53116578D01*
X145083838Y-53080484D01*
X145060648Y-53044102D01*
X145059576Y-53041513D01*
X145049023Y-53023235D01*
X145009640Y-52955022D01*
X144980520Y-52904584D01*
X144868716Y-52792780D01*
X144868715Y-52792779D01*
X144864385Y-52788449D01*
X144864374Y-52788439D01*
X144519790Y-52443855D01*
X144519788Y-52443852D01*
X144400917Y-52324981D01*
X144400916Y-52324980D01*
X144314104Y-52274860D01*
X144314104Y-52274859D01*
X144314100Y-52274858D01*
X144263985Y-52245923D01*
X144111257Y-52204999D01*
X143953143Y-52204999D01*
X143945547Y-52204999D01*
X143945531Y-52205000D01*
X142075914Y-52205000D01*
X142008875Y-52185315D01*
X141963120Y-52132511D01*
X141952694Y-52094884D01*
X141944769Y-52024549D01*
X141944768Y-52024545D01*
X141885188Y-51854276D01*
X141789215Y-51701537D01*
X141661662Y-51573984D01*
X141508923Y-51478011D01*
X141338654Y-51418431D01*
X141338649Y-51418430D01*
X141159404Y-51398235D01*
X141159402Y-51398235D01*
X141159400Y-51398235D01*
X141146126Y-51399730D01*
X141127925Y-51401781D01*
X141081952Y-51398335D01*
X141015759Y-51380599D01*
X141015757Y-51380599D01*
X140857643Y-51380599D01*
X140850047Y-51380599D01*
X140850031Y-51380600D01*
X135349057Y-51380600D01*
X135190943Y-51380600D01*
X135038215Y-51421523D01*
X135038214Y-51421523D01*
X135038212Y-51421524D01*
X135038209Y-51421525D01*
X134988096Y-51450459D01*
X134988095Y-51450460D01*
X134944689Y-51475520D01*
X134901285Y-51500579D01*
X134901282Y-51500581D01*
X132299879Y-54101984D01*
X132279271Y-54137680D01*
X132268676Y-54156032D01*
X132220823Y-54238915D01*
X132179899Y-54391643D01*
X132179899Y-54391645D01*
X132179899Y-54559746D01*
X132179900Y-54559759D01*
X132179900Y-67644687D01*
X132160215Y-67711726D01*
X132152850Y-67721996D01*
X132150586Y-67724834D01*
X132054611Y-67877576D01*
X131995031Y-68047845D01*
X131995030Y-68047850D01*
X131974835Y-68227096D01*
X120500500Y-68227096D01*
X120500500Y-58499997D01*
X125232677Y-58499997D01*
X125232677Y-58500002D01*
X125251929Y-58720062D01*
X125251930Y-58720070D01*
X125309104Y-58933445D01*
X125309105Y-58933447D01*
X125309106Y-58933450D01*
X125352019Y-59025478D01*
X125402466Y-59133662D01*
X125402468Y-59133666D01*
X125529170Y-59314615D01*
X125529175Y-59314621D01*
X125685378Y-59470824D01*
X125685384Y-59470829D01*
X125866333Y-59597531D01*
X125866335Y-59597532D01*
X125866338Y-59597534D01*
X126066550Y-59690894D01*
X126279932Y-59748070D01*
X126437123Y-59761822D01*
X126499998Y-59767323D01*
X126500000Y-59767323D01*
X126500002Y-59767323D01*
X126555017Y-59762509D01*
X126720068Y-59748070D01*
X126933450Y-59690894D01*
X127133662Y-59597534D01*
X127314620Y-59470826D01*
X127470826Y-59314620D01*
X127597534Y-59133662D01*
X127690894Y-58933450D01*
X127748070Y-58720068D01*
X127767323Y-58500000D01*
X127748070Y-58279932D01*
X127690894Y-58066550D01*
X127597534Y-57866339D01*
X127491122Y-57714366D01*
X127470827Y-57685381D01*
X127431128Y-57645682D01*
X127314620Y-57529174D01*
X127314616Y-57529171D01*
X127314615Y-57529170D01*
X127133666Y-57402468D01*
X127133662Y-57402466D01*
X127091250Y-57382689D01*
X126933450Y-57309106D01*
X126933447Y-57309105D01*
X126933445Y-57309104D01*
X126720070Y-57251930D01*
X126720062Y-57251929D01*
X126500002Y-57232677D01*
X126499998Y-57232677D01*
X126279937Y-57251929D01*
X126279929Y-57251930D01*
X126066554Y-57309104D01*
X126066548Y-57309107D01*
X125866340Y-57402465D01*
X125866338Y-57402466D01*
X125685377Y-57529175D01*
X125529175Y-57685377D01*
X125402466Y-57866338D01*
X125402465Y-57866340D01*
X125309107Y-58066548D01*
X125309104Y-58066554D01*
X125251930Y-58279929D01*
X125251929Y-58279937D01*
X125232677Y-58499997D01*
X120500500Y-58499997D01*
X120500500Y-50624500D01*
X120520185Y-50557461D01*
X120572989Y-50511706D01*
X120624500Y-50500500D01*
X184375500Y-50500500D01*
X184442539Y-50520185D01*
G37*
%TD.AperFunction*%
%TD*%
M02*
