%TF.GenerationSoftware,KiCad,Pcbnew,8.0.8*%
%TF.CreationDate,2025-03-27T18:49:55+02:00*%
%TF.ProjectId,Main PCB,4d61696e-2050-4434-922e-6b696361645f,v1*%
%TF.SameCoordinates,Original*%
%TF.FileFunction,Legend,Bot*%
%TF.FilePolarity,Positive*%
%FSLAX46Y46*%
G04 Gerber Fmt 4.6, Leading zero omitted, Abs format (unit mm)*
G04 Created by KiCad (PCBNEW 8.0.8) date 2025-03-27 18:49:55*
%MOMM*%
%LPD*%
G01*
G04 APERTURE LIST*
%ADD10O,2.900000X1.700000*%
%ADD11C,1.879500*%
%ADD12R,0.850000X0.850000*%
%ADD13O,0.850000X0.850000*%
%ADD14C,1.600000*%
%ADD15C,1.200000*%
%ADD16O,1.154000X1.954000*%
%ADD17O,1.154000X2.254000*%
%ADD18C,0.650000*%
%ADD19C,1.524000*%
%ADD20R,3.200000X3.200000*%
%ADD21O,3.200000X3.200000*%
G04 APERTURE END LIST*
%LPC*%
D10*
%TO.C,SW1*%
X170500000Y-88700000D03*
X170500000Y-93500000D03*
X170500000Y-98300000D03*
%TD*%
D11*
%TO.C,R17*%
X177000000Y-89250000D03*
X177000000Y-99750000D03*
%TD*%
D12*
%TO.C,J3*%
X157000000Y-98500000D03*
D13*
X156000000Y-98500000D03*
%TD*%
D14*
%TO.C,C10*%
X169730000Y-59000000D03*
X172270000Y-59000000D03*
%TD*%
D15*
%TO.C,C13*%
X144000000Y-78750000D03*
X144000000Y-80250000D03*
%TD*%
D16*
%TO.C,J1*%
X146325000Y-105575000D03*
X137675000Y-105575000D03*
D17*
X146325000Y-101375000D03*
X137675000Y-101375000D03*
D18*
X144890000Y-101895000D03*
X139110000Y-101895000D03*
%TD*%
D19*
%TO.C,R11*%
X162500000Y-106250000D03*
X162500000Y-90750000D03*
%TD*%
D12*
%TO.C,J2*%
X152500000Y-54000000D03*
D13*
X152500000Y-55000000D03*
X151500000Y-54000000D03*
X151500000Y-55000000D03*
X150500000Y-54000000D03*
X150500000Y-55000000D03*
X149500000Y-54000000D03*
X149500000Y-55000000D03*
X148500000Y-54000000D03*
X148500000Y-55000000D03*
X147500000Y-54000000D03*
X147500000Y-55000000D03*
X146500000Y-54000000D03*
X146500000Y-55000000D03*
X145500000Y-54000000D03*
X145500000Y-55000000D03*
X144500000Y-54000000D03*
X144500000Y-55000000D03*
X143500000Y-54000000D03*
X143500000Y-55000000D03*
X142500000Y-54000000D03*
X142500000Y-55000000D03*
X141500000Y-54000000D03*
X141500000Y-55000000D03*
X140500000Y-54000000D03*
X140500000Y-55000000D03*
X139500000Y-54000000D03*
X139500000Y-55000000D03*
X138500000Y-54000000D03*
X138500000Y-55000000D03*
X137500000Y-54000000D03*
X137500000Y-55000000D03*
%TD*%
D15*
%TO.C,C11*%
X147750000Y-68000000D03*
X149250000Y-68000000D03*
%TD*%
D19*
%TO.C,R14*%
X127000000Y-74500000D03*
X127000000Y-87500000D03*
%TD*%
D11*
%TO.C,R12*%
X166750000Y-103000000D03*
X177250000Y-103000000D03*
%TD*%
D19*
%TO.C,R16*%
X126500000Y-58500000D03*
X126500000Y-71500000D03*
%TD*%
D14*
%TO.C,C8*%
X151230000Y-60000000D03*
X153770000Y-60000000D03*
%TD*%
D19*
%TO.C,R10*%
X152850000Y-88500000D03*
X163150000Y-88500000D03*
%TD*%
D11*
%TO.C,R15*%
X136500000Y-70750000D03*
X136500000Y-60250000D03*
%TD*%
%TO.C,R13*%
X137000000Y-84250000D03*
X137000000Y-73750000D03*
%TD*%
D20*
%TO.C,D1*%
X159000000Y-84120000D03*
D21*
X159000000Y-68880000D03*
%TD*%
%LPD*%
M02*
