%TF.GenerationSoftware,KiCad,Pcbnew,8.0.8*%
%TF.CreationDate,2025-03-27T18:49:55+02:00*%
%TF.ProjectId,Main PCB,4d61696e-2050-4434-922e-6b696361645f,v1*%
%TF.SameCoordinates,Original*%
%TF.FileFunction,Legend,Top*%
%TF.FilePolarity,Positive*%
%FSLAX46Y46*%
G04 Gerber Fmt 4.6, Leading zero omitted, Abs format (unit mm)*
G04 Created by KiCad (PCBNEW 8.0.8) date 2025-03-27 18:49:55*
%MOMM*%
%LPD*%
G01*
G04 APERTURE LIST*
G04 Aperture macros list*
%AMRoundRect*
0 Rectangle with rounded corners*
0 $1 Rounding radius*
0 $2 $3 $4 $5 $6 $7 $8 $9 X,Y pos of 4 corners*
0 Add a 4 corners polygon primitive as box body*
4,1,4,$2,$3,$4,$5,$6,$7,$8,$9,$2,$3,0*
0 Add four circle primitives for the rounded corners*
1,1,$1+$1,$2,$3*
1,1,$1+$1,$4,$5*
1,1,$1+$1,$6,$7*
1,1,$1+$1,$8,$9*
0 Add four rect primitives between the rounded corners*
20,1,$1+$1,$2,$3,$4,$5,0*
20,1,$1+$1,$4,$5,$6,$7,0*
20,1,$1+$1,$6,$7,$8,$9,0*
20,1,$1+$1,$8,$9,$2,$3,0*%
G04 Aperture macros list end*
%ADD10C,0.150000*%
%ADD11C,0.254000*%
%ADD12C,0.152500*%
%ADD13C,0.120000*%
%ADD14C,0.000000*%
%ADD15C,0.200000*%
%ADD16C,0.127000*%
%ADD17C,0.010000*%
%ADD18O,2.900000X1.700000*%
%ADD19C,1.879500*%
%ADD20R,1.250000X0.700000*%
%ADD21R,1.410000X1.350000*%
%ADD22RoundRect,0.250000X0.625000X-0.400000X0.625000X0.400000X-0.625000X0.400000X-0.625000X-0.400000X0*%
%ADD23RoundRect,0.150000X-0.825000X-0.150000X0.825000X-0.150000X0.825000X0.150000X-0.825000X0.150000X0*%
%ADD24R,1.728000X1.485000*%
%ADD25R,0.650000X0.350000*%
%ADD26R,1.000000X1.600000*%
%ADD27RoundRect,0.087500X-0.487500X-0.087500X0.487500X-0.087500X0.487500X0.087500X-0.487500X0.087500X0*%
%ADD28RoundRect,0.050000X-0.675000X-0.050000X0.675000X-0.050000X0.675000X0.050000X-0.675000X0.050000X0*%
%ADD29RoundRect,0.062500X-0.162500X-0.062500X0.162500X-0.062500X0.162500X0.062500X-0.162500X0.062500X0*%
%ADD30R,1.070000X0.600000*%
%ADD31R,0.850000X0.850000*%
%ADD32O,0.850000X0.850000*%
%ADD33C,1.600000*%
%ADD34C,1.200000*%
%ADD35RoundRect,0.237500X-0.237500X0.250000X-0.237500X-0.250000X0.237500X-0.250000X0.237500X0.250000X0*%
%ADD36O,1.154000X1.954000*%
%ADD37O,1.154000X2.254000*%
%ADD38C,0.650000*%
%ADD39RoundRect,0.200000X-0.750000X-0.200000X0.750000X-0.200000X0.750000X0.200000X-0.750000X0.200000X0*%
%ADD40R,1.635000X2.700000*%
%ADD41C,1.524000*%
%ADD42RoundRect,0.237500X-0.250000X-0.237500X0.250000X-0.237500X0.250000X0.237500X-0.250000X0.237500X0*%
%ADD43RoundRect,0.237500X0.237500X-0.250000X0.237500X0.250000X-0.237500X0.250000X-0.237500X-0.250000X0*%
%ADD44RoundRect,0.085500X-0.621500X-0.256500X0.621500X-0.256500X0.621500X0.256500X-0.621500X0.256500X0*%
%ADD45RoundRect,0.250000X0.475000X-0.337500X0.475000X0.337500X-0.475000X0.337500X-0.475000X-0.337500X0*%
%ADD46RoundRect,0.237500X0.237500X-0.300000X0.237500X0.300000X-0.237500X0.300000X-0.237500X-0.300000X0*%
%ADD47RoundRect,0.160000X-0.160000X0.197500X-0.160000X-0.197500X0.160000X-0.197500X0.160000X0.197500X0*%
%ADD48RoundRect,0.155000X-0.212500X-0.155000X0.212500X-0.155000X0.212500X0.155000X-0.212500X0.155000X0*%
%ADD49RoundRect,0.100000X-0.637500X-0.100000X0.637500X-0.100000X0.637500X0.100000X-0.637500X0.100000X0*%
%ADD50R,1.485000X1.728000*%
%ADD51RoundRect,0.160000X-0.197500X-0.160000X0.197500X-0.160000X0.197500X0.160000X-0.197500X0.160000X0*%
%ADD52R,2.950000X4.500000*%
%ADD53R,0.500000X0.300000*%
%ADD54R,1.050000X1.750000*%
%ADD55R,3.200000X3.200000*%
%ADD56O,3.200000X3.200000*%
G04 APERTURE END LIST*
D10*
X166730200Y-94833332D02*
X166777819Y-94690475D01*
X166777819Y-94690475D02*
X166777819Y-94452380D01*
X166777819Y-94452380D02*
X166730200Y-94357142D01*
X166730200Y-94357142D02*
X166682580Y-94309523D01*
X166682580Y-94309523D02*
X166587342Y-94261904D01*
X166587342Y-94261904D02*
X166492104Y-94261904D01*
X166492104Y-94261904D02*
X166396866Y-94309523D01*
X166396866Y-94309523D02*
X166349247Y-94357142D01*
X166349247Y-94357142D02*
X166301628Y-94452380D01*
X166301628Y-94452380D02*
X166254009Y-94642856D01*
X166254009Y-94642856D02*
X166206390Y-94738094D01*
X166206390Y-94738094D02*
X166158771Y-94785713D01*
X166158771Y-94785713D02*
X166063533Y-94833332D01*
X166063533Y-94833332D02*
X165968295Y-94833332D01*
X165968295Y-94833332D02*
X165873057Y-94785713D01*
X165873057Y-94785713D02*
X165825438Y-94738094D01*
X165825438Y-94738094D02*
X165777819Y-94642856D01*
X165777819Y-94642856D02*
X165777819Y-94404761D01*
X165777819Y-94404761D02*
X165825438Y-94261904D01*
X165777819Y-93928570D02*
X166777819Y-93690475D01*
X166777819Y-93690475D02*
X166063533Y-93499999D01*
X166063533Y-93499999D02*
X166777819Y-93309523D01*
X166777819Y-93309523D02*
X165777819Y-93071428D01*
X166777819Y-92166666D02*
X166777819Y-92738094D01*
X166777819Y-92452380D02*
X165777819Y-92452380D01*
X165777819Y-92452380D02*
X165920676Y-92547618D01*
X165920676Y-92547618D02*
X166015914Y-92642856D01*
X166015914Y-92642856D02*
X166063533Y-92738094D01*
X175377819Y-95142857D02*
X174901628Y-95476190D01*
X175377819Y-95714285D02*
X174377819Y-95714285D01*
X174377819Y-95714285D02*
X174377819Y-95333333D01*
X174377819Y-95333333D02*
X174425438Y-95238095D01*
X174425438Y-95238095D02*
X174473057Y-95190476D01*
X174473057Y-95190476D02*
X174568295Y-95142857D01*
X174568295Y-95142857D02*
X174711152Y-95142857D01*
X174711152Y-95142857D02*
X174806390Y-95190476D01*
X174806390Y-95190476D02*
X174854009Y-95238095D01*
X174854009Y-95238095D02*
X174901628Y-95333333D01*
X174901628Y-95333333D02*
X174901628Y-95714285D01*
X175377819Y-94190476D02*
X175377819Y-94761904D01*
X175377819Y-94476190D02*
X174377819Y-94476190D01*
X174377819Y-94476190D02*
X174520676Y-94571428D01*
X174520676Y-94571428D02*
X174615914Y-94666666D01*
X174615914Y-94666666D02*
X174663533Y-94761904D01*
X174377819Y-93857142D02*
X174377819Y-93190476D01*
X174377819Y-93190476D02*
X175377819Y-93619047D01*
X177404761Y-76247807D02*
X177309523Y-76200188D01*
X177309523Y-76200188D02*
X177214285Y-76104950D01*
X177214285Y-76104950D02*
X177071428Y-75962092D01*
X177071428Y-75962092D02*
X176976190Y-75914473D01*
X176976190Y-75914473D02*
X176880952Y-75914473D01*
X176928571Y-76152569D02*
X176833333Y-76104950D01*
X176833333Y-76104950D02*
X176738095Y-76009711D01*
X176738095Y-76009711D02*
X176690476Y-75819235D01*
X176690476Y-75819235D02*
X176690476Y-75485902D01*
X176690476Y-75485902D02*
X176738095Y-75295426D01*
X176738095Y-75295426D02*
X176833333Y-75200188D01*
X176833333Y-75200188D02*
X176928571Y-75152569D01*
X176928571Y-75152569D02*
X177119047Y-75152569D01*
X177119047Y-75152569D02*
X177214285Y-75200188D01*
X177214285Y-75200188D02*
X177309523Y-75295426D01*
X177309523Y-75295426D02*
X177357142Y-75485902D01*
X177357142Y-75485902D02*
X177357142Y-75819235D01*
X177357142Y-75819235D02*
X177309523Y-76009711D01*
X177309523Y-76009711D02*
X177214285Y-76104950D01*
X177214285Y-76104950D02*
X177119047Y-76152569D01*
X177119047Y-76152569D02*
X176928571Y-76152569D01*
X177690476Y-75152569D02*
X178357142Y-75152569D01*
X178357142Y-75152569D02*
X177928571Y-76152569D01*
X152333333Y-63679830D02*
X152285714Y-63727450D01*
X152285714Y-63727450D02*
X152142857Y-63775069D01*
X152142857Y-63775069D02*
X152047619Y-63775069D01*
X152047619Y-63775069D02*
X151904762Y-63727450D01*
X151904762Y-63727450D02*
X151809524Y-63632211D01*
X151809524Y-63632211D02*
X151761905Y-63536973D01*
X151761905Y-63536973D02*
X151714286Y-63346497D01*
X151714286Y-63346497D02*
X151714286Y-63203640D01*
X151714286Y-63203640D02*
X151761905Y-63013164D01*
X151761905Y-63013164D02*
X151809524Y-62917926D01*
X151809524Y-62917926D02*
X151904762Y-62822688D01*
X151904762Y-62822688D02*
X152047619Y-62775069D01*
X152047619Y-62775069D02*
X152142857Y-62775069D01*
X152142857Y-62775069D02*
X152285714Y-62822688D01*
X152285714Y-62822688D02*
X152333333Y-62870307D01*
X152666667Y-62775069D02*
X153333333Y-62775069D01*
X153333333Y-62775069D02*
X152904762Y-63775069D01*
X157134819Y-94666666D02*
X156658628Y-94999999D01*
X157134819Y-95238094D02*
X156134819Y-95238094D01*
X156134819Y-95238094D02*
X156134819Y-94857142D01*
X156134819Y-94857142D02*
X156182438Y-94761904D01*
X156182438Y-94761904D02*
X156230057Y-94714285D01*
X156230057Y-94714285D02*
X156325295Y-94666666D01*
X156325295Y-94666666D02*
X156468152Y-94666666D01*
X156468152Y-94666666D02*
X156563390Y-94714285D01*
X156563390Y-94714285D02*
X156611009Y-94761904D01*
X156611009Y-94761904D02*
X156658628Y-94857142D01*
X156658628Y-94857142D02*
X156658628Y-95238094D01*
X156134819Y-94333332D02*
X156134819Y-93714285D01*
X156134819Y-93714285D02*
X156515771Y-94047618D01*
X156515771Y-94047618D02*
X156515771Y-93904761D01*
X156515771Y-93904761D02*
X156563390Y-93809523D01*
X156563390Y-93809523D02*
X156611009Y-93761904D01*
X156611009Y-93761904D02*
X156706247Y-93714285D01*
X156706247Y-93714285D02*
X156944342Y-93714285D01*
X156944342Y-93714285D02*
X157039580Y-93761904D01*
X157039580Y-93761904D02*
X157087200Y-93809523D01*
X157087200Y-93809523D02*
X157134819Y-93904761D01*
X157134819Y-93904761D02*
X157134819Y-94190475D01*
X157134819Y-94190475D02*
X157087200Y-94285713D01*
X157087200Y-94285713D02*
X157039580Y-94333332D01*
X144738095Y-77954819D02*
X144738095Y-78764342D01*
X144738095Y-78764342D02*
X144785714Y-78859580D01*
X144785714Y-78859580D02*
X144833333Y-78907200D01*
X144833333Y-78907200D02*
X144928571Y-78954819D01*
X144928571Y-78954819D02*
X145119047Y-78954819D01*
X145119047Y-78954819D02*
X145214285Y-78907200D01*
X145214285Y-78907200D02*
X145261904Y-78859580D01*
X145261904Y-78859580D02*
X145309523Y-78764342D01*
X145309523Y-78764342D02*
X145309523Y-77954819D01*
X145690476Y-77954819D02*
X146357142Y-77954819D01*
X146357142Y-77954819D02*
X145928571Y-78954819D01*
X143859580Y-84142857D02*
X143907200Y-84190476D01*
X143907200Y-84190476D02*
X143954819Y-84333333D01*
X143954819Y-84333333D02*
X143954819Y-84428571D01*
X143954819Y-84428571D02*
X143907200Y-84571428D01*
X143907200Y-84571428D02*
X143811961Y-84666666D01*
X143811961Y-84666666D02*
X143716723Y-84714285D01*
X143716723Y-84714285D02*
X143526247Y-84761904D01*
X143526247Y-84761904D02*
X143383390Y-84761904D01*
X143383390Y-84761904D02*
X143192914Y-84714285D01*
X143192914Y-84714285D02*
X143097676Y-84666666D01*
X143097676Y-84666666D02*
X143002438Y-84571428D01*
X143002438Y-84571428D02*
X142954819Y-84428571D01*
X142954819Y-84428571D02*
X142954819Y-84333333D01*
X142954819Y-84333333D02*
X143002438Y-84190476D01*
X143002438Y-84190476D02*
X143050057Y-84142857D01*
X143954819Y-83190476D02*
X143954819Y-83761904D01*
X143954819Y-83476190D02*
X142954819Y-83476190D01*
X142954819Y-83476190D02*
X143097676Y-83571428D01*
X143097676Y-83571428D02*
X143192914Y-83666666D01*
X143192914Y-83666666D02*
X143240533Y-83761904D01*
X143288152Y-82333333D02*
X143954819Y-82333333D01*
X142907200Y-82571428D02*
X143621485Y-82809523D01*
X143621485Y-82809523D02*
X143621485Y-82190476D01*
X131904761Y-77247807D02*
X131809523Y-77200188D01*
X131809523Y-77200188D02*
X131714285Y-77104950D01*
X131714285Y-77104950D02*
X131571428Y-76962092D01*
X131571428Y-76962092D02*
X131476190Y-76914473D01*
X131476190Y-76914473D02*
X131380952Y-76914473D01*
X131428571Y-77152569D02*
X131333333Y-77104950D01*
X131333333Y-77104950D02*
X131238095Y-77009711D01*
X131238095Y-77009711D02*
X131190476Y-76819235D01*
X131190476Y-76819235D02*
X131190476Y-76485902D01*
X131190476Y-76485902D02*
X131238095Y-76295426D01*
X131238095Y-76295426D02*
X131333333Y-76200188D01*
X131333333Y-76200188D02*
X131428571Y-76152569D01*
X131428571Y-76152569D02*
X131619047Y-76152569D01*
X131619047Y-76152569D02*
X131714285Y-76200188D01*
X131714285Y-76200188D02*
X131809523Y-76295426D01*
X131809523Y-76295426D02*
X131857142Y-76485902D01*
X131857142Y-76485902D02*
X131857142Y-76819235D01*
X131857142Y-76819235D02*
X131809523Y-77009711D01*
X131809523Y-77009711D02*
X131714285Y-77104950D01*
X131714285Y-77104950D02*
X131619047Y-77152569D01*
X131619047Y-77152569D02*
X131428571Y-77152569D01*
X132714285Y-76485902D02*
X132714285Y-77152569D01*
X132476190Y-76104950D02*
X132238095Y-76819235D01*
X132238095Y-76819235D02*
X132857142Y-76819235D01*
X130904761Y-61747807D02*
X130809523Y-61700188D01*
X130809523Y-61700188D02*
X130714285Y-61604950D01*
X130714285Y-61604950D02*
X130571428Y-61462092D01*
X130571428Y-61462092D02*
X130476190Y-61414473D01*
X130476190Y-61414473D02*
X130380952Y-61414473D01*
X130428571Y-61652569D02*
X130333333Y-61604950D01*
X130333333Y-61604950D02*
X130238095Y-61509711D01*
X130238095Y-61509711D02*
X130190476Y-61319235D01*
X130190476Y-61319235D02*
X130190476Y-60985902D01*
X130190476Y-60985902D02*
X130238095Y-60795426D01*
X130238095Y-60795426D02*
X130333333Y-60700188D01*
X130333333Y-60700188D02*
X130428571Y-60652569D01*
X130428571Y-60652569D02*
X130619047Y-60652569D01*
X130619047Y-60652569D02*
X130714285Y-60700188D01*
X130714285Y-60700188D02*
X130809523Y-60795426D01*
X130809523Y-60795426D02*
X130857142Y-60985902D01*
X130857142Y-60985902D02*
X130857142Y-61319235D01*
X130857142Y-61319235D02*
X130809523Y-61509711D01*
X130809523Y-61509711D02*
X130714285Y-61604950D01*
X130714285Y-61604950D02*
X130619047Y-61652569D01*
X130619047Y-61652569D02*
X130428571Y-61652569D01*
X131714285Y-60652569D02*
X131523809Y-60652569D01*
X131523809Y-60652569D02*
X131428571Y-60700188D01*
X131428571Y-60700188D02*
X131380952Y-60747807D01*
X131380952Y-60747807D02*
X131285714Y-60890664D01*
X131285714Y-60890664D02*
X131238095Y-61081140D01*
X131238095Y-61081140D02*
X131238095Y-61462092D01*
X131238095Y-61462092D02*
X131285714Y-61557330D01*
X131285714Y-61557330D02*
X131333333Y-61604950D01*
X131333333Y-61604950D02*
X131428571Y-61652569D01*
X131428571Y-61652569D02*
X131619047Y-61652569D01*
X131619047Y-61652569D02*
X131714285Y-61604950D01*
X131714285Y-61604950D02*
X131761904Y-61557330D01*
X131761904Y-61557330D02*
X131809523Y-61462092D01*
X131809523Y-61462092D02*
X131809523Y-61223997D01*
X131809523Y-61223997D02*
X131761904Y-61128759D01*
X131761904Y-61128759D02*
X131714285Y-61081140D01*
X131714285Y-61081140D02*
X131619047Y-61033521D01*
X131619047Y-61033521D02*
X131428571Y-61033521D01*
X131428571Y-61033521D02*
X131333333Y-61081140D01*
X131333333Y-61081140D02*
X131285714Y-61128759D01*
X131285714Y-61128759D02*
X131238095Y-61223997D01*
X145238095Y-96954819D02*
X145238095Y-97764342D01*
X145238095Y-97764342D02*
X145285714Y-97859580D01*
X145285714Y-97859580D02*
X145333333Y-97907200D01*
X145333333Y-97907200D02*
X145428571Y-97954819D01*
X145428571Y-97954819D02*
X145619047Y-97954819D01*
X145619047Y-97954819D02*
X145714285Y-97907200D01*
X145714285Y-97907200D02*
X145761904Y-97859580D01*
X145761904Y-97859580D02*
X145809523Y-97764342D01*
X145809523Y-97764342D02*
X145809523Y-96954819D01*
X146809523Y-97954819D02*
X146238095Y-97954819D01*
X146523809Y-97954819D02*
X146523809Y-96954819D01*
X146523809Y-96954819D02*
X146428571Y-97097676D01*
X146428571Y-97097676D02*
X146333333Y-97192914D01*
X146333333Y-97192914D02*
X146238095Y-97240533D01*
X149238095Y-86454819D02*
X149238095Y-87264342D01*
X149238095Y-87264342D02*
X149285714Y-87359580D01*
X149285714Y-87359580D02*
X149333333Y-87407200D01*
X149333333Y-87407200D02*
X149428571Y-87454819D01*
X149428571Y-87454819D02*
X149619047Y-87454819D01*
X149619047Y-87454819D02*
X149714285Y-87407200D01*
X149714285Y-87407200D02*
X149761904Y-87359580D01*
X149761904Y-87359580D02*
X149809523Y-87264342D01*
X149809523Y-87264342D02*
X149809523Y-86454819D01*
X150714285Y-86788152D02*
X150714285Y-87454819D01*
X150476190Y-86407200D02*
X150238095Y-87121485D01*
X150238095Y-87121485D02*
X150857142Y-87121485D01*
X130904761Y-68237807D02*
X130809523Y-68190188D01*
X130809523Y-68190188D02*
X130714285Y-68094950D01*
X130714285Y-68094950D02*
X130571428Y-67952092D01*
X130571428Y-67952092D02*
X130476190Y-67904473D01*
X130476190Y-67904473D02*
X130380952Y-67904473D01*
X130428571Y-68142569D02*
X130333333Y-68094950D01*
X130333333Y-68094950D02*
X130238095Y-67999711D01*
X130238095Y-67999711D02*
X130190476Y-67809235D01*
X130190476Y-67809235D02*
X130190476Y-67475902D01*
X130190476Y-67475902D02*
X130238095Y-67285426D01*
X130238095Y-67285426D02*
X130333333Y-67190188D01*
X130333333Y-67190188D02*
X130428571Y-67142569D01*
X130428571Y-67142569D02*
X130619047Y-67142569D01*
X130619047Y-67142569D02*
X130714285Y-67190188D01*
X130714285Y-67190188D02*
X130809523Y-67285426D01*
X130809523Y-67285426D02*
X130857142Y-67475902D01*
X130857142Y-67475902D02*
X130857142Y-67809235D01*
X130857142Y-67809235D02*
X130809523Y-67999711D01*
X130809523Y-67999711D02*
X130714285Y-68094950D01*
X130714285Y-68094950D02*
X130619047Y-68142569D01*
X130619047Y-68142569D02*
X130428571Y-68142569D01*
X131761904Y-67142569D02*
X131285714Y-67142569D01*
X131285714Y-67142569D02*
X131238095Y-67618759D01*
X131238095Y-67618759D02*
X131285714Y-67571140D01*
X131285714Y-67571140D02*
X131380952Y-67523521D01*
X131380952Y-67523521D02*
X131619047Y-67523521D01*
X131619047Y-67523521D02*
X131714285Y-67571140D01*
X131714285Y-67571140D02*
X131761904Y-67618759D01*
X131761904Y-67618759D02*
X131809523Y-67713997D01*
X131809523Y-67713997D02*
X131809523Y-67952092D01*
X131809523Y-67952092D02*
X131761904Y-68047330D01*
X131761904Y-68047330D02*
X131714285Y-68094950D01*
X131714285Y-68094950D02*
X131619047Y-68142569D01*
X131619047Y-68142569D02*
X131380952Y-68142569D01*
X131380952Y-68142569D02*
X131285714Y-68094950D01*
X131285714Y-68094950D02*
X131238095Y-68047330D01*
X154134819Y-94666666D02*
X153658628Y-94999999D01*
X154134819Y-95238094D02*
X153134819Y-95238094D01*
X153134819Y-95238094D02*
X153134819Y-94857142D01*
X153134819Y-94857142D02*
X153182438Y-94761904D01*
X153182438Y-94761904D02*
X153230057Y-94714285D01*
X153230057Y-94714285D02*
X153325295Y-94666666D01*
X153325295Y-94666666D02*
X153468152Y-94666666D01*
X153468152Y-94666666D02*
X153563390Y-94714285D01*
X153563390Y-94714285D02*
X153611009Y-94761904D01*
X153611009Y-94761904D02*
X153658628Y-94857142D01*
X153658628Y-94857142D02*
X153658628Y-95238094D01*
X153230057Y-94285713D02*
X153182438Y-94238094D01*
X153182438Y-94238094D02*
X153134819Y-94142856D01*
X153134819Y-94142856D02*
X153134819Y-93904761D01*
X153134819Y-93904761D02*
X153182438Y-93809523D01*
X153182438Y-93809523D02*
X153230057Y-93761904D01*
X153230057Y-93761904D02*
X153325295Y-93714285D01*
X153325295Y-93714285D02*
X153420533Y-93714285D01*
X153420533Y-93714285D02*
X153563390Y-93761904D01*
X153563390Y-93761904D02*
X154134819Y-94333332D01*
X154134819Y-94333332D02*
X154134819Y-93714285D01*
X158014819Y-98833333D02*
X158729104Y-98833333D01*
X158729104Y-98833333D02*
X158871961Y-98880952D01*
X158871961Y-98880952D02*
X158967200Y-98976190D01*
X158967200Y-98976190D02*
X159014819Y-99119047D01*
X159014819Y-99119047D02*
X159014819Y-99214285D01*
X158014819Y-98452380D02*
X158014819Y-97833333D01*
X158014819Y-97833333D02*
X158395771Y-98166666D01*
X158395771Y-98166666D02*
X158395771Y-98023809D01*
X158395771Y-98023809D02*
X158443390Y-97928571D01*
X158443390Y-97928571D02*
X158491009Y-97880952D01*
X158491009Y-97880952D02*
X158586247Y-97833333D01*
X158586247Y-97833333D02*
X158824342Y-97833333D01*
X158824342Y-97833333D02*
X158919580Y-97880952D01*
X158919580Y-97880952D02*
X158967200Y-97928571D01*
X158967200Y-97928571D02*
X159014819Y-98023809D01*
X159014819Y-98023809D02*
X159014819Y-98309523D01*
X159014819Y-98309523D02*
X158967200Y-98404761D01*
X158967200Y-98404761D02*
X158919580Y-98452380D01*
X170357142Y-55383080D02*
X170309523Y-55430700D01*
X170309523Y-55430700D02*
X170166666Y-55478319D01*
X170166666Y-55478319D02*
X170071428Y-55478319D01*
X170071428Y-55478319D02*
X169928571Y-55430700D01*
X169928571Y-55430700D02*
X169833333Y-55335461D01*
X169833333Y-55335461D02*
X169785714Y-55240223D01*
X169785714Y-55240223D02*
X169738095Y-55049747D01*
X169738095Y-55049747D02*
X169738095Y-54906890D01*
X169738095Y-54906890D02*
X169785714Y-54716414D01*
X169785714Y-54716414D02*
X169833333Y-54621176D01*
X169833333Y-54621176D02*
X169928571Y-54525938D01*
X169928571Y-54525938D02*
X170071428Y-54478319D01*
X170071428Y-54478319D02*
X170166666Y-54478319D01*
X170166666Y-54478319D02*
X170309523Y-54525938D01*
X170309523Y-54525938D02*
X170357142Y-54573557D01*
X171309523Y-55478319D02*
X170738095Y-55478319D01*
X171023809Y-55478319D02*
X171023809Y-54478319D01*
X171023809Y-54478319D02*
X170928571Y-54621176D01*
X170928571Y-54621176D02*
X170833333Y-54716414D01*
X170833333Y-54716414D02*
X170738095Y-54764033D01*
X171928571Y-54478319D02*
X172023809Y-54478319D01*
X172023809Y-54478319D02*
X172119047Y-54525938D01*
X172119047Y-54525938D02*
X172166666Y-54573557D01*
X172166666Y-54573557D02*
X172214285Y-54668795D01*
X172214285Y-54668795D02*
X172261904Y-54859271D01*
X172261904Y-54859271D02*
X172261904Y-55097366D01*
X172261904Y-55097366D02*
X172214285Y-55287842D01*
X172214285Y-55287842D02*
X172166666Y-55383080D01*
X172166666Y-55383080D02*
X172119047Y-55430700D01*
X172119047Y-55430700D02*
X172023809Y-55478319D01*
X172023809Y-55478319D02*
X171928571Y-55478319D01*
X171928571Y-55478319D02*
X171833333Y-55430700D01*
X171833333Y-55430700D02*
X171785714Y-55383080D01*
X171785714Y-55383080D02*
X171738095Y-55287842D01*
X171738095Y-55287842D02*
X171690476Y-55097366D01*
X171690476Y-55097366D02*
X171690476Y-54859271D01*
X171690476Y-54859271D02*
X171738095Y-54668795D01*
X171738095Y-54668795D02*
X171785714Y-54573557D01*
X171785714Y-54573557D02*
X171833333Y-54525938D01*
X171833333Y-54525938D02*
X171928571Y-54478319D01*
X147185580Y-80157857D02*
X147233200Y-80205476D01*
X147233200Y-80205476D02*
X147280819Y-80348333D01*
X147280819Y-80348333D02*
X147280819Y-80443571D01*
X147280819Y-80443571D02*
X147233200Y-80586428D01*
X147233200Y-80586428D02*
X147137961Y-80681666D01*
X147137961Y-80681666D02*
X147042723Y-80729285D01*
X147042723Y-80729285D02*
X146852247Y-80776904D01*
X146852247Y-80776904D02*
X146709390Y-80776904D01*
X146709390Y-80776904D02*
X146518914Y-80729285D01*
X146518914Y-80729285D02*
X146423676Y-80681666D01*
X146423676Y-80681666D02*
X146328438Y-80586428D01*
X146328438Y-80586428D02*
X146280819Y-80443571D01*
X146280819Y-80443571D02*
X146280819Y-80348333D01*
X146280819Y-80348333D02*
X146328438Y-80205476D01*
X146328438Y-80205476D02*
X146376057Y-80157857D01*
X147280819Y-79205476D02*
X147280819Y-79776904D01*
X147280819Y-79491190D02*
X146280819Y-79491190D01*
X146280819Y-79491190D02*
X146423676Y-79586428D01*
X146423676Y-79586428D02*
X146518914Y-79681666D01*
X146518914Y-79681666D02*
X146566533Y-79776904D01*
X146280819Y-78872142D02*
X146280819Y-78253095D01*
X146280819Y-78253095D02*
X146661771Y-78586428D01*
X146661771Y-78586428D02*
X146661771Y-78443571D01*
X146661771Y-78443571D02*
X146709390Y-78348333D01*
X146709390Y-78348333D02*
X146757009Y-78300714D01*
X146757009Y-78300714D02*
X146852247Y-78253095D01*
X146852247Y-78253095D02*
X147090342Y-78253095D01*
X147090342Y-78253095D02*
X147185580Y-78300714D01*
X147185580Y-78300714D02*
X147233200Y-78348333D01*
X147233200Y-78348333D02*
X147280819Y-78443571D01*
X147280819Y-78443571D02*
X147280819Y-78729285D01*
X147280819Y-78729285D02*
X147233200Y-78824523D01*
X147233200Y-78824523D02*
X147185580Y-78872142D01*
X146359580Y-84166666D02*
X146407200Y-84214285D01*
X146407200Y-84214285D02*
X146454819Y-84357142D01*
X146454819Y-84357142D02*
X146454819Y-84452380D01*
X146454819Y-84452380D02*
X146407200Y-84595237D01*
X146407200Y-84595237D02*
X146311961Y-84690475D01*
X146311961Y-84690475D02*
X146216723Y-84738094D01*
X146216723Y-84738094D02*
X146026247Y-84785713D01*
X146026247Y-84785713D02*
X145883390Y-84785713D01*
X145883390Y-84785713D02*
X145692914Y-84738094D01*
X145692914Y-84738094D02*
X145597676Y-84690475D01*
X145597676Y-84690475D02*
X145502438Y-84595237D01*
X145502438Y-84595237D02*
X145454819Y-84452380D01*
X145454819Y-84452380D02*
X145454819Y-84357142D01*
X145454819Y-84357142D02*
X145502438Y-84214285D01*
X145502438Y-84214285D02*
X145550057Y-84166666D01*
X145454819Y-83309523D02*
X145454819Y-83499999D01*
X145454819Y-83499999D02*
X145502438Y-83595237D01*
X145502438Y-83595237D02*
X145550057Y-83642856D01*
X145550057Y-83642856D02*
X145692914Y-83738094D01*
X145692914Y-83738094D02*
X145883390Y-83785713D01*
X145883390Y-83785713D02*
X146264342Y-83785713D01*
X146264342Y-83785713D02*
X146359580Y-83738094D01*
X146359580Y-83738094D02*
X146407200Y-83690475D01*
X146407200Y-83690475D02*
X146454819Y-83595237D01*
X146454819Y-83595237D02*
X146454819Y-83404761D01*
X146454819Y-83404761D02*
X146407200Y-83309523D01*
X146407200Y-83309523D02*
X146359580Y-83261904D01*
X146359580Y-83261904D02*
X146264342Y-83214285D01*
X146264342Y-83214285D02*
X146026247Y-83214285D01*
X146026247Y-83214285D02*
X145931009Y-83261904D01*
X145931009Y-83261904D02*
X145883390Y-83309523D01*
X145883390Y-83309523D02*
X145835771Y-83404761D01*
X145835771Y-83404761D02*
X145835771Y-83595237D01*
X145835771Y-83595237D02*
X145883390Y-83690475D01*
X145883390Y-83690475D02*
X145931009Y-83738094D01*
X145931009Y-83738094D02*
X146026247Y-83785713D01*
X128884819Y-94166666D02*
X128408628Y-94499999D01*
X128884819Y-94738094D02*
X127884819Y-94738094D01*
X127884819Y-94738094D02*
X127884819Y-94357142D01*
X127884819Y-94357142D02*
X127932438Y-94261904D01*
X127932438Y-94261904D02*
X127980057Y-94214285D01*
X127980057Y-94214285D02*
X128075295Y-94166666D01*
X128075295Y-94166666D02*
X128218152Y-94166666D01*
X128218152Y-94166666D02*
X128313390Y-94214285D01*
X128313390Y-94214285D02*
X128361009Y-94261904D01*
X128361009Y-94261904D02*
X128408628Y-94357142D01*
X128408628Y-94357142D02*
X128408628Y-94738094D01*
X128313390Y-93595237D02*
X128265771Y-93690475D01*
X128265771Y-93690475D02*
X128218152Y-93738094D01*
X128218152Y-93738094D02*
X128122914Y-93785713D01*
X128122914Y-93785713D02*
X128075295Y-93785713D01*
X128075295Y-93785713D02*
X127980057Y-93738094D01*
X127980057Y-93738094D02*
X127932438Y-93690475D01*
X127932438Y-93690475D02*
X127884819Y-93595237D01*
X127884819Y-93595237D02*
X127884819Y-93404761D01*
X127884819Y-93404761D02*
X127932438Y-93309523D01*
X127932438Y-93309523D02*
X127980057Y-93261904D01*
X127980057Y-93261904D02*
X128075295Y-93214285D01*
X128075295Y-93214285D02*
X128122914Y-93214285D01*
X128122914Y-93214285D02*
X128218152Y-93261904D01*
X128218152Y-93261904D02*
X128265771Y-93309523D01*
X128265771Y-93309523D02*
X128313390Y-93404761D01*
X128313390Y-93404761D02*
X128313390Y-93595237D01*
X128313390Y-93595237D02*
X128361009Y-93690475D01*
X128361009Y-93690475D02*
X128408628Y-93738094D01*
X128408628Y-93738094D02*
X128503866Y-93785713D01*
X128503866Y-93785713D02*
X128694342Y-93785713D01*
X128694342Y-93785713D02*
X128789580Y-93738094D01*
X128789580Y-93738094D02*
X128837200Y-93690475D01*
X128837200Y-93690475D02*
X128884819Y-93595237D01*
X128884819Y-93595237D02*
X128884819Y-93404761D01*
X128884819Y-93404761D02*
X128837200Y-93309523D01*
X128837200Y-93309523D02*
X128789580Y-93261904D01*
X128789580Y-93261904D02*
X128694342Y-93214285D01*
X128694342Y-93214285D02*
X128503866Y-93214285D01*
X128503866Y-93214285D02*
X128408628Y-93261904D01*
X128408628Y-93261904D02*
X128361009Y-93309523D01*
X128361009Y-93309523D02*
X128313390Y-93404761D01*
X135166666Y-104954819D02*
X135166666Y-105669104D01*
X135166666Y-105669104D02*
X135119047Y-105811961D01*
X135119047Y-105811961D02*
X135023809Y-105907200D01*
X135023809Y-105907200D02*
X134880952Y-105954819D01*
X134880952Y-105954819D02*
X134785714Y-105954819D01*
X136166666Y-105954819D02*
X135595238Y-105954819D01*
X135880952Y-105954819D02*
X135880952Y-104954819D01*
X135880952Y-104954819D02*
X135785714Y-105097676D01*
X135785714Y-105097676D02*
X135690476Y-105192914D01*
X135690476Y-105192914D02*
X135595238Y-105240533D01*
X131904761Y-91300057D02*
X131809523Y-91252438D01*
X131809523Y-91252438D02*
X131714285Y-91157200D01*
X131714285Y-91157200D02*
X131571428Y-91014342D01*
X131571428Y-91014342D02*
X131476190Y-90966723D01*
X131476190Y-90966723D02*
X131380952Y-90966723D01*
X131428571Y-91204819D02*
X131333333Y-91157200D01*
X131333333Y-91157200D02*
X131238095Y-91061961D01*
X131238095Y-91061961D02*
X131190476Y-90871485D01*
X131190476Y-90871485D02*
X131190476Y-90538152D01*
X131190476Y-90538152D02*
X131238095Y-90347676D01*
X131238095Y-90347676D02*
X131333333Y-90252438D01*
X131333333Y-90252438D02*
X131428571Y-90204819D01*
X131428571Y-90204819D02*
X131619047Y-90204819D01*
X131619047Y-90204819D02*
X131714285Y-90252438D01*
X131714285Y-90252438D02*
X131809523Y-90347676D01*
X131809523Y-90347676D02*
X131857142Y-90538152D01*
X131857142Y-90538152D02*
X131857142Y-90871485D01*
X131857142Y-90871485D02*
X131809523Y-91061961D01*
X131809523Y-91061961D02*
X131714285Y-91157200D01*
X131714285Y-91157200D02*
X131619047Y-91204819D01*
X131619047Y-91204819D02*
X131428571Y-91204819D01*
X132809523Y-91204819D02*
X132238095Y-91204819D01*
X132523809Y-91204819D02*
X132523809Y-90204819D01*
X132523809Y-90204819D02*
X132428571Y-90347676D01*
X132428571Y-90347676D02*
X132333333Y-90442914D01*
X132333333Y-90442914D02*
X132238095Y-90490533D01*
X177404761Y-82697807D02*
X177309523Y-82650188D01*
X177309523Y-82650188D02*
X177214285Y-82554950D01*
X177214285Y-82554950D02*
X177071428Y-82412092D01*
X177071428Y-82412092D02*
X176976190Y-82364473D01*
X176976190Y-82364473D02*
X176880952Y-82364473D01*
X176928571Y-82602569D02*
X176833333Y-82554950D01*
X176833333Y-82554950D02*
X176738095Y-82459711D01*
X176738095Y-82459711D02*
X176690476Y-82269235D01*
X176690476Y-82269235D02*
X176690476Y-81935902D01*
X176690476Y-81935902D02*
X176738095Y-81745426D01*
X176738095Y-81745426D02*
X176833333Y-81650188D01*
X176833333Y-81650188D02*
X176928571Y-81602569D01*
X176928571Y-81602569D02*
X177119047Y-81602569D01*
X177119047Y-81602569D02*
X177214285Y-81650188D01*
X177214285Y-81650188D02*
X177309523Y-81745426D01*
X177309523Y-81745426D02*
X177357142Y-81935902D01*
X177357142Y-81935902D02*
X177357142Y-82269235D01*
X177357142Y-82269235D02*
X177309523Y-82459711D01*
X177309523Y-82459711D02*
X177214285Y-82554950D01*
X177214285Y-82554950D02*
X177119047Y-82602569D01*
X177119047Y-82602569D02*
X176928571Y-82602569D01*
X177738095Y-81697807D02*
X177785714Y-81650188D01*
X177785714Y-81650188D02*
X177880952Y-81602569D01*
X177880952Y-81602569D02*
X178119047Y-81602569D01*
X178119047Y-81602569D02*
X178214285Y-81650188D01*
X178214285Y-81650188D02*
X178261904Y-81697807D01*
X178261904Y-81697807D02*
X178309523Y-81793045D01*
X178309523Y-81793045D02*
X178309523Y-81888283D01*
X178309523Y-81888283D02*
X178261904Y-82031140D01*
X178261904Y-82031140D02*
X177690476Y-82602569D01*
X177690476Y-82602569D02*
X178309523Y-82602569D01*
X149333333Y-84809569D02*
X148857143Y-84809569D01*
X148857143Y-84809569D02*
X148857143Y-83809569D01*
X150190476Y-84809569D02*
X149619048Y-84809569D01*
X149904762Y-84809569D02*
X149904762Y-83809569D01*
X149904762Y-83809569D02*
X149809524Y-83952426D01*
X149809524Y-83952426D02*
X149714286Y-84047664D01*
X149714286Y-84047664D02*
X149619048Y-84095283D01*
X165781819Y-99142857D02*
X165305628Y-99476190D01*
X165781819Y-99714285D02*
X164781819Y-99714285D01*
X164781819Y-99714285D02*
X164781819Y-99333333D01*
X164781819Y-99333333D02*
X164829438Y-99238095D01*
X164829438Y-99238095D02*
X164877057Y-99190476D01*
X164877057Y-99190476D02*
X164972295Y-99142857D01*
X164972295Y-99142857D02*
X165115152Y-99142857D01*
X165115152Y-99142857D02*
X165210390Y-99190476D01*
X165210390Y-99190476D02*
X165258009Y-99238095D01*
X165258009Y-99238095D02*
X165305628Y-99333333D01*
X165305628Y-99333333D02*
X165305628Y-99714285D01*
X165781819Y-98190476D02*
X165781819Y-98761904D01*
X165781819Y-98476190D02*
X164781819Y-98476190D01*
X164781819Y-98476190D02*
X164924676Y-98571428D01*
X164924676Y-98571428D02*
X165019914Y-98666666D01*
X165019914Y-98666666D02*
X165067533Y-98761904D01*
X165781819Y-97238095D02*
X165781819Y-97809523D01*
X165781819Y-97523809D02*
X164781819Y-97523809D01*
X164781819Y-97523809D02*
X164924676Y-97619047D01*
X164924676Y-97619047D02*
X165019914Y-97714285D01*
X165019914Y-97714285D02*
X165067533Y-97809523D01*
X134883333Y-87954819D02*
X134550000Y-87478628D01*
X134311905Y-87954819D02*
X134311905Y-86954819D01*
X134311905Y-86954819D02*
X134692857Y-86954819D01*
X134692857Y-86954819D02*
X134788095Y-87002438D01*
X134788095Y-87002438D02*
X134835714Y-87050057D01*
X134835714Y-87050057D02*
X134883333Y-87145295D01*
X134883333Y-87145295D02*
X134883333Y-87288152D01*
X134883333Y-87288152D02*
X134835714Y-87383390D01*
X134835714Y-87383390D02*
X134788095Y-87431009D01*
X134788095Y-87431009D02*
X134692857Y-87478628D01*
X134692857Y-87478628D02*
X134311905Y-87478628D01*
X135216667Y-86954819D02*
X135883333Y-86954819D01*
X135883333Y-86954819D02*
X135454762Y-87954819D01*
X134524819Y-98166666D02*
X134048628Y-98499999D01*
X134524819Y-98738094D02*
X133524819Y-98738094D01*
X133524819Y-98738094D02*
X133524819Y-98357142D01*
X133524819Y-98357142D02*
X133572438Y-98261904D01*
X133572438Y-98261904D02*
X133620057Y-98214285D01*
X133620057Y-98214285D02*
X133715295Y-98166666D01*
X133715295Y-98166666D02*
X133858152Y-98166666D01*
X133858152Y-98166666D02*
X133953390Y-98214285D01*
X133953390Y-98214285D02*
X134001009Y-98261904D01*
X134001009Y-98261904D02*
X134048628Y-98357142D01*
X134048628Y-98357142D02*
X134048628Y-98738094D01*
X134524819Y-97214285D02*
X134524819Y-97785713D01*
X134524819Y-97499999D02*
X133524819Y-97499999D01*
X133524819Y-97499999D02*
X133667676Y-97595237D01*
X133667676Y-97595237D02*
X133762914Y-97690475D01*
X133762914Y-97690475D02*
X133810533Y-97785713D01*
X153514819Y-54833333D02*
X154229104Y-54833333D01*
X154229104Y-54833333D02*
X154371961Y-54880952D01*
X154371961Y-54880952D02*
X154467200Y-54976190D01*
X154467200Y-54976190D02*
X154514819Y-55119047D01*
X154514819Y-55119047D02*
X154514819Y-55214285D01*
X153610057Y-54404761D02*
X153562438Y-54357142D01*
X153562438Y-54357142D02*
X153514819Y-54261904D01*
X153514819Y-54261904D02*
X153514819Y-54023809D01*
X153514819Y-54023809D02*
X153562438Y-53928571D01*
X153562438Y-53928571D02*
X153610057Y-53880952D01*
X153610057Y-53880952D02*
X153705295Y-53833333D01*
X153705295Y-53833333D02*
X153800533Y-53833333D01*
X153800533Y-53833333D02*
X153943390Y-53880952D01*
X153943390Y-53880952D02*
X154514819Y-54452380D01*
X154514819Y-54452380D02*
X154514819Y-53833333D01*
X150663095Y-90819819D02*
X150663095Y-91629342D01*
X150663095Y-91629342D02*
X150710714Y-91724580D01*
X150710714Y-91724580D02*
X150758333Y-91772200D01*
X150758333Y-91772200D02*
X150853571Y-91819819D01*
X150853571Y-91819819D02*
X151044047Y-91819819D01*
X151044047Y-91819819D02*
X151139285Y-91772200D01*
X151139285Y-91772200D02*
X151186904Y-91724580D01*
X151186904Y-91724580D02*
X151234523Y-91629342D01*
X151234523Y-91629342D02*
X151234523Y-90819819D01*
X151615476Y-90819819D02*
X152234523Y-90819819D01*
X152234523Y-90819819D02*
X151901190Y-91200771D01*
X151901190Y-91200771D02*
X152044047Y-91200771D01*
X152044047Y-91200771D02*
X152139285Y-91248390D01*
X152139285Y-91248390D02*
X152186904Y-91296009D01*
X152186904Y-91296009D02*
X152234523Y-91391247D01*
X152234523Y-91391247D02*
X152234523Y-91629342D01*
X152234523Y-91629342D02*
X152186904Y-91724580D01*
X152186904Y-91724580D02*
X152139285Y-91772200D01*
X152139285Y-91772200D02*
X152044047Y-91819819D01*
X152044047Y-91819819D02*
X151758333Y-91819819D01*
X151758333Y-91819819D02*
X151663095Y-91772200D01*
X151663095Y-91772200D02*
X151615476Y-91724580D01*
X152359580Y-85166666D02*
X152407200Y-85214285D01*
X152407200Y-85214285D02*
X152454819Y-85357142D01*
X152454819Y-85357142D02*
X152454819Y-85452380D01*
X152454819Y-85452380D02*
X152407200Y-85595237D01*
X152407200Y-85595237D02*
X152311961Y-85690475D01*
X152311961Y-85690475D02*
X152216723Y-85738094D01*
X152216723Y-85738094D02*
X152026247Y-85785713D01*
X152026247Y-85785713D02*
X151883390Y-85785713D01*
X151883390Y-85785713D02*
X151692914Y-85738094D01*
X151692914Y-85738094D02*
X151597676Y-85690475D01*
X151597676Y-85690475D02*
X151502438Y-85595237D01*
X151502438Y-85595237D02*
X151454819Y-85452380D01*
X151454819Y-85452380D02*
X151454819Y-85357142D01*
X151454819Y-85357142D02*
X151502438Y-85214285D01*
X151502438Y-85214285D02*
X151550057Y-85166666D01*
X151454819Y-84261904D02*
X151454819Y-84738094D01*
X151454819Y-84738094D02*
X151931009Y-84785713D01*
X151931009Y-84785713D02*
X151883390Y-84738094D01*
X151883390Y-84738094D02*
X151835771Y-84642856D01*
X151835771Y-84642856D02*
X151835771Y-84404761D01*
X151835771Y-84404761D02*
X151883390Y-84309523D01*
X151883390Y-84309523D02*
X151931009Y-84261904D01*
X151931009Y-84261904D02*
X152026247Y-84214285D01*
X152026247Y-84214285D02*
X152264342Y-84214285D01*
X152264342Y-84214285D02*
X152359580Y-84261904D01*
X152359580Y-84261904D02*
X152407200Y-84309523D01*
X152407200Y-84309523D02*
X152454819Y-84404761D01*
X152454819Y-84404761D02*
X152454819Y-84642856D01*
X152454819Y-84642856D02*
X152407200Y-84738094D01*
X152407200Y-84738094D02*
X152359580Y-84785713D01*
X144179580Y-94166666D02*
X144227200Y-94214285D01*
X144227200Y-94214285D02*
X144274819Y-94357142D01*
X144274819Y-94357142D02*
X144274819Y-94452380D01*
X144274819Y-94452380D02*
X144227200Y-94595237D01*
X144227200Y-94595237D02*
X144131961Y-94690475D01*
X144131961Y-94690475D02*
X144036723Y-94738094D01*
X144036723Y-94738094D02*
X143846247Y-94785713D01*
X143846247Y-94785713D02*
X143703390Y-94785713D01*
X143703390Y-94785713D02*
X143512914Y-94738094D01*
X143512914Y-94738094D02*
X143417676Y-94690475D01*
X143417676Y-94690475D02*
X143322438Y-94595237D01*
X143322438Y-94595237D02*
X143274819Y-94452380D01*
X143274819Y-94452380D02*
X143274819Y-94357142D01*
X143274819Y-94357142D02*
X143322438Y-94214285D01*
X143322438Y-94214285D02*
X143370057Y-94166666D01*
X143274819Y-93833332D02*
X143274819Y-93214285D01*
X143274819Y-93214285D02*
X143655771Y-93547618D01*
X143655771Y-93547618D02*
X143655771Y-93404761D01*
X143655771Y-93404761D02*
X143703390Y-93309523D01*
X143703390Y-93309523D02*
X143751009Y-93261904D01*
X143751009Y-93261904D02*
X143846247Y-93214285D01*
X143846247Y-93214285D02*
X144084342Y-93214285D01*
X144084342Y-93214285D02*
X144179580Y-93261904D01*
X144179580Y-93261904D02*
X144227200Y-93309523D01*
X144227200Y-93309523D02*
X144274819Y-93404761D01*
X144274819Y-93404761D02*
X144274819Y-93690475D01*
X144274819Y-93690475D02*
X144227200Y-93785713D01*
X144227200Y-93785713D02*
X144179580Y-93833332D01*
X152429580Y-97666666D02*
X152477200Y-97714285D01*
X152477200Y-97714285D02*
X152524819Y-97857142D01*
X152524819Y-97857142D02*
X152524819Y-97952380D01*
X152524819Y-97952380D02*
X152477200Y-98095237D01*
X152477200Y-98095237D02*
X152381961Y-98190475D01*
X152381961Y-98190475D02*
X152286723Y-98238094D01*
X152286723Y-98238094D02*
X152096247Y-98285713D01*
X152096247Y-98285713D02*
X151953390Y-98285713D01*
X151953390Y-98285713D02*
X151762914Y-98238094D01*
X151762914Y-98238094D02*
X151667676Y-98190475D01*
X151667676Y-98190475D02*
X151572438Y-98095237D01*
X151572438Y-98095237D02*
X151524819Y-97952380D01*
X151524819Y-97952380D02*
X151524819Y-97857142D01*
X151524819Y-97857142D02*
X151572438Y-97714285D01*
X151572438Y-97714285D02*
X151620057Y-97666666D01*
X151858152Y-96809523D02*
X152524819Y-96809523D01*
X151477200Y-97047618D02*
X152191485Y-97285713D01*
X152191485Y-97285713D02*
X152191485Y-96666666D01*
X131904761Y-83237807D02*
X131809523Y-83190188D01*
X131809523Y-83190188D02*
X131714285Y-83094950D01*
X131714285Y-83094950D02*
X131571428Y-82952092D01*
X131571428Y-82952092D02*
X131476190Y-82904473D01*
X131476190Y-82904473D02*
X131380952Y-82904473D01*
X131428571Y-83142569D02*
X131333333Y-83094950D01*
X131333333Y-83094950D02*
X131238095Y-82999711D01*
X131238095Y-82999711D02*
X131190476Y-82809235D01*
X131190476Y-82809235D02*
X131190476Y-82475902D01*
X131190476Y-82475902D02*
X131238095Y-82285426D01*
X131238095Y-82285426D02*
X131333333Y-82190188D01*
X131333333Y-82190188D02*
X131428571Y-82142569D01*
X131428571Y-82142569D02*
X131619047Y-82142569D01*
X131619047Y-82142569D02*
X131714285Y-82190188D01*
X131714285Y-82190188D02*
X131809523Y-82285426D01*
X131809523Y-82285426D02*
X131857142Y-82475902D01*
X131857142Y-82475902D02*
X131857142Y-82809235D01*
X131857142Y-82809235D02*
X131809523Y-82999711D01*
X131809523Y-82999711D02*
X131714285Y-83094950D01*
X131714285Y-83094950D02*
X131619047Y-83142569D01*
X131619047Y-83142569D02*
X131428571Y-83142569D01*
X132190476Y-82142569D02*
X132809523Y-82142569D01*
X132809523Y-82142569D02*
X132476190Y-82523521D01*
X132476190Y-82523521D02*
X132619047Y-82523521D01*
X132619047Y-82523521D02*
X132714285Y-82571140D01*
X132714285Y-82571140D02*
X132761904Y-82618759D01*
X132761904Y-82618759D02*
X132809523Y-82713997D01*
X132809523Y-82713997D02*
X132809523Y-82952092D01*
X132809523Y-82952092D02*
X132761904Y-83047330D01*
X132761904Y-83047330D02*
X132714285Y-83094950D01*
X132714285Y-83094950D02*
X132619047Y-83142569D01*
X132619047Y-83142569D02*
X132333333Y-83142569D01*
X132333333Y-83142569D02*
X132238095Y-83094950D01*
X132238095Y-83094950D02*
X132190476Y-83047330D01*
X147872142Y-65533580D02*
X147824523Y-65581200D01*
X147824523Y-65581200D02*
X147681666Y-65628819D01*
X147681666Y-65628819D02*
X147586428Y-65628819D01*
X147586428Y-65628819D02*
X147443571Y-65581200D01*
X147443571Y-65581200D02*
X147348333Y-65485961D01*
X147348333Y-65485961D02*
X147300714Y-65390723D01*
X147300714Y-65390723D02*
X147253095Y-65200247D01*
X147253095Y-65200247D02*
X147253095Y-65057390D01*
X147253095Y-65057390D02*
X147300714Y-64866914D01*
X147300714Y-64866914D02*
X147348333Y-64771676D01*
X147348333Y-64771676D02*
X147443571Y-64676438D01*
X147443571Y-64676438D02*
X147586428Y-64628819D01*
X147586428Y-64628819D02*
X147681666Y-64628819D01*
X147681666Y-64628819D02*
X147824523Y-64676438D01*
X147824523Y-64676438D02*
X147872142Y-64724057D01*
X148824523Y-65628819D02*
X148253095Y-65628819D01*
X148538809Y-65628819D02*
X148538809Y-64628819D01*
X148538809Y-64628819D02*
X148443571Y-64771676D01*
X148443571Y-64771676D02*
X148348333Y-64866914D01*
X148348333Y-64866914D02*
X148253095Y-64914533D01*
X149776904Y-65628819D02*
X149205476Y-65628819D01*
X149491190Y-65628819D02*
X149491190Y-64628819D01*
X149491190Y-64628819D02*
X149395952Y-64771676D01*
X149395952Y-64771676D02*
X149300714Y-64866914D01*
X149300714Y-64866914D02*
X149205476Y-64914533D01*
X129124819Y-97666666D02*
X128648628Y-97999999D01*
X129124819Y-98238094D02*
X128124819Y-98238094D01*
X128124819Y-98238094D02*
X128124819Y-97857142D01*
X128124819Y-97857142D02*
X128172438Y-97761904D01*
X128172438Y-97761904D02*
X128220057Y-97714285D01*
X128220057Y-97714285D02*
X128315295Y-97666666D01*
X128315295Y-97666666D02*
X128458152Y-97666666D01*
X128458152Y-97666666D02*
X128553390Y-97714285D01*
X128553390Y-97714285D02*
X128601009Y-97761904D01*
X128601009Y-97761904D02*
X128648628Y-97857142D01*
X128648628Y-97857142D02*
X128648628Y-98238094D01*
X128124819Y-96761904D02*
X128124819Y-97238094D01*
X128124819Y-97238094D02*
X128601009Y-97285713D01*
X128601009Y-97285713D02*
X128553390Y-97238094D01*
X128553390Y-97238094D02*
X128505771Y-97142856D01*
X128505771Y-97142856D02*
X128505771Y-96904761D01*
X128505771Y-96904761D02*
X128553390Y-96809523D01*
X128553390Y-96809523D02*
X128601009Y-96761904D01*
X128601009Y-96761904D02*
X128696247Y-96714285D01*
X128696247Y-96714285D02*
X128934342Y-96714285D01*
X128934342Y-96714285D02*
X129029580Y-96761904D01*
X129029580Y-96761904D02*
X129077200Y-96809523D01*
X129077200Y-96809523D02*
X129124819Y-96904761D01*
X129124819Y-96904761D02*
X129124819Y-97142856D01*
X129124819Y-97142856D02*
X129077200Y-97238094D01*
X129077200Y-97238094D02*
X129029580Y-97285713D01*
X137833333Y-97699580D02*
X137785714Y-97747200D01*
X137785714Y-97747200D02*
X137642857Y-97794819D01*
X137642857Y-97794819D02*
X137547619Y-97794819D01*
X137547619Y-97794819D02*
X137404762Y-97747200D01*
X137404762Y-97747200D02*
X137309524Y-97651961D01*
X137309524Y-97651961D02*
X137261905Y-97556723D01*
X137261905Y-97556723D02*
X137214286Y-97366247D01*
X137214286Y-97366247D02*
X137214286Y-97223390D01*
X137214286Y-97223390D02*
X137261905Y-97032914D01*
X137261905Y-97032914D02*
X137309524Y-96937676D01*
X137309524Y-96937676D02*
X137404762Y-96842438D01*
X137404762Y-96842438D02*
X137547619Y-96794819D01*
X137547619Y-96794819D02*
X137642857Y-96794819D01*
X137642857Y-96794819D02*
X137785714Y-96842438D01*
X137785714Y-96842438D02*
X137833333Y-96890057D01*
X138785714Y-97794819D02*
X138214286Y-97794819D01*
X138500000Y-97794819D02*
X138500000Y-96794819D01*
X138500000Y-96794819D02*
X138404762Y-96937676D01*
X138404762Y-96937676D02*
X138309524Y-97032914D01*
X138309524Y-97032914D02*
X138214286Y-97080533D01*
X129931819Y-81642857D02*
X129455628Y-81976190D01*
X129931819Y-82214285D02*
X128931819Y-82214285D01*
X128931819Y-82214285D02*
X128931819Y-81833333D01*
X128931819Y-81833333D02*
X128979438Y-81738095D01*
X128979438Y-81738095D02*
X129027057Y-81690476D01*
X129027057Y-81690476D02*
X129122295Y-81642857D01*
X129122295Y-81642857D02*
X129265152Y-81642857D01*
X129265152Y-81642857D02*
X129360390Y-81690476D01*
X129360390Y-81690476D02*
X129408009Y-81738095D01*
X129408009Y-81738095D02*
X129455628Y-81833333D01*
X129455628Y-81833333D02*
X129455628Y-82214285D01*
X129931819Y-80690476D02*
X129931819Y-81261904D01*
X129931819Y-80976190D02*
X128931819Y-80976190D01*
X128931819Y-80976190D02*
X129074676Y-81071428D01*
X129074676Y-81071428D02*
X129169914Y-81166666D01*
X129169914Y-81166666D02*
X129217533Y-81261904D01*
X129265152Y-79833333D02*
X129931819Y-79833333D01*
X128884200Y-80071428D02*
X129598485Y-80309523D01*
X129598485Y-80309523D02*
X129598485Y-79690476D01*
X143738095Y-57504819D02*
X143738095Y-58314342D01*
X143738095Y-58314342D02*
X143785714Y-58409580D01*
X143785714Y-58409580D02*
X143833333Y-58457200D01*
X143833333Y-58457200D02*
X143928571Y-58504819D01*
X143928571Y-58504819D02*
X144119047Y-58504819D01*
X144119047Y-58504819D02*
X144214285Y-58457200D01*
X144214285Y-58457200D02*
X144261904Y-58409580D01*
X144261904Y-58409580D02*
X144309523Y-58314342D01*
X144309523Y-58314342D02*
X144309523Y-57504819D01*
X145261904Y-57504819D02*
X144785714Y-57504819D01*
X144785714Y-57504819D02*
X144738095Y-57981009D01*
X144738095Y-57981009D02*
X144785714Y-57933390D01*
X144785714Y-57933390D02*
X144880952Y-57885771D01*
X144880952Y-57885771D02*
X145119047Y-57885771D01*
X145119047Y-57885771D02*
X145214285Y-57933390D01*
X145214285Y-57933390D02*
X145261904Y-57981009D01*
X145261904Y-57981009D02*
X145309523Y-58076247D01*
X145309523Y-58076247D02*
X145309523Y-58314342D01*
X145309523Y-58314342D02*
X145261904Y-58409580D01*
X145261904Y-58409580D02*
X145214285Y-58457200D01*
X145214285Y-58457200D02*
X145119047Y-58504819D01*
X145119047Y-58504819D02*
X144880952Y-58504819D01*
X144880952Y-58504819D02*
X144785714Y-58457200D01*
X144785714Y-58457200D02*
X144738095Y-58409580D01*
X161738095Y-57004819D02*
X161738095Y-57814342D01*
X161738095Y-57814342D02*
X161785714Y-57909580D01*
X161785714Y-57909580D02*
X161833333Y-57957200D01*
X161833333Y-57957200D02*
X161928571Y-58004819D01*
X161928571Y-58004819D02*
X162119047Y-58004819D01*
X162119047Y-58004819D02*
X162214285Y-57957200D01*
X162214285Y-57957200D02*
X162261904Y-57909580D01*
X162261904Y-57909580D02*
X162309523Y-57814342D01*
X162309523Y-57814342D02*
X162309523Y-57004819D01*
X163214285Y-57004819D02*
X163023809Y-57004819D01*
X163023809Y-57004819D02*
X162928571Y-57052438D01*
X162928571Y-57052438D02*
X162880952Y-57100057D01*
X162880952Y-57100057D02*
X162785714Y-57242914D01*
X162785714Y-57242914D02*
X162738095Y-57433390D01*
X162738095Y-57433390D02*
X162738095Y-57814342D01*
X162738095Y-57814342D02*
X162785714Y-57909580D01*
X162785714Y-57909580D02*
X162833333Y-57957200D01*
X162833333Y-57957200D02*
X162928571Y-58004819D01*
X162928571Y-58004819D02*
X163119047Y-58004819D01*
X163119047Y-58004819D02*
X163214285Y-57957200D01*
X163214285Y-57957200D02*
X163261904Y-57909580D01*
X163261904Y-57909580D02*
X163309523Y-57814342D01*
X163309523Y-57814342D02*
X163309523Y-57576247D01*
X163309523Y-57576247D02*
X163261904Y-57481009D01*
X163261904Y-57481009D02*
X163214285Y-57433390D01*
X163214285Y-57433390D02*
X163119047Y-57385771D01*
X163119047Y-57385771D02*
X162928571Y-57385771D01*
X162928571Y-57385771D02*
X162833333Y-57433390D01*
X162833333Y-57433390D02*
X162785714Y-57481009D01*
X162785714Y-57481009D02*
X162738095Y-57576247D01*
X145357142Y-71859580D02*
X145309523Y-71907200D01*
X145309523Y-71907200D02*
X145166666Y-71954819D01*
X145166666Y-71954819D02*
X145071428Y-71954819D01*
X145071428Y-71954819D02*
X144928571Y-71907200D01*
X144928571Y-71907200D02*
X144833333Y-71811961D01*
X144833333Y-71811961D02*
X144785714Y-71716723D01*
X144785714Y-71716723D02*
X144738095Y-71526247D01*
X144738095Y-71526247D02*
X144738095Y-71383390D01*
X144738095Y-71383390D02*
X144785714Y-71192914D01*
X144785714Y-71192914D02*
X144833333Y-71097676D01*
X144833333Y-71097676D02*
X144928571Y-71002438D01*
X144928571Y-71002438D02*
X145071428Y-70954819D01*
X145071428Y-70954819D02*
X145166666Y-70954819D01*
X145166666Y-70954819D02*
X145309523Y-71002438D01*
X145309523Y-71002438D02*
X145357142Y-71050057D01*
X146309523Y-71954819D02*
X145738095Y-71954819D01*
X146023809Y-71954819D02*
X146023809Y-70954819D01*
X146023809Y-70954819D02*
X145928571Y-71097676D01*
X145928571Y-71097676D02*
X145833333Y-71192914D01*
X145833333Y-71192914D02*
X145738095Y-71240533D01*
X146690476Y-71050057D02*
X146738095Y-71002438D01*
X146738095Y-71002438D02*
X146833333Y-70954819D01*
X146833333Y-70954819D02*
X147071428Y-70954819D01*
X147071428Y-70954819D02*
X147166666Y-71002438D01*
X147166666Y-71002438D02*
X147214285Y-71050057D01*
X147214285Y-71050057D02*
X147261904Y-71145295D01*
X147261904Y-71145295D02*
X147261904Y-71240533D01*
X147261904Y-71240533D02*
X147214285Y-71383390D01*
X147214285Y-71383390D02*
X146642857Y-71954819D01*
X146642857Y-71954819D02*
X147261904Y-71954819D01*
X171357142Y-101377819D02*
X171023809Y-100901628D01*
X170785714Y-101377819D02*
X170785714Y-100377819D01*
X170785714Y-100377819D02*
X171166666Y-100377819D01*
X171166666Y-100377819D02*
X171261904Y-100425438D01*
X171261904Y-100425438D02*
X171309523Y-100473057D01*
X171309523Y-100473057D02*
X171357142Y-100568295D01*
X171357142Y-100568295D02*
X171357142Y-100711152D01*
X171357142Y-100711152D02*
X171309523Y-100806390D01*
X171309523Y-100806390D02*
X171261904Y-100854009D01*
X171261904Y-100854009D02*
X171166666Y-100901628D01*
X171166666Y-100901628D02*
X170785714Y-100901628D01*
X172309523Y-101377819D02*
X171738095Y-101377819D01*
X172023809Y-101377819D02*
X172023809Y-100377819D01*
X172023809Y-100377819D02*
X171928571Y-100520676D01*
X171928571Y-100520676D02*
X171833333Y-100615914D01*
X171833333Y-100615914D02*
X171738095Y-100663533D01*
X172690476Y-100473057D02*
X172738095Y-100425438D01*
X172738095Y-100425438D02*
X172833333Y-100377819D01*
X172833333Y-100377819D02*
X173071428Y-100377819D01*
X173071428Y-100377819D02*
X173166666Y-100425438D01*
X173166666Y-100425438D02*
X173214285Y-100473057D01*
X173214285Y-100473057D02*
X173261904Y-100568295D01*
X173261904Y-100568295D02*
X173261904Y-100663533D01*
X173261904Y-100663533D02*
X173214285Y-100806390D01*
X173214285Y-100806390D02*
X172642857Y-101377819D01*
X172642857Y-101377819D02*
X173261904Y-101377819D01*
X136783333Y-90004819D02*
X136450000Y-89528628D01*
X136211905Y-90004819D02*
X136211905Y-89004819D01*
X136211905Y-89004819D02*
X136592857Y-89004819D01*
X136592857Y-89004819D02*
X136688095Y-89052438D01*
X136688095Y-89052438D02*
X136735714Y-89100057D01*
X136735714Y-89100057D02*
X136783333Y-89195295D01*
X136783333Y-89195295D02*
X136783333Y-89338152D01*
X136783333Y-89338152D02*
X136735714Y-89433390D01*
X136735714Y-89433390D02*
X136688095Y-89481009D01*
X136688095Y-89481009D02*
X136592857Y-89528628D01*
X136592857Y-89528628D02*
X136211905Y-89528628D01*
X137259524Y-90004819D02*
X137450000Y-90004819D01*
X137450000Y-90004819D02*
X137545238Y-89957200D01*
X137545238Y-89957200D02*
X137592857Y-89909580D01*
X137592857Y-89909580D02*
X137688095Y-89766723D01*
X137688095Y-89766723D02*
X137735714Y-89576247D01*
X137735714Y-89576247D02*
X137735714Y-89195295D01*
X137735714Y-89195295D02*
X137688095Y-89100057D01*
X137688095Y-89100057D02*
X137640476Y-89052438D01*
X137640476Y-89052438D02*
X137545238Y-89004819D01*
X137545238Y-89004819D02*
X137354762Y-89004819D01*
X137354762Y-89004819D02*
X137259524Y-89052438D01*
X137259524Y-89052438D02*
X137211905Y-89100057D01*
X137211905Y-89100057D02*
X137164286Y-89195295D01*
X137164286Y-89195295D02*
X137164286Y-89433390D01*
X137164286Y-89433390D02*
X137211905Y-89528628D01*
X137211905Y-89528628D02*
X137259524Y-89576247D01*
X137259524Y-89576247D02*
X137354762Y-89623866D01*
X137354762Y-89623866D02*
X137545238Y-89623866D01*
X137545238Y-89623866D02*
X137640476Y-89576247D01*
X137640476Y-89576247D02*
X137688095Y-89528628D01*
X137688095Y-89528628D02*
X137735714Y-89433390D01*
X168333333Y-74627819D02*
X167857143Y-74627819D01*
X167857143Y-74627819D02*
X167857143Y-73627819D01*
X168619048Y-73723057D02*
X168666667Y-73675438D01*
X168666667Y-73675438D02*
X168761905Y-73627819D01*
X168761905Y-73627819D02*
X169000000Y-73627819D01*
X169000000Y-73627819D02*
X169095238Y-73675438D01*
X169095238Y-73675438D02*
X169142857Y-73723057D01*
X169142857Y-73723057D02*
X169190476Y-73818295D01*
X169190476Y-73818295D02*
X169190476Y-73913533D01*
X169190476Y-73913533D02*
X169142857Y-74056390D01*
X169142857Y-74056390D02*
X168571429Y-74627819D01*
X168571429Y-74627819D02*
X169190476Y-74627819D01*
X129431819Y-65642857D02*
X128955628Y-65976190D01*
X129431819Y-66214285D02*
X128431819Y-66214285D01*
X128431819Y-66214285D02*
X128431819Y-65833333D01*
X128431819Y-65833333D02*
X128479438Y-65738095D01*
X128479438Y-65738095D02*
X128527057Y-65690476D01*
X128527057Y-65690476D02*
X128622295Y-65642857D01*
X128622295Y-65642857D02*
X128765152Y-65642857D01*
X128765152Y-65642857D02*
X128860390Y-65690476D01*
X128860390Y-65690476D02*
X128908009Y-65738095D01*
X128908009Y-65738095D02*
X128955628Y-65833333D01*
X128955628Y-65833333D02*
X128955628Y-66214285D01*
X129431819Y-64690476D02*
X129431819Y-65261904D01*
X129431819Y-64976190D02*
X128431819Y-64976190D01*
X128431819Y-64976190D02*
X128574676Y-65071428D01*
X128574676Y-65071428D02*
X128669914Y-65166666D01*
X128669914Y-65166666D02*
X128717533Y-65261904D01*
X128431819Y-63833333D02*
X128431819Y-64023809D01*
X128431819Y-64023809D02*
X128479438Y-64119047D01*
X128479438Y-64119047D02*
X128527057Y-64166666D01*
X128527057Y-64166666D02*
X128669914Y-64261904D01*
X128669914Y-64261904D02*
X128860390Y-64309523D01*
X128860390Y-64309523D02*
X129241342Y-64309523D01*
X129241342Y-64309523D02*
X129336580Y-64261904D01*
X129336580Y-64261904D02*
X129384200Y-64214285D01*
X129384200Y-64214285D02*
X129431819Y-64119047D01*
X129431819Y-64119047D02*
X129431819Y-63928571D01*
X129431819Y-63928571D02*
X129384200Y-63833333D01*
X129384200Y-63833333D02*
X129336580Y-63785714D01*
X129336580Y-63785714D02*
X129241342Y-63738095D01*
X129241342Y-63738095D02*
X129003247Y-63738095D01*
X129003247Y-63738095D02*
X128908009Y-63785714D01*
X128908009Y-63785714D02*
X128860390Y-63833333D01*
X128860390Y-63833333D02*
X128812771Y-63928571D01*
X128812771Y-63928571D02*
X128812771Y-64119047D01*
X128812771Y-64119047D02*
X128860390Y-64214285D01*
X128860390Y-64214285D02*
X128908009Y-64261904D01*
X128908009Y-64261904D02*
X129003247Y-64309523D01*
X152333333Y-56383080D02*
X152285714Y-56430700D01*
X152285714Y-56430700D02*
X152142857Y-56478319D01*
X152142857Y-56478319D02*
X152047619Y-56478319D01*
X152047619Y-56478319D02*
X151904762Y-56430700D01*
X151904762Y-56430700D02*
X151809524Y-56335461D01*
X151809524Y-56335461D02*
X151761905Y-56240223D01*
X151761905Y-56240223D02*
X151714286Y-56049747D01*
X151714286Y-56049747D02*
X151714286Y-55906890D01*
X151714286Y-55906890D02*
X151761905Y-55716414D01*
X151761905Y-55716414D02*
X151809524Y-55621176D01*
X151809524Y-55621176D02*
X151904762Y-55525938D01*
X151904762Y-55525938D02*
X152047619Y-55478319D01*
X152047619Y-55478319D02*
X152142857Y-55478319D01*
X152142857Y-55478319D02*
X152285714Y-55525938D01*
X152285714Y-55525938D02*
X152333333Y-55573557D01*
X152904762Y-55906890D02*
X152809524Y-55859271D01*
X152809524Y-55859271D02*
X152761905Y-55811652D01*
X152761905Y-55811652D02*
X152714286Y-55716414D01*
X152714286Y-55716414D02*
X152714286Y-55668795D01*
X152714286Y-55668795D02*
X152761905Y-55573557D01*
X152761905Y-55573557D02*
X152809524Y-55525938D01*
X152809524Y-55525938D02*
X152904762Y-55478319D01*
X152904762Y-55478319D02*
X153095238Y-55478319D01*
X153095238Y-55478319D02*
X153190476Y-55525938D01*
X153190476Y-55525938D02*
X153238095Y-55573557D01*
X153238095Y-55573557D02*
X153285714Y-55668795D01*
X153285714Y-55668795D02*
X153285714Y-55716414D01*
X153285714Y-55716414D02*
X153238095Y-55811652D01*
X153238095Y-55811652D02*
X153190476Y-55859271D01*
X153190476Y-55859271D02*
X153095238Y-55906890D01*
X153095238Y-55906890D02*
X152904762Y-55906890D01*
X152904762Y-55906890D02*
X152809524Y-55954509D01*
X152809524Y-55954509D02*
X152761905Y-56002128D01*
X152761905Y-56002128D02*
X152714286Y-56097366D01*
X152714286Y-56097366D02*
X152714286Y-56287842D01*
X152714286Y-56287842D02*
X152761905Y-56383080D01*
X152761905Y-56383080D02*
X152809524Y-56430700D01*
X152809524Y-56430700D02*
X152904762Y-56478319D01*
X152904762Y-56478319D02*
X153095238Y-56478319D01*
X153095238Y-56478319D02*
X153190476Y-56430700D01*
X153190476Y-56430700D02*
X153238095Y-56383080D01*
X153238095Y-56383080D02*
X153285714Y-56287842D01*
X153285714Y-56287842D02*
X153285714Y-56097366D01*
X153285714Y-56097366D02*
X153238095Y-56002128D01*
X153238095Y-56002128D02*
X153190476Y-55954509D01*
X153190476Y-55954509D02*
X153095238Y-55906890D01*
X136179580Y-94166666D02*
X136227200Y-94214285D01*
X136227200Y-94214285D02*
X136274819Y-94357142D01*
X136274819Y-94357142D02*
X136274819Y-94452380D01*
X136274819Y-94452380D02*
X136227200Y-94595237D01*
X136227200Y-94595237D02*
X136131961Y-94690475D01*
X136131961Y-94690475D02*
X136036723Y-94738094D01*
X136036723Y-94738094D02*
X135846247Y-94785713D01*
X135846247Y-94785713D02*
X135703390Y-94785713D01*
X135703390Y-94785713D02*
X135512914Y-94738094D01*
X135512914Y-94738094D02*
X135417676Y-94690475D01*
X135417676Y-94690475D02*
X135322438Y-94595237D01*
X135322438Y-94595237D02*
X135274819Y-94452380D01*
X135274819Y-94452380D02*
X135274819Y-94357142D01*
X135274819Y-94357142D02*
X135322438Y-94214285D01*
X135322438Y-94214285D02*
X135370057Y-94166666D01*
X135370057Y-93785713D02*
X135322438Y-93738094D01*
X135322438Y-93738094D02*
X135274819Y-93642856D01*
X135274819Y-93642856D02*
X135274819Y-93404761D01*
X135274819Y-93404761D02*
X135322438Y-93309523D01*
X135322438Y-93309523D02*
X135370057Y-93261904D01*
X135370057Y-93261904D02*
X135465295Y-93214285D01*
X135465295Y-93214285D02*
X135560533Y-93214285D01*
X135560533Y-93214285D02*
X135703390Y-93261904D01*
X135703390Y-93261904D02*
X136274819Y-93833332D01*
X136274819Y-93833332D02*
X136274819Y-93214285D01*
X157357142Y-90954819D02*
X157023809Y-90478628D01*
X156785714Y-90954819D02*
X156785714Y-89954819D01*
X156785714Y-89954819D02*
X157166666Y-89954819D01*
X157166666Y-89954819D02*
X157261904Y-90002438D01*
X157261904Y-90002438D02*
X157309523Y-90050057D01*
X157309523Y-90050057D02*
X157357142Y-90145295D01*
X157357142Y-90145295D02*
X157357142Y-90288152D01*
X157357142Y-90288152D02*
X157309523Y-90383390D01*
X157309523Y-90383390D02*
X157261904Y-90431009D01*
X157261904Y-90431009D02*
X157166666Y-90478628D01*
X157166666Y-90478628D02*
X156785714Y-90478628D01*
X158309523Y-90954819D02*
X157738095Y-90954819D01*
X158023809Y-90954819D02*
X158023809Y-89954819D01*
X158023809Y-89954819D02*
X157928571Y-90097676D01*
X157928571Y-90097676D02*
X157833333Y-90192914D01*
X157833333Y-90192914D02*
X157738095Y-90240533D01*
X158928571Y-89954819D02*
X159023809Y-89954819D01*
X159023809Y-89954819D02*
X159119047Y-90002438D01*
X159119047Y-90002438D02*
X159166666Y-90050057D01*
X159166666Y-90050057D02*
X159214285Y-90145295D01*
X159214285Y-90145295D02*
X159261904Y-90335771D01*
X159261904Y-90335771D02*
X159261904Y-90573866D01*
X159261904Y-90573866D02*
X159214285Y-90764342D01*
X159214285Y-90764342D02*
X159166666Y-90859580D01*
X159166666Y-90859580D02*
X159119047Y-90907200D01*
X159119047Y-90907200D02*
X159023809Y-90954819D01*
X159023809Y-90954819D02*
X158928571Y-90954819D01*
X158928571Y-90954819D02*
X158833333Y-90907200D01*
X158833333Y-90907200D02*
X158785714Y-90859580D01*
X158785714Y-90859580D02*
X158738095Y-90764342D01*
X158738095Y-90764342D02*
X158690476Y-90573866D01*
X158690476Y-90573866D02*
X158690476Y-90335771D01*
X158690476Y-90335771D02*
X158738095Y-90145295D01*
X158738095Y-90145295D02*
X158785714Y-90050057D01*
X158785714Y-90050057D02*
X158833333Y-90002438D01*
X158833333Y-90002438D02*
X158928571Y-89954819D01*
X169833333Y-63179830D02*
X169785714Y-63227450D01*
X169785714Y-63227450D02*
X169642857Y-63275069D01*
X169642857Y-63275069D02*
X169547619Y-63275069D01*
X169547619Y-63275069D02*
X169404762Y-63227450D01*
X169404762Y-63227450D02*
X169309524Y-63132211D01*
X169309524Y-63132211D02*
X169261905Y-63036973D01*
X169261905Y-63036973D02*
X169214286Y-62846497D01*
X169214286Y-62846497D02*
X169214286Y-62703640D01*
X169214286Y-62703640D02*
X169261905Y-62513164D01*
X169261905Y-62513164D02*
X169309524Y-62417926D01*
X169309524Y-62417926D02*
X169404762Y-62322688D01*
X169404762Y-62322688D02*
X169547619Y-62275069D01*
X169547619Y-62275069D02*
X169642857Y-62275069D01*
X169642857Y-62275069D02*
X169785714Y-62322688D01*
X169785714Y-62322688D02*
X169833333Y-62370307D01*
X170309524Y-63275069D02*
X170500000Y-63275069D01*
X170500000Y-63275069D02*
X170595238Y-63227450D01*
X170595238Y-63227450D02*
X170642857Y-63179830D01*
X170642857Y-63179830D02*
X170738095Y-63036973D01*
X170738095Y-63036973D02*
X170785714Y-62846497D01*
X170785714Y-62846497D02*
X170785714Y-62465545D01*
X170785714Y-62465545D02*
X170738095Y-62370307D01*
X170738095Y-62370307D02*
X170690476Y-62322688D01*
X170690476Y-62322688D02*
X170595238Y-62275069D01*
X170595238Y-62275069D02*
X170404762Y-62275069D01*
X170404762Y-62275069D02*
X170309524Y-62322688D01*
X170309524Y-62322688D02*
X170261905Y-62370307D01*
X170261905Y-62370307D02*
X170214286Y-62465545D01*
X170214286Y-62465545D02*
X170214286Y-62703640D01*
X170214286Y-62703640D02*
X170261905Y-62798878D01*
X170261905Y-62798878D02*
X170309524Y-62846497D01*
X170309524Y-62846497D02*
X170404762Y-62894116D01*
X170404762Y-62894116D02*
X170595238Y-62894116D01*
X170595238Y-62894116D02*
X170690476Y-62846497D01*
X170690476Y-62846497D02*
X170738095Y-62798878D01*
X170738095Y-62798878D02*
X170785714Y-62703640D01*
X149333333Y-97524819D02*
X149000000Y-97048628D01*
X148761905Y-97524819D02*
X148761905Y-96524819D01*
X148761905Y-96524819D02*
X149142857Y-96524819D01*
X149142857Y-96524819D02*
X149238095Y-96572438D01*
X149238095Y-96572438D02*
X149285714Y-96620057D01*
X149285714Y-96620057D02*
X149333333Y-96715295D01*
X149333333Y-96715295D02*
X149333333Y-96858152D01*
X149333333Y-96858152D02*
X149285714Y-96953390D01*
X149285714Y-96953390D02*
X149238095Y-97001009D01*
X149238095Y-97001009D02*
X149142857Y-97048628D01*
X149142857Y-97048628D02*
X148761905Y-97048628D01*
X150190476Y-96858152D02*
X150190476Y-97524819D01*
X149952381Y-96477200D02*
X149714286Y-97191485D01*
X149714286Y-97191485D02*
X150333333Y-97191485D01*
X140238095Y-91454819D02*
X140238095Y-92264342D01*
X140238095Y-92264342D02*
X140285714Y-92359580D01*
X140285714Y-92359580D02*
X140333333Y-92407200D01*
X140333333Y-92407200D02*
X140428571Y-92454819D01*
X140428571Y-92454819D02*
X140619047Y-92454819D01*
X140619047Y-92454819D02*
X140714285Y-92407200D01*
X140714285Y-92407200D02*
X140761904Y-92359580D01*
X140761904Y-92359580D02*
X140809523Y-92264342D01*
X140809523Y-92264342D02*
X140809523Y-91454819D01*
X141238095Y-91550057D02*
X141285714Y-91502438D01*
X141285714Y-91502438D02*
X141380952Y-91454819D01*
X141380952Y-91454819D02*
X141619047Y-91454819D01*
X141619047Y-91454819D02*
X141714285Y-91502438D01*
X141714285Y-91502438D02*
X141761904Y-91550057D01*
X141761904Y-91550057D02*
X141809523Y-91645295D01*
X141809523Y-91645295D02*
X141809523Y-91740533D01*
X141809523Y-91740533D02*
X141761904Y-91883390D01*
X141761904Y-91883390D02*
X141190476Y-92454819D01*
X141190476Y-92454819D02*
X141809523Y-92454819D01*
X134877819Y-66142857D02*
X134401628Y-66476190D01*
X134877819Y-66714285D02*
X133877819Y-66714285D01*
X133877819Y-66714285D02*
X133877819Y-66333333D01*
X133877819Y-66333333D02*
X133925438Y-66238095D01*
X133925438Y-66238095D02*
X133973057Y-66190476D01*
X133973057Y-66190476D02*
X134068295Y-66142857D01*
X134068295Y-66142857D02*
X134211152Y-66142857D01*
X134211152Y-66142857D02*
X134306390Y-66190476D01*
X134306390Y-66190476D02*
X134354009Y-66238095D01*
X134354009Y-66238095D02*
X134401628Y-66333333D01*
X134401628Y-66333333D02*
X134401628Y-66714285D01*
X134877819Y-65190476D02*
X134877819Y-65761904D01*
X134877819Y-65476190D02*
X133877819Y-65476190D01*
X133877819Y-65476190D02*
X134020676Y-65571428D01*
X134020676Y-65571428D02*
X134115914Y-65666666D01*
X134115914Y-65666666D02*
X134163533Y-65761904D01*
X133877819Y-64285714D02*
X133877819Y-64761904D01*
X133877819Y-64761904D02*
X134354009Y-64809523D01*
X134354009Y-64809523D02*
X134306390Y-64761904D01*
X134306390Y-64761904D02*
X134258771Y-64666666D01*
X134258771Y-64666666D02*
X134258771Y-64428571D01*
X134258771Y-64428571D02*
X134306390Y-64333333D01*
X134306390Y-64333333D02*
X134354009Y-64285714D01*
X134354009Y-64285714D02*
X134449247Y-64238095D01*
X134449247Y-64238095D02*
X134687342Y-64238095D01*
X134687342Y-64238095D02*
X134782580Y-64285714D01*
X134782580Y-64285714D02*
X134830200Y-64333333D01*
X134830200Y-64333333D02*
X134877819Y-64428571D01*
X134877819Y-64428571D02*
X134877819Y-64666666D01*
X134877819Y-64666666D02*
X134830200Y-64761904D01*
X134830200Y-64761904D02*
X134782580Y-64809523D01*
X135377819Y-79642857D02*
X134901628Y-79976190D01*
X135377819Y-80214285D02*
X134377819Y-80214285D01*
X134377819Y-80214285D02*
X134377819Y-79833333D01*
X134377819Y-79833333D02*
X134425438Y-79738095D01*
X134425438Y-79738095D02*
X134473057Y-79690476D01*
X134473057Y-79690476D02*
X134568295Y-79642857D01*
X134568295Y-79642857D02*
X134711152Y-79642857D01*
X134711152Y-79642857D02*
X134806390Y-79690476D01*
X134806390Y-79690476D02*
X134854009Y-79738095D01*
X134854009Y-79738095D02*
X134901628Y-79833333D01*
X134901628Y-79833333D02*
X134901628Y-80214285D01*
X135377819Y-78690476D02*
X135377819Y-79261904D01*
X135377819Y-78976190D02*
X134377819Y-78976190D01*
X134377819Y-78976190D02*
X134520676Y-79071428D01*
X134520676Y-79071428D02*
X134615914Y-79166666D01*
X134615914Y-79166666D02*
X134663533Y-79261904D01*
X134377819Y-78357142D02*
X134377819Y-77738095D01*
X134377819Y-77738095D02*
X134758771Y-78071428D01*
X134758771Y-78071428D02*
X134758771Y-77928571D01*
X134758771Y-77928571D02*
X134806390Y-77833333D01*
X134806390Y-77833333D02*
X134854009Y-77785714D01*
X134854009Y-77785714D02*
X134949247Y-77738095D01*
X134949247Y-77738095D02*
X135187342Y-77738095D01*
X135187342Y-77738095D02*
X135282580Y-77785714D01*
X135282580Y-77785714D02*
X135330200Y-77833333D01*
X135330200Y-77833333D02*
X135377819Y-77928571D01*
X135377819Y-77928571D02*
X135377819Y-78214285D01*
X135377819Y-78214285D02*
X135330200Y-78309523D01*
X135330200Y-78309523D02*
X135282580Y-78357142D01*
X130833333Y-97024819D02*
X130500000Y-96548628D01*
X130261905Y-97024819D02*
X130261905Y-96024819D01*
X130261905Y-96024819D02*
X130642857Y-96024819D01*
X130642857Y-96024819D02*
X130738095Y-96072438D01*
X130738095Y-96072438D02*
X130785714Y-96120057D01*
X130785714Y-96120057D02*
X130833333Y-96215295D01*
X130833333Y-96215295D02*
X130833333Y-96358152D01*
X130833333Y-96358152D02*
X130785714Y-96453390D01*
X130785714Y-96453390D02*
X130738095Y-96501009D01*
X130738095Y-96501009D02*
X130642857Y-96548628D01*
X130642857Y-96548628D02*
X130261905Y-96548628D01*
X131690476Y-96024819D02*
X131500000Y-96024819D01*
X131500000Y-96024819D02*
X131404762Y-96072438D01*
X131404762Y-96072438D02*
X131357143Y-96120057D01*
X131357143Y-96120057D02*
X131261905Y-96262914D01*
X131261905Y-96262914D02*
X131214286Y-96453390D01*
X131214286Y-96453390D02*
X131214286Y-96834342D01*
X131214286Y-96834342D02*
X131261905Y-96929580D01*
X131261905Y-96929580D02*
X131309524Y-96977200D01*
X131309524Y-96977200D02*
X131404762Y-97024819D01*
X131404762Y-97024819D02*
X131595238Y-97024819D01*
X131595238Y-97024819D02*
X131690476Y-96977200D01*
X131690476Y-96977200D02*
X131738095Y-96929580D01*
X131738095Y-96929580D02*
X131785714Y-96834342D01*
X131785714Y-96834342D02*
X131785714Y-96596247D01*
X131785714Y-96596247D02*
X131738095Y-96501009D01*
X131738095Y-96501009D02*
X131690476Y-96453390D01*
X131690476Y-96453390D02*
X131595238Y-96405771D01*
X131595238Y-96405771D02*
X131404762Y-96405771D01*
X131404762Y-96405771D02*
X131309524Y-96453390D01*
X131309524Y-96453390D02*
X131261905Y-96501009D01*
X131261905Y-96501009D02*
X131214286Y-96596247D01*
X155734819Y-77238094D02*
X154734819Y-77238094D01*
X154734819Y-77238094D02*
X154734819Y-76999999D01*
X154734819Y-76999999D02*
X154782438Y-76857142D01*
X154782438Y-76857142D02*
X154877676Y-76761904D01*
X154877676Y-76761904D02*
X154972914Y-76714285D01*
X154972914Y-76714285D02*
X155163390Y-76666666D01*
X155163390Y-76666666D02*
X155306247Y-76666666D01*
X155306247Y-76666666D02*
X155496723Y-76714285D01*
X155496723Y-76714285D02*
X155591961Y-76761904D01*
X155591961Y-76761904D02*
X155687200Y-76857142D01*
X155687200Y-76857142D02*
X155734819Y-76999999D01*
X155734819Y-76999999D02*
X155734819Y-77238094D01*
X155734819Y-75714285D02*
X155734819Y-76285713D01*
X155734819Y-75999999D02*
X154734819Y-75999999D01*
X154734819Y-75999999D02*
X154877676Y-76095237D01*
X154877676Y-76095237D02*
X154972914Y-76190475D01*
X154972914Y-76190475D02*
X155020533Y-76285713D01*
X156854819Y-84381904D02*
X155854819Y-84381904D01*
X156854819Y-83810476D02*
X156283390Y-84239047D01*
X155854819Y-83810476D02*
X156426247Y-84381904D01*
X140859580Y-84142857D02*
X140907200Y-84190476D01*
X140907200Y-84190476D02*
X140954819Y-84333333D01*
X140954819Y-84333333D02*
X140954819Y-84428571D01*
X140954819Y-84428571D02*
X140907200Y-84571428D01*
X140907200Y-84571428D02*
X140811961Y-84666666D01*
X140811961Y-84666666D02*
X140716723Y-84714285D01*
X140716723Y-84714285D02*
X140526247Y-84761904D01*
X140526247Y-84761904D02*
X140383390Y-84761904D01*
X140383390Y-84761904D02*
X140192914Y-84714285D01*
X140192914Y-84714285D02*
X140097676Y-84666666D01*
X140097676Y-84666666D02*
X140002438Y-84571428D01*
X140002438Y-84571428D02*
X139954819Y-84428571D01*
X139954819Y-84428571D02*
X139954819Y-84333333D01*
X139954819Y-84333333D02*
X140002438Y-84190476D01*
X140002438Y-84190476D02*
X140050057Y-84142857D01*
X140954819Y-83190476D02*
X140954819Y-83761904D01*
X140954819Y-83476190D02*
X139954819Y-83476190D01*
X139954819Y-83476190D02*
X140097676Y-83571428D01*
X140097676Y-83571428D02*
X140192914Y-83666666D01*
X140192914Y-83666666D02*
X140240533Y-83761904D01*
X139954819Y-82285714D02*
X139954819Y-82761904D01*
X139954819Y-82761904D02*
X140431009Y-82809523D01*
X140431009Y-82809523D02*
X140383390Y-82761904D01*
X140383390Y-82761904D02*
X140335771Y-82666666D01*
X140335771Y-82666666D02*
X140335771Y-82428571D01*
X140335771Y-82428571D02*
X140383390Y-82333333D01*
X140383390Y-82333333D02*
X140431009Y-82285714D01*
X140431009Y-82285714D02*
X140526247Y-82238095D01*
X140526247Y-82238095D02*
X140764342Y-82238095D01*
X140764342Y-82238095D02*
X140859580Y-82285714D01*
X140859580Y-82285714D02*
X140907200Y-82333333D01*
X140907200Y-82333333D02*
X140954819Y-82428571D01*
X140954819Y-82428571D02*
X140954819Y-82666666D01*
X140954819Y-82666666D02*
X140907200Y-82761904D01*
X140907200Y-82761904D02*
X140859580Y-82809523D01*
D11*
%TO.C,SW1*%
X167150000Y-99850000D02*
X167150000Y-87150000D01*
X167150000Y-87150000D02*
X173850000Y-87150000D01*
X173850000Y-87150000D02*
X173850000Y-99850000D01*
X167150000Y-99850000D02*
X173850000Y-99850000D01*
X168700000Y-89950000D02*
X168700000Y-90950000D01*
X169200000Y-89950000D02*
X168700000Y-89950000D01*
X172300000Y-89950000D02*
X169200000Y-89950000D01*
X172300000Y-97050000D02*
X172300000Y-89950000D01*
X168700000Y-97050000D02*
X172300000Y-97050000D01*
X168700000Y-91050000D02*
X168700000Y-97050000D01*
X168700000Y-90760000D02*
X168700000Y-91183000D01*
X172300000Y-94813500D02*
X172300000Y-94757000D01*
X168700000Y-94813500D02*
X172300000Y-94813500D01*
X172300000Y-95293500D02*
X172300000Y-95303000D01*
X168700000Y-95293500D02*
X172300000Y-95293500D01*
X172300000Y-96732500D02*
X172300000Y-96742000D01*
X168700000Y-96732500D02*
X172300000Y-96732500D01*
X172300000Y-96253000D02*
X172300000Y-96262500D01*
X168700000Y-96253000D02*
X172300000Y-96253000D01*
X172300000Y-95773000D02*
X172300000Y-95782500D01*
X168700000Y-95773000D02*
X172300000Y-95773000D01*
%TO.C,R17*%
X178250000Y-97750000D02*
X175750000Y-97750000D01*
X178250000Y-91250000D02*
X178250000Y-97750000D01*
X175750000Y-97750000D02*
X175750000Y-91250000D01*
X178250000Y-91250000D02*
X175750000Y-91250000D01*
D12*
%TO.C,Q7*%
X178226000Y-76474000D02*
X176774000Y-76474000D01*
X176774000Y-76474000D02*
X176774000Y-77505500D01*
X178226000Y-79526000D02*
X176774000Y-79526000D01*
X176774000Y-79526000D02*
X176774000Y-78494500D01*
X178226000Y-77544500D02*
X178226000Y-78455500D01*
%TO.C,C7*%
X150536500Y-65751000D02*
X150536500Y-64249000D01*
X150689000Y-64096500D02*
X152099000Y-64096500D01*
X152099000Y-65903500D02*
X150689000Y-65903500D01*
X152901000Y-65903500D02*
X154311000Y-65903500D01*
X154311000Y-64096500D02*
X152901000Y-64096500D01*
X154463500Y-65751000D02*
X154463500Y-64249000D01*
X150536500Y-64249000D02*
G75*
G02*
X150689000Y-64096500I152499J1D01*
G01*
X150689000Y-65903500D02*
G75*
G02*
X150536500Y-65751000I-1J152499D01*
G01*
X154311000Y-64096500D02*
G75*
G02*
X154463500Y-64249000I0J-152500D01*
G01*
X154463500Y-65751000D02*
G75*
G02*
X154311000Y-65903500I-152500J0D01*
G01*
D13*
%TO.C,R3*%
X157590000Y-95227064D02*
X157590000Y-93772936D01*
X159410000Y-95227064D02*
X159410000Y-93772936D01*
%TO.C,U7*%
X150500000Y-73940000D02*
X148550000Y-73940000D01*
X150500000Y-73940000D02*
X152450000Y-73940000D01*
X150500000Y-79060000D02*
X148550000Y-79060000D01*
X150500000Y-79060000D02*
X152450000Y-79060000D01*
X147800000Y-74035000D02*
X147560000Y-73705000D01*
X148040000Y-73705000D01*
X147800000Y-74035000D01*
G36*
X147800000Y-74035000D02*
G01*
X147560000Y-73705000D01*
X148040000Y-73705000D01*
X147800000Y-74035000D01*
G37*
D12*
%TO.C,C14*%
X142407500Y-85589000D02*
X142407500Y-87074000D01*
X142407500Y-90411000D02*
X142407500Y-88926000D01*
X144440000Y-85436500D02*
X142560000Y-85436500D01*
X144440000Y-90563500D02*
X142560000Y-90563500D01*
X144592500Y-87074000D02*
X144592500Y-85589000D01*
X144592500Y-88926000D02*
X144592500Y-90411000D01*
X142407500Y-85589000D02*
G75*
G02*
X142560000Y-85436500I152500J0D01*
G01*
X142560000Y-90563500D02*
G75*
G02*
X142407500Y-90411000I-1J152499D01*
G01*
X144440000Y-85436500D02*
G75*
G02*
X144592500Y-85589000I0J-152500D01*
G01*
X144592500Y-90411000D02*
G75*
G02*
X144440000Y-90563500I-152499J-1D01*
G01*
%TO.C,Q4*%
X131274000Y-77474000D02*
X131274000Y-78505500D01*
X131274000Y-80526000D02*
X131274000Y-79494500D01*
X132726000Y-77474000D02*
X131274000Y-77474000D01*
X132726000Y-78544500D02*
X132726000Y-79455500D01*
X132726000Y-80526000D02*
X131274000Y-80526000D01*
%TO.C,Q6*%
X130274000Y-61974000D02*
X130274000Y-63005500D01*
X130274000Y-65026000D02*
X130274000Y-63994500D01*
X131726000Y-61974000D02*
X130274000Y-61974000D01*
X131726000Y-63044500D02*
X131726000Y-63955500D01*
X131726000Y-65026000D02*
X130274000Y-65026000D01*
D13*
%TO.C,U1*%
X142000000Y-96390000D02*
X144000000Y-96390000D01*
X142000000Y-98610000D02*
X144000000Y-98610000D01*
X141440000Y-96490000D02*
X141160000Y-96490000D01*
X141440000Y-96210000D01*
X141440000Y-96490000D01*
G36*
X141440000Y-96490000D02*
G01*
X141160000Y-96490000D01*
X141440000Y-96210000D01*
X141440000Y-96490000D01*
G37*
%TO.C,U4*%
X149000000Y-87890000D02*
X151000000Y-87890000D01*
X151000000Y-90110000D02*
X149000000Y-90110000D01*
X148600000Y-88160000D02*
X148320000Y-88160000D01*
X148600000Y-87880000D01*
X148600000Y-88160000D01*
G36*
X148600000Y-88160000D02*
G01*
X148320000Y-88160000D01*
X148600000Y-87880000D01*
X148600000Y-88160000D01*
G37*
D12*
%TO.C,Q5*%
X130123500Y-68464000D02*
X130123500Y-69505500D01*
X130123500Y-71536000D02*
X130123500Y-70494500D01*
X131876000Y-68464000D02*
X130123500Y-68464000D01*
X131876000Y-69544500D02*
X131876000Y-70455500D01*
X131876000Y-71536000D02*
X130123500Y-71536000D01*
D13*
%TO.C,R2*%
X154590000Y-95227064D02*
X154590000Y-93772936D01*
X156410000Y-95227064D02*
X156410000Y-93772936D01*
%TO.C,J3*%
X155440000Y-97805000D02*
X155440000Y-98105507D01*
X155440000Y-98894493D02*
X155440000Y-99195000D01*
X156315000Y-97805000D02*
X155440000Y-97805000D01*
X156315000Y-97805000D02*
X156315000Y-97891724D01*
X156315000Y-99108276D02*
X156315000Y-99195000D01*
X156315000Y-99195000D02*
X155440000Y-99195000D01*
X157000000Y-97805000D02*
X157685000Y-97805000D01*
X157685000Y-97805000D02*
X157685000Y-98500000D01*
D11*
%TO.C,C10*%
X169222000Y-57476000D02*
X170238000Y-57476000D01*
X169730000Y-56968000D02*
X169730000Y-57984000D01*
X174149500Y-59000000D02*
G75*
G02*
X167850500Y-59000000I-3149500J0D01*
G01*
X167850500Y-59000000D02*
G75*
G02*
X174149500Y-59000000I3149500J0D01*
G01*
D14*
G36*
X173159000Y-56714000D02*
G01*
X173159000Y-56714000D01*
G75*
G02*
X173159000Y-61286000I-2063500J-2286000D01*
G01*
X173159000Y-56714000D01*
G37*
D11*
%TO.C,C13*%
X144819000Y-78893500D02*
X145606500Y-78893500D01*
X145200000Y-79300000D02*
X145200000Y-78462000D01*
X145999000Y-79532000D02*
G75*
G02*
X145999000Y-79498500I-2000001J16750D01*
G01*
D14*
G36*
X145200000Y-81100000D02*
G01*
X145200000Y-81100000D01*
G75*
G02*
X142800000Y-81100000I-1200000J1338501D01*
G01*
X145200000Y-81100000D01*
G37*
D12*
%TO.C,C6*%
X145407500Y-85589000D02*
X145407500Y-87074000D01*
X145407500Y-90411000D02*
X145407500Y-88926000D01*
X147440000Y-85436500D02*
X145560000Y-85436500D01*
X147440000Y-90563500D02*
X145560000Y-90563500D01*
X147592500Y-87074000D02*
X147592500Y-85589000D01*
X147592500Y-88926000D02*
X147592500Y-90411000D01*
X145407500Y-85589000D02*
G75*
G02*
X145560000Y-85436500I152500J0D01*
G01*
X145560000Y-90563500D02*
G75*
G02*
X145407500Y-90411000I-1J152499D01*
G01*
X147440000Y-85436500D02*
G75*
G02*
X147592500Y-85589000I0J-152500D01*
G01*
X147592500Y-90411000D02*
G75*
G02*
X147440000Y-90563500I-152499J-1D01*
G01*
D13*
%TO.C,R8*%
X126477500Y-93745276D02*
X126477500Y-94254724D01*
X127522500Y-93745276D02*
X127522500Y-94254724D01*
D15*
%TO.C,J1*%
X138900000Y-99575000D02*
G75*
G02*
X138700000Y-99575000I-100000J0D01*
G01*
X138700000Y-99575000D02*
G75*
G02*
X138900000Y-99575000I100000J0D01*
G01*
D16*
X146470000Y-107685000D02*
X146470000Y-106795000D01*
X146470000Y-102725000D02*
X146470000Y-104355000D01*
X137530000Y-107685000D02*
X146470000Y-107685000D01*
X137530000Y-107685000D02*
X137530000Y-106795000D01*
X137530000Y-102725000D02*
X137530000Y-104355000D01*
D13*
%TO.C,Q1*%
X131960000Y-91920000D02*
X131160000Y-91920000D01*
X131960000Y-91920000D02*
X132760000Y-91920000D01*
X132760000Y-91920000D02*
X132760000Y-92850000D01*
X132760000Y-95080000D02*
X131300000Y-95080000D01*
X132760000Y-95080000D02*
X132760000Y-94150000D01*
X130660000Y-91890000D02*
X130420000Y-91560000D01*
X130900000Y-91560000D01*
X130660000Y-91890000D01*
G36*
X130660000Y-91890000D02*
G01*
X130420000Y-91560000D01*
X130900000Y-91560000D01*
X130660000Y-91890000D01*
G37*
D12*
%TO.C,Q2*%
X178226000Y-85976000D02*
X176774000Y-85976000D01*
X178226000Y-83994500D02*
X178226000Y-84905500D01*
X178226000Y-82924000D02*
X176774000Y-82924000D01*
X176774000Y-85976000D02*
X176774000Y-84944500D01*
X176774000Y-82924000D02*
X176774000Y-83955500D01*
%TO.C,L1*%
X146936500Y-80574000D02*
X147089000Y-80421500D01*
X146936500Y-83426000D02*
X146936500Y-80574000D01*
X147089000Y-80421500D02*
X148724000Y-80421500D01*
X147089000Y-83578500D02*
X146936500Y-83426000D01*
X148724000Y-83578500D02*
X147089000Y-83578500D01*
X150276000Y-83578500D02*
X151911000Y-83578500D01*
X151911000Y-80421500D02*
X150276000Y-80421500D01*
X151911000Y-83578500D02*
X152063500Y-83426000D01*
X152063500Y-80574000D02*
X151911000Y-80421500D01*
X152063500Y-83426000D02*
X152063500Y-80574000D01*
D11*
%TO.C,R11*%
X164500000Y-104250000D02*
X160500000Y-104250000D01*
X164500000Y-92750000D02*
X164500000Y-104250000D01*
X162500000Y-104341000D02*
X162500000Y-105103000D01*
X162500000Y-92657000D02*
X162500000Y-91895000D01*
X160500000Y-104250000D02*
X160500000Y-92750000D01*
X160500000Y-92750000D02*
X164500000Y-92750000D01*
D13*
%TO.C,R7*%
X133745276Y-88477500D02*
X134254724Y-88477500D01*
X133745276Y-89522500D02*
X134254724Y-89522500D01*
%TO.C,R1*%
X134977500Y-98254724D02*
X134977500Y-97745276D01*
X136022500Y-98254724D02*
X136022500Y-97745276D01*
%TO.C,J2*%
X136940000Y-53290000D02*
X136940000Y-53605507D01*
X136940000Y-54394493D02*
X136940000Y-54605507D01*
X136940000Y-55394493D02*
X136940000Y-55710000D01*
X151815000Y-53290000D02*
X136940000Y-53290000D01*
X151815000Y-53290000D02*
X151815000Y-53391724D01*
X152500000Y-53290000D02*
X153185000Y-53290000D01*
X153060000Y-55394493D02*
X153060000Y-55710000D01*
X153060000Y-55710000D02*
X136940000Y-55710000D01*
X153185000Y-53290000D02*
X153185000Y-54000000D01*
D16*
%TO.C,U3*%
X149700000Y-92465000D02*
X151300000Y-92465000D01*
X149700000Y-95535000D02*
X151300000Y-95535000D01*
D15*
X148185000Y-93025000D02*
G75*
G02*
X147985000Y-93025000I-100000J0D01*
G01*
X147985000Y-93025000D02*
G75*
G02*
X148185000Y-93025000I100000J0D01*
G01*
D12*
%TO.C,C5*%
X152907500Y-83074000D02*
X152907500Y-81589000D01*
X152907500Y-84926000D02*
X152907500Y-86411000D01*
X153060000Y-81436500D02*
X154940000Y-81436500D01*
X153060000Y-86563500D02*
X154940000Y-86563500D01*
X155092500Y-81589000D02*
X155092500Y-83074000D01*
X155092500Y-86411000D02*
X155092500Y-84926000D01*
X152907500Y-81589000D02*
G75*
G02*
X153060000Y-81436500I152499J1D01*
G01*
X153060000Y-86563500D02*
G75*
G02*
X152907500Y-86411000I0J152500D01*
G01*
X154940000Y-81436500D02*
G75*
G02*
X155092500Y-81589000I1J-152499D01*
G01*
X155092500Y-86411000D02*
G75*
G02*
X154940000Y-86563500I-152500J0D01*
G01*
D13*
%TO.C,C3*%
X144765000Y-94261252D02*
X144765000Y-93738748D01*
X146235000Y-94261252D02*
X146235000Y-93738748D01*
%TO.C,C4*%
X152990000Y-97646267D02*
X152990000Y-97353733D01*
X154010000Y-97646267D02*
X154010000Y-97353733D01*
D12*
%TO.C,Q3*%
X131123500Y-83464000D02*
X131123500Y-84505500D01*
X131123500Y-86536000D02*
X131123500Y-85494500D01*
X132876000Y-83464000D02*
X131123500Y-83464000D01*
X132876000Y-84544500D02*
X132876000Y-85455500D01*
X132876000Y-86536000D02*
X131123500Y-86536000D01*
D11*
%TO.C,C11*%
X147893500Y-67181000D02*
X147893500Y-66393500D01*
X148300000Y-66800000D02*
X147462000Y-66800000D01*
X148532000Y-66001000D02*
G75*
G02*
X148498500Y-66001000I-16750J-2000001D01*
G01*
D14*
G36*
X150100000Y-66800000D02*
G01*
X150100000Y-66800000D01*
G75*
G02*
X150100000Y-69200000I-1338500J-1200000D01*
G01*
X150100000Y-66800000D01*
G37*
D13*
%TO.C,R5*%
X127120000Y-97332379D02*
X127120000Y-97667621D01*
X127880000Y-97332379D02*
X127880000Y-97667621D01*
%TO.C,C1*%
X137884165Y-98140000D02*
X138115835Y-98140000D01*
X137884165Y-98860000D02*
X138115835Y-98860000D01*
D11*
%TO.C,R14*%
X125350000Y-76500000D02*
X128650000Y-76500000D01*
X125350000Y-85500000D02*
X125350000Y-76500000D01*
X127000000Y-76428000D02*
X127000000Y-75666000D01*
X127000000Y-85572000D02*
X127000000Y-86334000D01*
X128650000Y-76500000D02*
X128650000Y-85500000D01*
X128650000Y-85500000D02*
X125350000Y-85500000D01*
D13*
%TO.C,U5*%
X144500000Y-58765000D02*
X142300000Y-58765000D01*
X144500000Y-58765000D02*
X146700000Y-58765000D01*
X144500000Y-64235000D02*
X142300000Y-64235000D01*
X144500000Y-64235000D02*
X146700000Y-64235000D01*
X140640000Y-59225000D02*
X140310000Y-59465000D01*
X140310000Y-58985000D01*
X140640000Y-59225000D01*
G36*
X140640000Y-59225000D02*
G01*
X140310000Y-59465000D01*
X140310000Y-58985000D01*
X140640000Y-59225000D01*
G37*
%TO.C,U6*%
X162500000Y-58265000D02*
X160300000Y-58265000D01*
X162500000Y-58265000D02*
X164700000Y-58265000D01*
X162500000Y-63735000D02*
X160300000Y-63735000D01*
X162500000Y-63735000D02*
X164700000Y-63735000D01*
X158640000Y-58725000D02*
X158310000Y-58965000D01*
X158310000Y-58485000D01*
X158640000Y-58725000D01*
G36*
X158640000Y-58725000D02*
G01*
X158310000Y-58965000D01*
X158310000Y-58485000D01*
X158640000Y-58725000D01*
G37*
D12*
%TO.C,C12*%
X147936500Y-72440000D02*
X147936500Y-70560000D01*
X148089000Y-70407500D02*
X149574000Y-70407500D01*
X149574000Y-72592500D02*
X148089000Y-72592500D01*
X151426000Y-72592500D02*
X152911000Y-72592500D01*
X152911000Y-70407500D02*
X151426000Y-70407500D01*
X153063500Y-72440000D02*
X153063500Y-70560000D01*
X147936500Y-70560000D02*
G75*
G02*
X148089000Y-70407500I152499J1D01*
G01*
X148089000Y-72592500D02*
G75*
G02*
X147936500Y-72440000I-1J152499D01*
G01*
X152911000Y-70407500D02*
G75*
G02*
X153063500Y-70560000I0J-152500D01*
G01*
X153063500Y-72440000D02*
G75*
G02*
X152911000Y-72592500I-152500J0D01*
G01*
D11*
%TO.C,R12*%
X168750000Y-101750000D02*
X175250000Y-101750000D01*
X168750000Y-104250000D02*
X168750000Y-101750000D01*
X175250000Y-104250000D02*
X168750000Y-104250000D01*
X175250000Y-104250000D02*
X175250000Y-101750000D01*
D13*
%TO.C,R9*%
X136832379Y-90620000D02*
X137167621Y-90620000D01*
X136832379Y-91380000D02*
X137167621Y-91380000D01*
D11*
%TO.C,L2*%
X163250000Y-75000000D02*
X173750000Y-75000000D01*
X163250000Y-77519000D02*
X163250000Y-75000000D01*
X163250000Y-85000000D02*
X163250000Y-82481000D01*
X163250000Y-85000000D02*
X173750000Y-85000000D01*
X173750000Y-75000000D02*
X173750000Y-77519000D01*
X173750000Y-82481000D02*
X173750000Y-85000000D01*
%TO.C,R16*%
X124850000Y-60500000D02*
X128150000Y-60500000D01*
X124850000Y-69500000D02*
X124850000Y-60500000D01*
X126500000Y-60428000D02*
X126500000Y-59666000D01*
X126500000Y-69572000D02*
X126500000Y-70334000D01*
X128150000Y-60500000D02*
X128150000Y-69500000D01*
X128150000Y-69500000D02*
X124850000Y-69500000D01*
%TO.C,C8*%
X150722000Y-58476000D02*
X151738000Y-58476000D01*
X151230000Y-57968000D02*
X151230000Y-58984000D01*
X155649500Y-60000000D02*
G75*
G02*
X149350500Y-60000000I-3149500J0D01*
G01*
X149350500Y-60000000D02*
G75*
G02*
X155649500Y-60000000I3149500J0D01*
G01*
D14*
G36*
X154659000Y-57714000D02*
G01*
X154659000Y-57714000D01*
G75*
G02*
X154659000Y-62286000I-2063500J-2286000D01*
G01*
X154659000Y-57714000D01*
G37*
D13*
%TO.C,C2*%
X136765000Y-94261252D02*
X136765000Y-93738748D01*
X138235000Y-94261252D02*
X138235000Y-93738748D01*
D11*
%TO.C,R10*%
X154850000Y-87300000D02*
X161150000Y-87300000D01*
X154850000Y-89700000D02*
X154850000Y-87300000D01*
X161150000Y-87300000D02*
X161150000Y-89700000D01*
X161150000Y-89700000D02*
X154850000Y-89700000D01*
D12*
%TO.C,C9*%
X168036500Y-65251000D02*
X168036500Y-63749000D01*
X168189000Y-63596500D02*
X169599000Y-63596500D01*
X169599000Y-65403500D02*
X168189000Y-65403500D01*
X170401000Y-65403500D02*
X171811000Y-65403500D01*
X171811000Y-63596500D02*
X170401000Y-63596500D01*
X171963500Y-65251000D02*
X171963500Y-63749000D01*
X168036500Y-63749000D02*
G75*
G02*
X168189000Y-63596500I152499J1D01*
G01*
X168189000Y-65403500D02*
G75*
G02*
X168036500Y-65251000I-1J152499D01*
G01*
X171811000Y-63596500D02*
G75*
G02*
X171963500Y-63749000I0J-152500D01*
G01*
X171963500Y-65251000D02*
G75*
G02*
X171811000Y-65403500I-152500J0D01*
G01*
D13*
%TO.C,R4*%
X149245276Y-97977500D02*
X149754724Y-97977500D01*
X149245276Y-99022500D02*
X149754724Y-99022500D01*
%TO.C,U2*%
X140000000Y-92900000D02*
X142000000Y-92900000D01*
X140000000Y-95100000D02*
X142000000Y-95100000D01*
X139660000Y-92910000D02*
X139380000Y-92910000D01*
X139660000Y-92630000D01*
X139660000Y-92910000D01*
G36*
X139660000Y-92910000D02*
G01*
X139380000Y-92910000D01*
X139660000Y-92630000D01*
X139660000Y-92910000D01*
G37*
D11*
%TO.C,R15*%
X135250000Y-68750000D02*
X135250000Y-62250000D01*
X137750000Y-62250000D02*
X135250000Y-62250000D01*
X137750000Y-62250000D02*
X137750000Y-68750000D01*
X137750000Y-68750000D02*
X135250000Y-68750000D01*
%TO.C,R13*%
X135750000Y-82250000D02*
X135750000Y-75750000D01*
X138250000Y-75750000D02*
X135750000Y-75750000D01*
X138250000Y-75750000D02*
X138250000Y-82250000D01*
X138250000Y-82250000D02*
X135750000Y-82250000D01*
D13*
%TO.C,R6*%
X130745276Y-97477500D02*
X131254724Y-97477500D01*
X130745276Y-98522500D02*
X131254724Y-98522500D01*
%TO.C,D1*%
X156280000Y-71630000D02*
X156280000Y-81370000D01*
X156280000Y-79705000D02*
X161720000Y-79705000D01*
X156280000Y-79825000D02*
X161720000Y-79825000D01*
X156280000Y-79945000D02*
X161720000Y-79945000D01*
X156280000Y-81370000D02*
X161720000Y-81370000D01*
X159000000Y-70720000D02*
X159000000Y-71630000D01*
X159000000Y-82280000D02*
X159000000Y-81370000D01*
X161720000Y-71630000D02*
X156280000Y-71630000D01*
X161720000Y-81370000D02*
X161720000Y-71630000D01*
D12*
%TO.C,C15*%
X139407500Y-85589000D02*
X139407500Y-87074000D01*
X139407500Y-90411000D02*
X139407500Y-88926000D01*
X141440000Y-85436500D02*
X139560000Y-85436500D01*
X141440000Y-90563500D02*
X139560000Y-90563500D01*
X141592500Y-87074000D02*
X141592500Y-85589000D01*
X141592500Y-88926000D02*
X141592500Y-90411000D01*
X139407500Y-85589000D02*
G75*
G02*
X139560000Y-85436500I152500J0D01*
G01*
X139560000Y-90563500D02*
G75*
G02*
X139407500Y-90411000I-1J152499D01*
G01*
X141440000Y-85436500D02*
G75*
G02*
X141592500Y-85589000I0J-152500D01*
G01*
X141592500Y-90411000D02*
G75*
G02*
X141440000Y-90563500I-152499J-1D01*
G01*
%TD*%
%LPC*%
D17*
%TO.C,J1*%
X145550000Y-101445000D02*
X144850000Y-101445000D01*
X144850000Y-100205000D01*
X145550000Y-100205000D01*
X145550000Y-101445000D01*
G36*
X145550000Y-101445000D02*
G01*
X144850000Y-101445000D01*
X144850000Y-100205000D01*
X145550000Y-100205000D01*
X145550000Y-101445000D01*
G37*
X144750000Y-101445000D02*
X144050000Y-101445000D01*
X144050000Y-100205000D01*
X144750000Y-100205000D01*
X144750000Y-101445000D01*
G36*
X144750000Y-101445000D02*
G01*
X144050000Y-101445000D01*
X144050000Y-100205000D01*
X144750000Y-100205000D01*
X144750000Y-101445000D01*
G37*
X143950000Y-101445000D02*
X143550000Y-101445000D01*
X143550000Y-100205000D01*
X143950000Y-100205000D01*
X143950000Y-101445000D01*
G36*
X143950000Y-101445000D02*
G01*
X143550000Y-101445000D01*
X143550000Y-100205000D01*
X143950000Y-100205000D01*
X143950000Y-101445000D01*
G37*
X143450000Y-101445000D02*
X143050000Y-101445000D01*
X143050000Y-100205000D01*
X143450000Y-100205000D01*
X143450000Y-101445000D01*
G36*
X143450000Y-101445000D02*
G01*
X143050000Y-101445000D01*
X143050000Y-100205000D01*
X143450000Y-100205000D01*
X143450000Y-101445000D01*
G37*
X142950000Y-101445000D02*
X142550000Y-101445000D01*
X142550000Y-100205000D01*
X142950000Y-100205000D01*
X142950000Y-101445000D01*
G36*
X142950000Y-101445000D02*
G01*
X142550000Y-101445000D01*
X142550000Y-100205000D01*
X142950000Y-100205000D01*
X142950000Y-101445000D01*
G37*
X142450000Y-101445000D02*
X142050000Y-101445000D01*
X142050000Y-100205000D01*
X142450000Y-100205000D01*
X142450000Y-101445000D01*
G36*
X142450000Y-101445000D02*
G01*
X142050000Y-101445000D01*
X142050000Y-100205000D01*
X142450000Y-100205000D01*
X142450000Y-101445000D01*
G37*
X141950000Y-101445000D02*
X141550000Y-101445000D01*
X141550000Y-100205000D01*
X141950000Y-100205000D01*
X141950000Y-101445000D01*
G36*
X141950000Y-101445000D02*
G01*
X141550000Y-101445000D01*
X141550000Y-100205000D01*
X141950000Y-100205000D01*
X141950000Y-101445000D01*
G37*
X141450000Y-101445000D02*
X141050000Y-101445000D01*
X141050000Y-100205000D01*
X141450000Y-100205000D01*
X141450000Y-101445000D01*
G36*
X141450000Y-101445000D02*
G01*
X141050000Y-101445000D01*
X141050000Y-100205000D01*
X141450000Y-100205000D01*
X141450000Y-101445000D01*
G37*
X140950000Y-101445000D02*
X140550000Y-101445000D01*
X140550000Y-100205000D01*
X140950000Y-100205000D01*
X140950000Y-101445000D01*
G36*
X140950000Y-101445000D02*
G01*
X140550000Y-101445000D01*
X140550000Y-100205000D01*
X140950000Y-100205000D01*
X140950000Y-101445000D01*
G37*
X140450000Y-101445000D02*
X140050000Y-101445000D01*
X140050000Y-100205000D01*
X140450000Y-100205000D01*
X140450000Y-101445000D01*
G36*
X140450000Y-101445000D02*
G01*
X140050000Y-101445000D01*
X140050000Y-100205000D01*
X140450000Y-100205000D01*
X140450000Y-101445000D01*
G37*
X139950000Y-101445000D02*
X139250000Y-101445000D01*
X139250000Y-100205000D01*
X139950000Y-100205000D01*
X139950000Y-101445000D01*
G36*
X139950000Y-101445000D02*
G01*
X139250000Y-101445000D01*
X139250000Y-100205000D01*
X139950000Y-100205000D01*
X139950000Y-101445000D01*
G37*
X139150000Y-101445000D02*
X138450000Y-101445000D01*
X138450000Y-100205000D01*
X139150000Y-100205000D01*
X139150000Y-101445000D01*
G36*
X139150000Y-101445000D02*
G01*
X138450000Y-101445000D01*
X138450000Y-100205000D01*
X139150000Y-100205000D01*
X139150000Y-101445000D01*
G37*
%TD*%
D18*
%TO.C,SW1*%
X170500000Y-88700000D03*
X170500000Y-93500000D03*
X170500000Y-98300000D03*
%TD*%
D19*
%TO.C,R17*%
X177000000Y-89250000D03*
X177000000Y-99750000D03*
%TD*%
D20*
%TO.C,Q7*%
X178500000Y-78950000D03*
X178500000Y-77050000D03*
X176500000Y-78000000D03*
%TD*%
D21*
%TO.C,C7*%
X151500000Y-65000000D03*
X153500000Y-65000000D03*
%TD*%
D22*
%TO.C,R3*%
X158500000Y-96050000D03*
X158500000Y-92950000D03*
%TD*%
D23*
%TO.C,U7*%
X148025000Y-74595000D03*
X148025000Y-75865000D03*
X148025000Y-77135000D03*
X148025000Y-78405000D03*
X152975000Y-78405000D03*
X152975000Y-77135000D03*
X152975000Y-75865000D03*
X152975000Y-74595000D03*
%TD*%
D24*
%TO.C,C14*%
X143500000Y-89592500D03*
X143500000Y-86407500D03*
%TD*%
D20*
%TO.C,Q4*%
X133000000Y-79950000D03*
X133000000Y-78050000D03*
X131000000Y-79000000D03*
%TD*%
%TO.C,Q6*%
X132000000Y-64450000D03*
X132000000Y-62550000D03*
X130000000Y-63500000D03*
%TD*%
D25*
%TO.C,U1*%
X141950000Y-96850000D03*
X141950000Y-97500000D03*
X141950000Y-98150000D03*
X144050000Y-98150000D03*
X144050000Y-97500000D03*
X144050000Y-96850000D03*
D26*
X143000000Y-97500000D03*
%TD*%
D27*
%TO.C,U4*%
X149375000Y-88450000D03*
D28*
X149525000Y-89000000D03*
D27*
X149375000Y-89550000D03*
D29*
X150975000Y-89750000D03*
X150975000Y-89250000D03*
X150975000Y-88750000D03*
X150975000Y-88250000D03*
%TD*%
D30*
%TO.C,Q5*%
X132235000Y-70950000D03*
X132235000Y-69050000D03*
X129765000Y-70000000D03*
%TD*%
D22*
%TO.C,R2*%
X155500000Y-96050000D03*
X155500000Y-92950000D03*
%TD*%
D31*
%TO.C,J3*%
X157000000Y-98500000D03*
D32*
X156000000Y-98500000D03*
%TD*%
D33*
%TO.C,C10*%
X169730000Y-59000000D03*
X172270000Y-59000000D03*
%TD*%
D34*
%TO.C,C13*%
X144000000Y-78750000D03*
X144000000Y-80250000D03*
%TD*%
D24*
%TO.C,C6*%
X146500000Y-89592500D03*
X146500000Y-86407500D03*
%TD*%
D35*
%TO.C,R8*%
X127000000Y-93087500D03*
X127000000Y-94912500D03*
%TD*%
D36*
%TO.C,J1*%
X146325000Y-105575000D03*
X137675000Y-105575000D03*
D37*
X146325000Y-101375000D03*
X137675000Y-101375000D03*
D38*
X144890000Y-101895000D03*
X139110000Y-101895000D03*
%TD*%
D39*
%TO.C,Q1*%
X130500000Y-92550000D03*
X130500000Y-94450000D03*
X133500000Y-93500000D03*
%TD*%
D20*
%TO.C,Q2*%
X176500000Y-84450000D03*
X178500000Y-83500000D03*
X178500000Y-85400000D03*
%TD*%
D40*
%TO.C,L1*%
X151017500Y-82000000D03*
X147982500Y-82000000D03*
%TD*%
D41*
%TO.C,R11*%
X162500000Y-106250000D03*
X162500000Y-90750000D03*
%TD*%
D42*
%TO.C,R7*%
X133087500Y-89000000D03*
X134912500Y-89000000D03*
%TD*%
D43*
%TO.C,R1*%
X135500000Y-98912500D03*
X135500000Y-97087500D03*
%TD*%
D31*
%TO.C,J2*%
X152500000Y-54000000D03*
D32*
X152500000Y-55000000D03*
X151500000Y-54000000D03*
X151500000Y-55000000D03*
X150500000Y-54000000D03*
X150500000Y-55000000D03*
X149500000Y-54000000D03*
X149500000Y-55000000D03*
X148500000Y-54000000D03*
X148500000Y-55000000D03*
X147500000Y-54000000D03*
X147500000Y-55000000D03*
X146500000Y-54000000D03*
X146500000Y-55000000D03*
X145500000Y-54000000D03*
X145500000Y-55000000D03*
X144500000Y-54000000D03*
X144500000Y-55000000D03*
X143500000Y-54000000D03*
X143500000Y-55000000D03*
X142500000Y-54000000D03*
X142500000Y-55000000D03*
X141500000Y-54000000D03*
X141500000Y-55000000D03*
X140500000Y-54000000D03*
X140500000Y-55000000D03*
X139500000Y-54000000D03*
X139500000Y-55000000D03*
X138500000Y-54000000D03*
X138500000Y-55000000D03*
X137500000Y-54000000D03*
X137500000Y-55000000D03*
%TD*%
D44*
%TO.C,U3*%
X149245000Y-93025000D03*
X149245000Y-93675000D03*
X149245000Y-94325000D03*
X149245000Y-94975000D03*
X151755000Y-94975000D03*
X151755000Y-94325000D03*
X151755000Y-93675000D03*
X151755000Y-93025000D03*
%TD*%
D24*
%TO.C,C5*%
X154000000Y-82407500D03*
X154000000Y-85592500D03*
%TD*%
D45*
%TO.C,C3*%
X145500000Y-95037500D03*
X145500000Y-92962500D03*
%TD*%
D46*
%TO.C,C4*%
X153500000Y-98362500D03*
X153500000Y-96637500D03*
%TD*%
D30*
%TO.C,Q3*%
X133235000Y-85950000D03*
X133235000Y-84050000D03*
X130765000Y-85000000D03*
%TD*%
D34*
%TO.C,C11*%
X147750000Y-68000000D03*
X149250000Y-68000000D03*
%TD*%
D47*
%TO.C,R5*%
X127500000Y-96902500D03*
X127500000Y-98097500D03*
%TD*%
D48*
%TO.C,C1*%
X137432500Y-98500000D03*
X138567500Y-98500000D03*
%TD*%
D41*
%TO.C,R14*%
X127000000Y-74500000D03*
X127000000Y-87500000D03*
%TD*%
D49*
%TO.C,U5*%
X141637500Y-59225000D03*
X141637500Y-59875000D03*
X141637500Y-60525000D03*
X141637500Y-61175000D03*
X141637500Y-61825000D03*
X141637500Y-62475000D03*
X141637500Y-63125000D03*
X141637500Y-63775000D03*
X147362500Y-63775000D03*
X147362500Y-63125000D03*
X147362500Y-62475000D03*
X147362500Y-61825000D03*
X147362500Y-61175000D03*
X147362500Y-60525000D03*
X147362500Y-59875000D03*
X147362500Y-59225000D03*
%TD*%
%TO.C,U6*%
X159637500Y-58725000D03*
X159637500Y-59375000D03*
X159637500Y-60025000D03*
X159637500Y-60675000D03*
X159637500Y-61325000D03*
X159637500Y-61975000D03*
X159637500Y-62625000D03*
X159637500Y-63275000D03*
X165362500Y-63275000D03*
X165362500Y-62625000D03*
X165362500Y-61975000D03*
X165362500Y-61325000D03*
X165362500Y-60675000D03*
X165362500Y-60025000D03*
X165362500Y-59375000D03*
X165362500Y-58725000D03*
%TD*%
D50*
%TO.C,C12*%
X148907500Y-71500000D03*
X152092500Y-71500000D03*
%TD*%
D19*
%TO.C,R12*%
X166750000Y-103000000D03*
X177250000Y-103000000D03*
%TD*%
D51*
%TO.C,R9*%
X136402500Y-91000000D03*
X137597500Y-91000000D03*
%TD*%
D52*
%TO.C,L2*%
X164000000Y-80000000D03*
X173000000Y-80000000D03*
%TD*%
D41*
%TO.C,R16*%
X126500000Y-58500000D03*
X126500000Y-71500000D03*
%TD*%
D33*
%TO.C,C8*%
X151230000Y-60000000D03*
X153770000Y-60000000D03*
%TD*%
D45*
%TO.C,C2*%
X137500000Y-95037500D03*
X137500000Y-92962500D03*
%TD*%
D41*
%TO.C,R10*%
X152850000Y-88500000D03*
X163150000Y-88500000D03*
%TD*%
D21*
%TO.C,C9*%
X169000000Y-64500000D03*
X171000000Y-64500000D03*
%TD*%
D42*
%TO.C,R4*%
X148587500Y-98500000D03*
X150412500Y-98500000D03*
%TD*%
D53*
%TO.C,U2*%
X140100000Y-93250000D03*
X140100000Y-93750000D03*
X140100000Y-94250000D03*
X140100000Y-94750000D03*
X141900000Y-94750000D03*
X141900000Y-94250000D03*
X141900000Y-93750000D03*
X141900000Y-93250000D03*
D54*
X141000000Y-94000000D03*
%TD*%
D19*
%TO.C,R15*%
X136500000Y-70750000D03*
X136500000Y-60250000D03*
%TD*%
%TO.C,R13*%
X137000000Y-84250000D03*
X137000000Y-73750000D03*
%TD*%
D42*
%TO.C,R6*%
X130087500Y-98000000D03*
X131912500Y-98000000D03*
%TD*%
D55*
%TO.C,D1*%
X159000000Y-84120000D03*
D56*
X159000000Y-68880000D03*
%TD*%
D24*
%TO.C,C15*%
X140500000Y-89592500D03*
X140500000Y-86407500D03*
%TD*%
%LPD*%
M02*
