%TF.GenerationSoftware,KiCad,Pcbnew,8.0.8*%
%TF.CreationDate,2025-03-26T11:51:04+02:00*%
%TF.ProjectId,Main PCB,4d61696e-2050-4434-922e-6b696361645f,rev?*%
%TF.SameCoordinates,Original*%
%TF.FileFunction,Legend,Top*%
%TF.FilePolarity,Positive*%
%FSLAX46Y46*%
G04 Gerber Fmt 4.6, Leading zero omitted, Abs format (unit mm)*
G04 Created by KiCad (PCBNEW 8.0.8) date 2025-03-26 11:51:04*
%MOMM*%
%LPD*%
G01*
G04 APERTURE LIST*
G04 Aperture macros list*
%AMRoundRect*
0 Rectangle with rounded corners*
0 $1 Rounding radius*
0 $2 $3 $4 $5 $6 $7 $8 $9 X,Y pos of 4 corners*
0 Add a 4 corners polygon primitive as box body*
4,1,4,$2,$3,$4,$5,$6,$7,$8,$9,$2,$3,0*
0 Add four circle primitives for the rounded corners*
1,1,$1+$1,$2,$3*
1,1,$1+$1,$4,$5*
1,1,$1+$1,$6,$7*
1,1,$1+$1,$8,$9*
0 Add four rect primitives between the rounded corners*
20,1,$1+$1,$2,$3,$4,$5,0*
20,1,$1+$1,$4,$5,$6,$7,0*
20,1,$1+$1,$6,$7,$8,$9,0*
20,1,$1+$1,$8,$9,$2,$3,0*%
G04 Aperture macros list end*
%ADD10C,0.150000*%
%ADD11C,0.200000*%
%ADD12C,0.127000*%
%ADD13C,0.120000*%
%ADD14C,0.010000*%
%ADD15RoundRect,0.085500X-0.621500X-0.256500X0.621500X-0.256500X0.621500X0.256500X-0.621500X0.256500X0*%
%ADD16R,0.500000X0.300000*%
%ADD17R,1.050000X1.750000*%
%ADD18R,0.650000X0.350000*%
%ADD19R,1.000000X1.600000*%
%ADD20RoundRect,0.160000X-0.197500X-0.160000X0.197500X-0.160000X0.197500X0.160000X-0.197500X0.160000X0*%
%ADD21RoundRect,0.237500X-0.250000X-0.237500X0.250000X-0.237500X0.250000X0.237500X-0.250000X0.237500X0*%
%ADD22RoundRect,0.250000X-0.400000X-0.625000X0.400000X-0.625000X0.400000X0.625000X-0.400000X0.625000X0*%
%ADD23RoundRect,0.200000X-0.750000X-0.200000X0.750000X-0.200000X0.750000X0.200000X-0.750000X0.200000X0*%
%ADD24C,0.650000*%
%ADD25O,1.154000X2.254000*%
%ADD26O,1.154000X1.954000*%
%ADD27RoundRect,0.237500X-0.300000X-0.237500X0.300000X-0.237500X0.300000X0.237500X-0.300000X0.237500X0*%
%ADD28RoundRect,0.250000X-0.337500X-0.475000X0.337500X-0.475000X0.337500X0.475000X-0.337500X0.475000X0*%
%ADD29RoundRect,0.155000X-0.212500X-0.155000X0.212500X-0.155000X0.212500X0.155000X-0.212500X0.155000X0*%
G04 APERTURE END LIST*
D10*
X157908095Y-99844819D02*
X157908095Y-100654342D01*
X157908095Y-100654342D02*
X157955714Y-100749580D01*
X157955714Y-100749580D02*
X158003333Y-100797200D01*
X158003333Y-100797200D02*
X158098571Y-100844819D01*
X158098571Y-100844819D02*
X158289047Y-100844819D01*
X158289047Y-100844819D02*
X158384285Y-100797200D01*
X158384285Y-100797200D02*
X158431904Y-100749580D01*
X158431904Y-100749580D02*
X158479523Y-100654342D01*
X158479523Y-100654342D02*
X158479523Y-99844819D01*
X158860476Y-99844819D02*
X159479523Y-99844819D01*
X159479523Y-99844819D02*
X159146190Y-100225771D01*
X159146190Y-100225771D02*
X159289047Y-100225771D01*
X159289047Y-100225771D02*
X159384285Y-100273390D01*
X159384285Y-100273390D02*
X159431904Y-100321009D01*
X159431904Y-100321009D02*
X159479523Y-100416247D01*
X159479523Y-100416247D02*
X159479523Y-100654342D01*
X159479523Y-100654342D02*
X159431904Y-100749580D01*
X159431904Y-100749580D02*
X159384285Y-100797200D01*
X159384285Y-100797200D02*
X159289047Y-100844819D01*
X159289047Y-100844819D02*
X159003333Y-100844819D01*
X159003333Y-100844819D02*
X158908095Y-100797200D01*
X158908095Y-100797200D02*
X158860476Y-100749580D01*
X158268095Y-89324819D02*
X158268095Y-90134342D01*
X158268095Y-90134342D02*
X158315714Y-90229580D01*
X158315714Y-90229580D02*
X158363333Y-90277200D01*
X158363333Y-90277200D02*
X158458571Y-90324819D01*
X158458571Y-90324819D02*
X158649047Y-90324819D01*
X158649047Y-90324819D02*
X158744285Y-90277200D01*
X158744285Y-90277200D02*
X158791904Y-90229580D01*
X158791904Y-90229580D02*
X158839523Y-90134342D01*
X158839523Y-90134342D02*
X158839523Y-89324819D01*
X159268095Y-89420057D02*
X159315714Y-89372438D01*
X159315714Y-89372438D02*
X159410952Y-89324819D01*
X159410952Y-89324819D02*
X159649047Y-89324819D01*
X159649047Y-89324819D02*
X159744285Y-89372438D01*
X159744285Y-89372438D02*
X159791904Y-89420057D01*
X159791904Y-89420057D02*
X159839523Y-89515295D01*
X159839523Y-89515295D02*
X159839523Y-89610533D01*
X159839523Y-89610533D02*
X159791904Y-89753390D01*
X159791904Y-89753390D02*
X159220476Y-90324819D01*
X159220476Y-90324819D02*
X159839523Y-90324819D01*
X151458095Y-101329819D02*
X151458095Y-102139342D01*
X151458095Y-102139342D02*
X151505714Y-102234580D01*
X151505714Y-102234580D02*
X151553333Y-102282200D01*
X151553333Y-102282200D02*
X151648571Y-102329819D01*
X151648571Y-102329819D02*
X151839047Y-102329819D01*
X151839047Y-102329819D02*
X151934285Y-102282200D01*
X151934285Y-102282200D02*
X151981904Y-102234580D01*
X151981904Y-102234580D02*
X152029523Y-102139342D01*
X152029523Y-102139342D02*
X152029523Y-101329819D01*
X153029523Y-102329819D02*
X152458095Y-102329819D01*
X152743809Y-102329819D02*
X152743809Y-101329819D01*
X152743809Y-101329819D02*
X152648571Y-101472676D01*
X152648571Y-101472676D02*
X152553333Y-101567914D01*
X152553333Y-101567914D02*
X152458095Y-101615533D01*
X158308333Y-88229819D02*
X157975000Y-87753628D01*
X157736905Y-88229819D02*
X157736905Y-87229819D01*
X157736905Y-87229819D02*
X158117857Y-87229819D01*
X158117857Y-87229819D02*
X158213095Y-87277438D01*
X158213095Y-87277438D02*
X158260714Y-87325057D01*
X158260714Y-87325057D02*
X158308333Y-87420295D01*
X158308333Y-87420295D02*
X158308333Y-87563152D01*
X158308333Y-87563152D02*
X158260714Y-87658390D01*
X158260714Y-87658390D02*
X158213095Y-87706009D01*
X158213095Y-87706009D02*
X158117857Y-87753628D01*
X158117857Y-87753628D02*
X157736905Y-87753628D01*
X158784524Y-88229819D02*
X158975000Y-88229819D01*
X158975000Y-88229819D02*
X159070238Y-88182200D01*
X159070238Y-88182200D02*
X159117857Y-88134580D01*
X159117857Y-88134580D02*
X159213095Y-87991723D01*
X159213095Y-87991723D02*
X159260714Y-87801247D01*
X159260714Y-87801247D02*
X159260714Y-87420295D01*
X159260714Y-87420295D02*
X159213095Y-87325057D01*
X159213095Y-87325057D02*
X159165476Y-87277438D01*
X159165476Y-87277438D02*
X159070238Y-87229819D01*
X159070238Y-87229819D02*
X158879762Y-87229819D01*
X158879762Y-87229819D02*
X158784524Y-87277438D01*
X158784524Y-87277438D02*
X158736905Y-87325057D01*
X158736905Y-87325057D02*
X158689286Y-87420295D01*
X158689286Y-87420295D02*
X158689286Y-87658390D01*
X158689286Y-87658390D02*
X158736905Y-87753628D01*
X158736905Y-87753628D02*
X158784524Y-87801247D01*
X158784524Y-87801247D02*
X158879762Y-87848866D01*
X158879762Y-87848866D02*
X159070238Y-87848866D01*
X159070238Y-87848866D02*
X159165476Y-87801247D01*
X159165476Y-87801247D02*
X159213095Y-87753628D01*
X159213095Y-87753628D02*
X159260714Y-87658390D01*
X141528333Y-98789819D02*
X141195000Y-98313628D01*
X140956905Y-98789819D02*
X140956905Y-97789819D01*
X140956905Y-97789819D02*
X141337857Y-97789819D01*
X141337857Y-97789819D02*
X141433095Y-97837438D01*
X141433095Y-97837438D02*
X141480714Y-97885057D01*
X141480714Y-97885057D02*
X141528333Y-97980295D01*
X141528333Y-97980295D02*
X141528333Y-98123152D01*
X141528333Y-98123152D02*
X141480714Y-98218390D01*
X141480714Y-98218390D02*
X141433095Y-98266009D01*
X141433095Y-98266009D02*
X141337857Y-98313628D01*
X141337857Y-98313628D02*
X140956905Y-98313628D01*
X142099762Y-98218390D02*
X142004524Y-98170771D01*
X142004524Y-98170771D02*
X141956905Y-98123152D01*
X141956905Y-98123152D02*
X141909286Y-98027914D01*
X141909286Y-98027914D02*
X141909286Y-97980295D01*
X141909286Y-97980295D02*
X141956905Y-97885057D01*
X141956905Y-97885057D02*
X142004524Y-97837438D01*
X142004524Y-97837438D02*
X142099762Y-97789819D01*
X142099762Y-97789819D02*
X142290238Y-97789819D01*
X142290238Y-97789819D02*
X142385476Y-97837438D01*
X142385476Y-97837438D02*
X142433095Y-97885057D01*
X142433095Y-97885057D02*
X142480714Y-97980295D01*
X142480714Y-97980295D02*
X142480714Y-98027914D01*
X142480714Y-98027914D02*
X142433095Y-98123152D01*
X142433095Y-98123152D02*
X142385476Y-98170771D01*
X142385476Y-98170771D02*
X142290238Y-98218390D01*
X142290238Y-98218390D02*
X142099762Y-98218390D01*
X142099762Y-98218390D02*
X142004524Y-98266009D01*
X142004524Y-98266009D02*
X141956905Y-98313628D01*
X141956905Y-98313628D02*
X141909286Y-98408866D01*
X141909286Y-98408866D02*
X141909286Y-98599342D01*
X141909286Y-98599342D02*
X141956905Y-98694580D01*
X141956905Y-98694580D02*
X142004524Y-98742200D01*
X142004524Y-98742200D02*
X142099762Y-98789819D01*
X142099762Y-98789819D02*
X142290238Y-98789819D01*
X142290238Y-98789819D02*
X142385476Y-98742200D01*
X142385476Y-98742200D02*
X142433095Y-98694580D01*
X142433095Y-98694580D02*
X142480714Y-98599342D01*
X142480714Y-98599342D02*
X142480714Y-98408866D01*
X142480714Y-98408866D02*
X142433095Y-98313628D01*
X142433095Y-98313628D02*
X142385476Y-98266009D01*
X142385476Y-98266009D02*
X142290238Y-98218390D01*
X141528333Y-96279819D02*
X141195000Y-95803628D01*
X140956905Y-96279819D02*
X140956905Y-95279819D01*
X140956905Y-95279819D02*
X141337857Y-95279819D01*
X141337857Y-95279819D02*
X141433095Y-95327438D01*
X141433095Y-95327438D02*
X141480714Y-95375057D01*
X141480714Y-95375057D02*
X141528333Y-95470295D01*
X141528333Y-95470295D02*
X141528333Y-95613152D01*
X141528333Y-95613152D02*
X141480714Y-95708390D01*
X141480714Y-95708390D02*
X141433095Y-95756009D01*
X141433095Y-95756009D02*
X141337857Y-95803628D01*
X141337857Y-95803628D02*
X140956905Y-95803628D01*
X141861667Y-95279819D02*
X142528333Y-95279819D01*
X142528333Y-95279819D02*
X142099762Y-96279819D01*
X141528333Y-93769819D02*
X141195000Y-93293628D01*
X140956905Y-93769819D02*
X140956905Y-92769819D01*
X140956905Y-92769819D02*
X141337857Y-92769819D01*
X141337857Y-92769819D02*
X141433095Y-92817438D01*
X141433095Y-92817438D02*
X141480714Y-92865057D01*
X141480714Y-92865057D02*
X141528333Y-92960295D01*
X141528333Y-92960295D02*
X141528333Y-93103152D01*
X141528333Y-93103152D02*
X141480714Y-93198390D01*
X141480714Y-93198390D02*
X141433095Y-93246009D01*
X141433095Y-93246009D02*
X141337857Y-93293628D01*
X141337857Y-93293628D02*
X140956905Y-93293628D01*
X142385476Y-92769819D02*
X142195000Y-92769819D01*
X142195000Y-92769819D02*
X142099762Y-92817438D01*
X142099762Y-92817438D02*
X142052143Y-92865057D01*
X142052143Y-92865057D02*
X141956905Y-93007914D01*
X141956905Y-93007914D02*
X141909286Y-93198390D01*
X141909286Y-93198390D02*
X141909286Y-93579342D01*
X141909286Y-93579342D02*
X141956905Y-93674580D01*
X141956905Y-93674580D02*
X142004524Y-93722200D01*
X142004524Y-93722200D02*
X142099762Y-93769819D01*
X142099762Y-93769819D02*
X142290238Y-93769819D01*
X142290238Y-93769819D02*
X142385476Y-93722200D01*
X142385476Y-93722200D02*
X142433095Y-93674580D01*
X142433095Y-93674580D02*
X142480714Y-93579342D01*
X142480714Y-93579342D02*
X142480714Y-93341247D01*
X142480714Y-93341247D02*
X142433095Y-93246009D01*
X142433095Y-93246009D02*
X142385476Y-93198390D01*
X142385476Y-93198390D02*
X142290238Y-93150771D01*
X142290238Y-93150771D02*
X142099762Y-93150771D01*
X142099762Y-93150771D02*
X142004524Y-93198390D01*
X142004524Y-93198390D02*
X141956905Y-93246009D01*
X141956905Y-93246009D02*
X141909286Y-93341247D01*
X158308333Y-86239819D02*
X157975000Y-85763628D01*
X157736905Y-86239819D02*
X157736905Y-85239819D01*
X157736905Y-85239819D02*
X158117857Y-85239819D01*
X158117857Y-85239819D02*
X158213095Y-85287438D01*
X158213095Y-85287438D02*
X158260714Y-85335057D01*
X158260714Y-85335057D02*
X158308333Y-85430295D01*
X158308333Y-85430295D02*
X158308333Y-85573152D01*
X158308333Y-85573152D02*
X158260714Y-85668390D01*
X158260714Y-85668390D02*
X158213095Y-85716009D01*
X158213095Y-85716009D02*
X158117857Y-85763628D01*
X158117857Y-85763628D02*
X157736905Y-85763628D01*
X159213095Y-85239819D02*
X158736905Y-85239819D01*
X158736905Y-85239819D02*
X158689286Y-85716009D01*
X158689286Y-85716009D02*
X158736905Y-85668390D01*
X158736905Y-85668390D02*
X158832143Y-85620771D01*
X158832143Y-85620771D02*
X159070238Y-85620771D01*
X159070238Y-85620771D02*
X159165476Y-85668390D01*
X159165476Y-85668390D02*
X159213095Y-85716009D01*
X159213095Y-85716009D02*
X159260714Y-85811247D01*
X159260714Y-85811247D02*
X159260714Y-86049342D01*
X159260714Y-86049342D02*
X159213095Y-86144580D01*
X159213095Y-86144580D02*
X159165476Y-86192200D01*
X159165476Y-86192200D02*
X159070238Y-86239819D01*
X159070238Y-86239819D02*
X158832143Y-86239819D01*
X158832143Y-86239819D02*
X158736905Y-86192200D01*
X158736905Y-86192200D02*
X158689286Y-86144580D01*
X141528333Y-91259819D02*
X141195000Y-90783628D01*
X140956905Y-91259819D02*
X140956905Y-90259819D01*
X140956905Y-90259819D02*
X141337857Y-90259819D01*
X141337857Y-90259819D02*
X141433095Y-90307438D01*
X141433095Y-90307438D02*
X141480714Y-90355057D01*
X141480714Y-90355057D02*
X141528333Y-90450295D01*
X141528333Y-90450295D02*
X141528333Y-90593152D01*
X141528333Y-90593152D02*
X141480714Y-90688390D01*
X141480714Y-90688390D02*
X141433095Y-90736009D01*
X141433095Y-90736009D02*
X141337857Y-90783628D01*
X141337857Y-90783628D02*
X140956905Y-90783628D01*
X142385476Y-90593152D02*
X142385476Y-91259819D01*
X142147381Y-90212200D02*
X141909286Y-90926485D01*
X141909286Y-90926485D02*
X142528333Y-90926485D01*
X146678333Y-99599819D02*
X146345000Y-99123628D01*
X146106905Y-99599819D02*
X146106905Y-98599819D01*
X146106905Y-98599819D02*
X146487857Y-98599819D01*
X146487857Y-98599819D02*
X146583095Y-98647438D01*
X146583095Y-98647438D02*
X146630714Y-98695057D01*
X146630714Y-98695057D02*
X146678333Y-98790295D01*
X146678333Y-98790295D02*
X146678333Y-98933152D01*
X146678333Y-98933152D02*
X146630714Y-99028390D01*
X146630714Y-99028390D02*
X146583095Y-99076009D01*
X146583095Y-99076009D02*
X146487857Y-99123628D01*
X146487857Y-99123628D02*
X146106905Y-99123628D01*
X147011667Y-98599819D02*
X147630714Y-98599819D01*
X147630714Y-98599819D02*
X147297381Y-98980771D01*
X147297381Y-98980771D02*
X147440238Y-98980771D01*
X147440238Y-98980771D02*
X147535476Y-99028390D01*
X147535476Y-99028390D02*
X147583095Y-99076009D01*
X147583095Y-99076009D02*
X147630714Y-99171247D01*
X147630714Y-99171247D02*
X147630714Y-99409342D01*
X147630714Y-99409342D02*
X147583095Y-99504580D01*
X147583095Y-99504580D02*
X147535476Y-99552200D01*
X147535476Y-99552200D02*
X147440238Y-99599819D01*
X147440238Y-99599819D02*
X147154524Y-99599819D01*
X147154524Y-99599819D02*
X147059286Y-99552200D01*
X147059286Y-99552200D02*
X147011667Y-99504580D01*
X146678333Y-96309819D02*
X146345000Y-95833628D01*
X146106905Y-96309819D02*
X146106905Y-95309819D01*
X146106905Y-95309819D02*
X146487857Y-95309819D01*
X146487857Y-95309819D02*
X146583095Y-95357438D01*
X146583095Y-95357438D02*
X146630714Y-95405057D01*
X146630714Y-95405057D02*
X146678333Y-95500295D01*
X146678333Y-95500295D02*
X146678333Y-95643152D01*
X146678333Y-95643152D02*
X146630714Y-95738390D01*
X146630714Y-95738390D02*
X146583095Y-95786009D01*
X146583095Y-95786009D02*
X146487857Y-95833628D01*
X146487857Y-95833628D02*
X146106905Y-95833628D01*
X147059286Y-95405057D02*
X147106905Y-95357438D01*
X147106905Y-95357438D02*
X147202143Y-95309819D01*
X147202143Y-95309819D02*
X147440238Y-95309819D01*
X147440238Y-95309819D02*
X147535476Y-95357438D01*
X147535476Y-95357438D02*
X147583095Y-95405057D01*
X147583095Y-95405057D02*
X147630714Y-95500295D01*
X147630714Y-95500295D02*
X147630714Y-95595533D01*
X147630714Y-95595533D02*
X147583095Y-95738390D01*
X147583095Y-95738390D02*
X147011667Y-96309819D01*
X147011667Y-96309819D02*
X147630714Y-96309819D01*
X141528333Y-88749819D02*
X141195000Y-88273628D01*
X140956905Y-88749819D02*
X140956905Y-87749819D01*
X140956905Y-87749819D02*
X141337857Y-87749819D01*
X141337857Y-87749819D02*
X141433095Y-87797438D01*
X141433095Y-87797438D02*
X141480714Y-87845057D01*
X141480714Y-87845057D02*
X141528333Y-87940295D01*
X141528333Y-87940295D02*
X141528333Y-88083152D01*
X141528333Y-88083152D02*
X141480714Y-88178390D01*
X141480714Y-88178390D02*
X141433095Y-88226009D01*
X141433095Y-88226009D02*
X141337857Y-88273628D01*
X141337857Y-88273628D02*
X140956905Y-88273628D01*
X142480714Y-88749819D02*
X141909286Y-88749819D01*
X142195000Y-88749819D02*
X142195000Y-87749819D01*
X142195000Y-87749819D02*
X142099762Y-87892676D01*
X142099762Y-87892676D02*
X142004524Y-87987914D01*
X142004524Y-87987914D02*
X141909286Y-88035533D01*
X157759761Y-96330057D02*
X157664523Y-96282438D01*
X157664523Y-96282438D02*
X157569285Y-96187200D01*
X157569285Y-96187200D02*
X157426428Y-96044342D01*
X157426428Y-96044342D02*
X157331190Y-95996723D01*
X157331190Y-95996723D02*
X157235952Y-95996723D01*
X157283571Y-96234819D02*
X157188333Y-96187200D01*
X157188333Y-96187200D02*
X157093095Y-96091961D01*
X157093095Y-96091961D02*
X157045476Y-95901485D01*
X157045476Y-95901485D02*
X157045476Y-95568152D01*
X157045476Y-95568152D02*
X157093095Y-95377676D01*
X157093095Y-95377676D02*
X157188333Y-95282438D01*
X157188333Y-95282438D02*
X157283571Y-95234819D01*
X157283571Y-95234819D02*
X157474047Y-95234819D01*
X157474047Y-95234819D02*
X157569285Y-95282438D01*
X157569285Y-95282438D02*
X157664523Y-95377676D01*
X157664523Y-95377676D02*
X157712142Y-95568152D01*
X157712142Y-95568152D02*
X157712142Y-95901485D01*
X157712142Y-95901485D02*
X157664523Y-96091961D01*
X157664523Y-96091961D02*
X157569285Y-96187200D01*
X157569285Y-96187200D02*
X157474047Y-96234819D01*
X157474047Y-96234819D02*
X157283571Y-96234819D01*
X158664523Y-96234819D02*
X158093095Y-96234819D01*
X158378809Y-96234819D02*
X158378809Y-95234819D01*
X158378809Y-95234819D02*
X158283571Y-95377676D01*
X158283571Y-95377676D02*
X158188333Y-95472914D01*
X158188333Y-95472914D02*
X158093095Y-95520533D01*
X147261666Y-83709819D02*
X147261666Y-84424104D01*
X147261666Y-84424104D02*
X147214047Y-84566961D01*
X147214047Y-84566961D02*
X147118809Y-84662200D01*
X147118809Y-84662200D02*
X146975952Y-84709819D01*
X146975952Y-84709819D02*
X146880714Y-84709819D01*
X148261666Y-84709819D02*
X147690238Y-84709819D01*
X147975952Y-84709819D02*
X147975952Y-83709819D01*
X147975952Y-83709819D02*
X147880714Y-83852676D01*
X147880714Y-83852676D02*
X147785476Y-83947914D01*
X147785476Y-83947914D02*
X147690238Y-83995533D01*
X141528333Y-86144580D02*
X141480714Y-86192200D01*
X141480714Y-86192200D02*
X141337857Y-86239819D01*
X141337857Y-86239819D02*
X141242619Y-86239819D01*
X141242619Y-86239819D02*
X141099762Y-86192200D01*
X141099762Y-86192200D02*
X141004524Y-86096961D01*
X141004524Y-86096961D02*
X140956905Y-86001723D01*
X140956905Y-86001723D02*
X140909286Y-85811247D01*
X140909286Y-85811247D02*
X140909286Y-85668390D01*
X140909286Y-85668390D02*
X140956905Y-85477914D01*
X140956905Y-85477914D02*
X141004524Y-85382676D01*
X141004524Y-85382676D02*
X141099762Y-85287438D01*
X141099762Y-85287438D02*
X141242619Y-85239819D01*
X141242619Y-85239819D02*
X141337857Y-85239819D01*
X141337857Y-85239819D02*
X141480714Y-85287438D01*
X141480714Y-85287438D02*
X141528333Y-85335057D01*
X142385476Y-85573152D02*
X142385476Y-86239819D01*
X142147381Y-85192200D02*
X141909286Y-85906485D01*
X141909286Y-85906485D02*
X142528333Y-85906485D01*
X152058333Y-99224580D02*
X152010714Y-99272200D01*
X152010714Y-99272200D02*
X151867857Y-99319819D01*
X151867857Y-99319819D02*
X151772619Y-99319819D01*
X151772619Y-99319819D02*
X151629762Y-99272200D01*
X151629762Y-99272200D02*
X151534524Y-99176961D01*
X151534524Y-99176961D02*
X151486905Y-99081723D01*
X151486905Y-99081723D02*
X151439286Y-98891247D01*
X151439286Y-98891247D02*
X151439286Y-98748390D01*
X151439286Y-98748390D02*
X151486905Y-98557914D01*
X151486905Y-98557914D02*
X151534524Y-98462676D01*
X151534524Y-98462676D02*
X151629762Y-98367438D01*
X151629762Y-98367438D02*
X151772619Y-98319819D01*
X151772619Y-98319819D02*
X151867857Y-98319819D01*
X151867857Y-98319819D02*
X152010714Y-98367438D01*
X152010714Y-98367438D02*
X152058333Y-98415057D01*
X152391667Y-98319819D02*
X153010714Y-98319819D01*
X153010714Y-98319819D02*
X152677381Y-98700771D01*
X152677381Y-98700771D02*
X152820238Y-98700771D01*
X152820238Y-98700771D02*
X152915476Y-98748390D01*
X152915476Y-98748390D02*
X152963095Y-98796009D01*
X152963095Y-98796009D02*
X153010714Y-98891247D01*
X153010714Y-98891247D02*
X153010714Y-99129342D01*
X153010714Y-99129342D02*
X152963095Y-99224580D01*
X152963095Y-99224580D02*
X152915476Y-99272200D01*
X152915476Y-99272200D02*
X152820238Y-99319819D01*
X152820238Y-99319819D02*
X152534524Y-99319819D01*
X152534524Y-99319819D02*
X152439286Y-99272200D01*
X152439286Y-99272200D02*
X152391667Y-99224580D01*
X152058333Y-96214580D02*
X152010714Y-96262200D01*
X152010714Y-96262200D02*
X151867857Y-96309819D01*
X151867857Y-96309819D02*
X151772619Y-96309819D01*
X151772619Y-96309819D02*
X151629762Y-96262200D01*
X151629762Y-96262200D02*
X151534524Y-96166961D01*
X151534524Y-96166961D02*
X151486905Y-96071723D01*
X151486905Y-96071723D02*
X151439286Y-95881247D01*
X151439286Y-95881247D02*
X151439286Y-95738390D01*
X151439286Y-95738390D02*
X151486905Y-95547914D01*
X151486905Y-95547914D02*
X151534524Y-95452676D01*
X151534524Y-95452676D02*
X151629762Y-95357438D01*
X151629762Y-95357438D02*
X151772619Y-95309819D01*
X151772619Y-95309819D02*
X151867857Y-95309819D01*
X151867857Y-95309819D02*
X152010714Y-95357438D01*
X152010714Y-95357438D02*
X152058333Y-95405057D01*
X152439286Y-95405057D02*
X152486905Y-95357438D01*
X152486905Y-95357438D02*
X152582143Y-95309819D01*
X152582143Y-95309819D02*
X152820238Y-95309819D01*
X152820238Y-95309819D02*
X152915476Y-95357438D01*
X152915476Y-95357438D02*
X152963095Y-95405057D01*
X152963095Y-95405057D02*
X153010714Y-95500295D01*
X153010714Y-95500295D02*
X153010714Y-95595533D01*
X153010714Y-95595533D02*
X152963095Y-95738390D01*
X152963095Y-95738390D02*
X152391667Y-96309819D01*
X152391667Y-96309819D02*
X153010714Y-96309819D01*
X158288333Y-93824580D02*
X158240714Y-93872200D01*
X158240714Y-93872200D02*
X158097857Y-93919819D01*
X158097857Y-93919819D02*
X158002619Y-93919819D01*
X158002619Y-93919819D02*
X157859762Y-93872200D01*
X157859762Y-93872200D02*
X157764524Y-93776961D01*
X157764524Y-93776961D02*
X157716905Y-93681723D01*
X157716905Y-93681723D02*
X157669286Y-93491247D01*
X157669286Y-93491247D02*
X157669286Y-93348390D01*
X157669286Y-93348390D02*
X157716905Y-93157914D01*
X157716905Y-93157914D02*
X157764524Y-93062676D01*
X157764524Y-93062676D02*
X157859762Y-92967438D01*
X157859762Y-92967438D02*
X158002619Y-92919819D01*
X158002619Y-92919819D02*
X158097857Y-92919819D01*
X158097857Y-92919819D02*
X158240714Y-92967438D01*
X158240714Y-92967438D02*
X158288333Y-93015057D01*
X159240714Y-93919819D02*
X158669286Y-93919819D01*
X158955000Y-93919819D02*
X158955000Y-92919819D01*
X158955000Y-92919819D02*
X158859762Y-93062676D01*
X158859762Y-93062676D02*
X158764524Y-93157914D01*
X158764524Y-93157914D02*
X158669286Y-93205533D01*
D11*
%TO.C,U3*%
X155430000Y-102050000D02*
G75*
G02*
X155230000Y-102050000I-100000J0D01*
G01*
X155230000Y-102050000D02*
G75*
G02*
X155430000Y-102050000I100000J0D01*
G01*
D12*
X156945000Y-101490000D02*
X158545000Y-101490000D01*
X156945000Y-104560000D02*
X158545000Y-104560000D01*
D13*
%TO.C,U2*%
X158030000Y-90770000D02*
X160030000Y-90770000D01*
X158030000Y-92970000D02*
X160030000Y-92970000D01*
X157690000Y-90780000D02*
X157410000Y-90780000D01*
X157690000Y-90500000D01*
X157690000Y-90780000D01*
G36*
X157690000Y-90780000D02*
G01*
X157410000Y-90780000D01*
X157690000Y-90500000D01*
X157690000Y-90780000D01*
G37*
%TO.C,U1*%
X151220000Y-102790000D02*
X153220000Y-102790000D01*
X151220000Y-105010000D02*
X153220000Y-105010000D01*
X150660000Y-102890000D02*
X150380000Y-102890000D01*
X150660000Y-102610000D01*
X150660000Y-102890000D01*
G36*
X150660000Y-102890000D02*
G01*
X150380000Y-102890000D01*
X150660000Y-102610000D01*
X150660000Y-102890000D01*
G37*
%TO.C,R9*%
X158307379Y-88565000D02*
X158642621Y-88565000D01*
X158307379Y-89325000D02*
X158642621Y-89325000D01*
%TO.C,R8*%
X141440276Y-99242500D02*
X141949724Y-99242500D01*
X141440276Y-100287500D02*
X141949724Y-100287500D01*
%TO.C,R7*%
X141440276Y-96732500D02*
X141949724Y-96732500D01*
X141440276Y-97777500D02*
X141949724Y-97777500D01*
%TO.C,R6*%
X141440276Y-94222500D02*
X141949724Y-94222500D01*
X141440276Y-95267500D02*
X141949724Y-95267500D01*
%TO.C,R5*%
X158307379Y-86575000D02*
X158642621Y-86575000D01*
X158307379Y-87335000D02*
X158642621Y-87335000D01*
%TO.C,R4*%
X141440276Y-91712500D02*
X141949724Y-91712500D01*
X141440276Y-92757500D02*
X141949724Y-92757500D01*
%TO.C,R3*%
X146117936Y-100055000D02*
X147572064Y-100055000D01*
X146117936Y-101875000D02*
X147572064Y-101875000D01*
%TO.C,R2*%
X146117936Y-96765000D02*
X147572064Y-96765000D01*
X146117936Y-98585000D02*
X147572064Y-98585000D01*
%TO.C,R1*%
X141440276Y-89202500D02*
X141949724Y-89202500D01*
X141440276Y-90247500D02*
X141949724Y-90247500D01*
%TO.C,Q1*%
X157815000Y-96950000D02*
X157015000Y-96950000D01*
X157815000Y-96950000D02*
X158615000Y-96950000D01*
X158615000Y-96950000D02*
X158615000Y-97880000D01*
X158615000Y-100110000D02*
X157155000Y-100110000D01*
X158615000Y-100110000D02*
X158615000Y-99180000D01*
X156515000Y-96920000D02*
X156275000Y-96590000D01*
X156755000Y-96590000D01*
X156515000Y-96920000D01*
G36*
X156515000Y-96920000D02*
G01*
X156275000Y-96590000D01*
X156755000Y-96590000D01*
X156515000Y-96920000D01*
G37*
D12*
%TO.C,J1*%
X153915000Y-89810000D02*
X153915000Y-91440000D01*
X153915000Y-94770000D02*
X153915000Y-93880000D01*
X144975000Y-89810000D02*
X144975000Y-91440000D01*
X144975000Y-94770000D02*
X144975000Y-93880000D01*
X144975000Y-94770000D02*
X153915000Y-94770000D01*
D11*
X146345000Y-86660000D02*
G75*
G02*
X146145000Y-86660000I-100000J0D01*
G01*
X146145000Y-86660000D02*
G75*
G02*
X146345000Y-86660000I100000J0D01*
G01*
D13*
%TO.C,C4*%
X141548733Y-86705000D02*
X141841267Y-86705000D01*
X141548733Y-87725000D02*
X141841267Y-87725000D01*
%TO.C,C3*%
X151963748Y-99810000D02*
X152486252Y-99810000D01*
X151963748Y-101280000D02*
X152486252Y-101280000D01*
%TO.C,C2*%
X151963748Y-96800000D02*
X152486252Y-96800000D01*
X151963748Y-98270000D02*
X152486252Y-98270000D01*
%TO.C,C1*%
X158339165Y-94265000D02*
X158570835Y-94265000D01*
X158339165Y-94985000D02*
X158570835Y-94985000D01*
%TD*%
%LPC*%
D14*
%TO.C,J1*%
X147895000Y-88530000D02*
X147495000Y-88530000D01*
X147495000Y-87290000D01*
X147895000Y-87290000D01*
X147895000Y-88530000D01*
G36*
X147895000Y-88530000D02*
G01*
X147495000Y-88530000D01*
X147495000Y-87290000D01*
X147895000Y-87290000D01*
X147895000Y-88530000D01*
G37*
X148395000Y-88530000D02*
X147995000Y-88530000D01*
X147995000Y-87290000D01*
X148395000Y-87290000D01*
X148395000Y-88530000D01*
G36*
X148395000Y-88530000D02*
G01*
X147995000Y-88530000D01*
X147995000Y-87290000D01*
X148395000Y-87290000D01*
X148395000Y-88530000D01*
G37*
X148895000Y-88530000D02*
X148495000Y-88530000D01*
X148495000Y-87290000D01*
X148895000Y-87290000D01*
X148895000Y-88530000D01*
G36*
X148895000Y-88530000D02*
G01*
X148495000Y-88530000D01*
X148495000Y-87290000D01*
X148895000Y-87290000D01*
X148895000Y-88530000D01*
G37*
X151395000Y-88530000D02*
X150995000Y-88530000D01*
X150995000Y-87290000D01*
X151395000Y-87290000D01*
X151395000Y-88530000D01*
G36*
X151395000Y-88530000D02*
G01*
X150995000Y-88530000D01*
X150995000Y-87290000D01*
X151395000Y-87290000D01*
X151395000Y-88530000D01*
G37*
X150895000Y-88530000D02*
X150495000Y-88530000D01*
X150495000Y-87290000D01*
X150895000Y-87290000D01*
X150895000Y-88530000D01*
G36*
X150895000Y-88530000D02*
G01*
X150495000Y-88530000D01*
X150495000Y-87290000D01*
X150895000Y-87290000D01*
X150895000Y-88530000D01*
G37*
X150395000Y-88530000D02*
X149995000Y-88530000D01*
X149995000Y-87290000D01*
X150395000Y-87290000D01*
X150395000Y-88530000D01*
G36*
X150395000Y-88530000D02*
G01*
X149995000Y-88530000D01*
X149995000Y-87290000D01*
X150395000Y-87290000D01*
X150395000Y-88530000D01*
G37*
X149395000Y-88530000D02*
X148995000Y-88530000D01*
X148995000Y-87290000D01*
X149395000Y-87290000D01*
X149395000Y-88530000D01*
G36*
X149395000Y-88530000D02*
G01*
X148995000Y-88530000D01*
X148995000Y-87290000D01*
X149395000Y-87290000D01*
X149395000Y-88530000D01*
G37*
X149895000Y-88530000D02*
X149495000Y-88530000D01*
X149495000Y-87290000D01*
X149895000Y-87290000D01*
X149895000Y-88530000D01*
G36*
X149895000Y-88530000D02*
G01*
X149495000Y-88530000D01*
X149495000Y-87290000D01*
X149895000Y-87290000D01*
X149895000Y-88530000D01*
G37*
X146595000Y-88530000D02*
X145895000Y-88530000D01*
X145895000Y-87290000D01*
X146595000Y-87290000D01*
X146595000Y-88530000D01*
G36*
X146595000Y-88530000D02*
G01*
X145895000Y-88530000D01*
X145895000Y-87290000D01*
X146595000Y-87290000D01*
X146595000Y-88530000D01*
G37*
X152995000Y-88530000D02*
X152295000Y-88530000D01*
X152295000Y-87290000D01*
X152995000Y-87290000D01*
X152995000Y-88530000D01*
G36*
X152995000Y-88530000D02*
G01*
X152295000Y-88530000D01*
X152295000Y-87290000D01*
X152995000Y-87290000D01*
X152995000Y-88530000D01*
G37*
X147395000Y-88530000D02*
X146695000Y-88530000D01*
X146695000Y-87290000D01*
X147395000Y-87290000D01*
X147395000Y-88530000D01*
G36*
X147395000Y-88530000D02*
G01*
X146695000Y-88530000D01*
X146695000Y-87290000D01*
X147395000Y-87290000D01*
X147395000Y-88530000D01*
G37*
X152195000Y-88530000D02*
X151495000Y-88530000D01*
X151495000Y-87290000D01*
X152195000Y-87290000D01*
X152195000Y-88530000D01*
G36*
X152195000Y-88530000D02*
G01*
X151495000Y-88530000D01*
X151495000Y-87290000D01*
X152195000Y-87290000D01*
X152195000Y-88530000D01*
G37*
%TD*%
D15*
%TO.C,U3*%
X156490000Y-102050000D03*
X156490000Y-102700000D03*
X156490000Y-103350000D03*
X156490000Y-104000000D03*
X159000000Y-104000000D03*
X159000000Y-103350000D03*
X159000000Y-102700000D03*
X159000000Y-102050000D03*
%TD*%
D16*
%TO.C,U2*%
X158130000Y-91120000D03*
X158130000Y-91620000D03*
X158130000Y-92120000D03*
X158130000Y-92620000D03*
X159930000Y-92620000D03*
X159930000Y-92120000D03*
X159930000Y-91620000D03*
X159930000Y-91120000D03*
D17*
X159030000Y-91870000D03*
%TD*%
D18*
%TO.C,U1*%
X151170000Y-103250000D03*
X151170000Y-103900000D03*
X151170000Y-104550000D03*
X153270000Y-104550000D03*
X153270000Y-103900000D03*
X153270000Y-103250000D03*
D19*
X152220000Y-103900000D03*
%TD*%
D20*
%TO.C,R9*%
X157877500Y-88945000D03*
X159072500Y-88945000D03*
%TD*%
D21*
%TO.C,R8*%
X140782500Y-99765000D03*
X142607500Y-99765000D03*
%TD*%
%TO.C,R7*%
X140782500Y-97255000D03*
X142607500Y-97255000D03*
%TD*%
%TO.C,R6*%
X140782500Y-94745000D03*
X142607500Y-94745000D03*
%TD*%
D20*
%TO.C,R5*%
X157877500Y-86955000D03*
X159072500Y-86955000D03*
%TD*%
D21*
%TO.C,R4*%
X140782500Y-92235000D03*
X142607500Y-92235000D03*
%TD*%
D22*
%TO.C,R3*%
X145295000Y-100965000D03*
X148395000Y-100965000D03*
%TD*%
%TO.C,R2*%
X145295000Y-97675000D03*
X148395000Y-97675000D03*
%TD*%
D21*
%TO.C,R1*%
X140782500Y-89725000D03*
X142607500Y-89725000D03*
%TD*%
D23*
%TO.C,Q1*%
X156355000Y-97580000D03*
X156355000Y-99480000D03*
X159355000Y-98530000D03*
%TD*%
D24*
%TO.C,J1*%
X146555000Y-88980000D03*
X152335000Y-88980000D03*
D25*
X145120000Y-88460000D03*
X153770000Y-88460000D03*
D26*
X145120000Y-92660000D03*
X153770000Y-92660000D03*
%TD*%
D27*
%TO.C,C4*%
X140832500Y-87215000D03*
X142557500Y-87215000D03*
%TD*%
D28*
%TO.C,C3*%
X151187500Y-100545000D03*
X153262500Y-100545000D03*
%TD*%
%TO.C,C2*%
X151187500Y-97535000D03*
X153262500Y-97535000D03*
%TD*%
D29*
%TO.C,C1*%
X157887500Y-94625000D03*
X159022500Y-94625000D03*
%TD*%
%LPD*%
M02*
