M48
; DRILL file {KiCad 8.0.8} date 2025-03-27T18:49:55+0200
; FORMAT={-:-/ absolute / inch / decimal}
; #@! TF.CreationDate,2025-03-27T18:49:55+02:00
; #@! TF.GenerationSoftware,Kicad,Pcbnew,8.0.8
; #@! TF.FileFunction,Plated,1,2,PTH
FMAT,2
INCH
; #@! TA.AperFunction,Plated,PTH,ViaDrill
T1C0.0118
; #@! TA.AperFunction,Plated,PTH,ComponentDrill
T2C0.0197
; #@! TA.AperFunction,Plated,PTH,ComponentDrill
T3C0.0256
; #@! TA.AperFunction,Plated,PTH,ComponentDrill
T4C0.0315
; #@! TA.AperFunction,Plated,PTH,ComponentDrill
T5C0.0360
; #@! TA.AperFunction,Plated,PTH,ComponentDrill
T6C0.0394
; #@! TA.AperFunction,Plated,PTH,ComponentDrill
T7C0.0433
; #@! TA.AperFunction,Plated,PTH,ComponentDrill
T8C0.0630
%
G90
G05
T1
X5.2276Y-2.6861
X5.2787Y-3.2798
X5.3115Y-2.163
X5.3352Y-2.0711
X5.3398Y-3.709
X5.479Y-3.6909
X5.5066Y-2.3389
X5.518Y-3.8111
X5.5402Y-4.0117
X5.5575Y-2.0553
X5.6254Y-2.3597
X5.6883Y-2.3573
X5.6921Y-2.2306
X5.7151Y-2.3332
X5.7592Y-2.3109
X5.8289Y-3.1191
X5.8289Y-3.5552
X5.8538Y-3.7685
X5.8706Y-2.4852
X5.9022Y-2.5108
X5.9146Y-3.7603
X5.9238Y-3.7228
X6.0187Y-3.7136
X6.1668Y-2.4656
X6.1727Y-2.2556
X6.2051Y-2.4144
X6.4609Y-2.3376
T2
X5.4134Y-2.126
X5.4134Y-2.1654
X5.4528Y-2.126
X5.4528Y-2.1654
X5.4921Y-2.126
X5.4921Y-2.1654
X5.5315Y-2.126
X5.5315Y-2.1654
X5.5709Y-2.126
X5.5709Y-2.1654
X5.6102Y-2.126
X5.6102Y-2.1654
X5.6496Y-2.126
X5.6496Y-2.1654
X5.689Y-2.126
X5.689Y-2.1654
X5.7283Y-2.126
X5.7283Y-2.1654
X5.7677Y-2.126
X5.7677Y-2.1654
X5.8071Y-2.126
X5.8071Y-2.1654
X5.8465Y-2.126
X5.8465Y-2.1654
X5.8858Y-2.126
X5.8858Y-2.1654
X5.9252Y-2.126
X5.9252Y-2.1654
X5.9646Y-2.126
X5.9646Y-2.1654
X6.0039Y-2.126
X6.0039Y-2.1654
X6.1417Y-3.878
X6.1811Y-3.878
T4
X5.6693Y-3.1004
X5.6693Y-3.1594
X5.8169Y-2.6772
X5.876Y-2.6772
T5
X4.9803Y-2.3031
X4.9803Y-2.815
X5.0Y-2.9331
X5.0Y-3.4449
T6
X5.374Y-2.372
X5.374Y-2.7854
X5.3937Y-2.9035
X5.3937Y-3.3169
X5.9539Y-2.3622
X6.0177Y-3.4843
X6.0539Y-2.3622
X6.3976Y-3.5728
X6.3976Y-4.1831
X6.4232Y-3.4843
X6.565Y-4.0551
X6.6823Y-2.3228
X6.7823Y-2.3228
X6.9685Y-3.5138
X6.9685Y-3.9272
X6.9783Y-4.0551
T8
X6.2598Y-2.7118
X6.2598Y-3.3118
T3
G00X5.4203Y-3.969
M15
G01X5.4203Y-4.0133
M16
G05
G00X5.4203Y-4.1402
M15
G01X5.4203Y-4.1727
M16
G05
G00X5.7608Y-3.969
M15
G01X5.7608Y-4.0133
M16
G05
G00X5.7608Y-4.1402
M15
G01X5.7608Y-4.1727
M16
G05
T7
G00X6.689Y-3.4921
M15
G01X6.7362Y-3.4921
M16
G05
G00X6.689Y-3.6811
M15
G01X6.7362Y-3.6811
M16
G05
G00X6.689Y-3.8701
M15
G01X6.7362Y-3.8701
M16
G05
M30
