%TF.GenerationSoftware,KiCad,Pcbnew,8.0.8*%
%TF.CreationDate,2025-03-26T11:51:04+02:00*%
%TF.ProjectId,Main PCB,4d61696e-2050-4434-922e-6b696361645f,rev?*%
%TF.SameCoordinates,Original*%
%TF.FileFunction,Copper,L1,Top*%
%TF.FilePolarity,Positive*%
%FSLAX46Y46*%
G04 Gerber Fmt 4.6, Leading zero omitted, Abs format (unit mm)*
G04 Created by KiCad (PCBNEW 8.0.8) date 2025-03-26 11:51:04*
%MOMM*%
%LPD*%
G01*
G04 APERTURE LIST*
G04 Aperture macros list*
%AMRoundRect*
0 Rectangle with rounded corners*
0 $1 Rounding radius*
0 $2 $3 $4 $5 $6 $7 $8 $9 X,Y pos of 4 corners*
0 Add a 4 corners polygon primitive as box body*
4,1,4,$2,$3,$4,$5,$6,$7,$8,$9,$2,$3,0*
0 Add four circle primitives for the rounded corners*
1,1,$1+$1,$2,$3*
1,1,$1+$1,$4,$5*
1,1,$1+$1,$6,$7*
1,1,$1+$1,$8,$9*
0 Add four rect primitives between the rounded corners*
20,1,$1+$1,$2,$3,$4,$5,0*
20,1,$1+$1,$4,$5,$6,$7,0*
20,1,$1+$1,$6,$7,$8,$9,0*
20,1,$1+$1,$8,$9,$2,$3,0*%
G04 Aperture macros list end*
%TA.AperFunction,SMDPad,CuDef*%
%ADD10RoundRect,0.060000X-0.545000X-0.180000X0.545000X-0.180000X0.545000X0.180000X-0.545000X0.180000X0*%
%TD*%
%TA.AperFunction,SMDPad,CuDef*%
%ADD11R,0.500000X0.300000*%
%TD*%
%TA.AperFunction,SMDPad,CuDef*%
%ADD12R,1.050000X1.750000*%
%TD*%
%TA.AperFunction,SMDPad,CuDef*%
%ADD13R,0.650000X0.350000*%
%TD*%
%TA.AperFunction,SMDPad,CuDef*%
%ADD14R,1.000000X1.600000*%
%TD*%
%TA.AperFunction,SMDPad,CuDef*%
%ADD15RoundRect,0.160000X-0.197500X-0.160000X0.197500X-0.160000X0.197500X0.160000X-0.197500X0.160000X0*%
%TD*%
%TA.AperFunction,SMDPad,CuDef*%
%ADD16RoundRect,0.237500X-0.250000X-0.237500X0.250000X-0.237500X0.250000X0.237500X-0.250000X0.237500X0*%
%TD*%
%TA.AperFunction,SMDPad,CuDef*%
%ADD17RoundRect,0.250000X-0.400000X-0.625000X0.400000X-0.625000X0.400000X0.625000X-0.400000X0.625000X0*%
%TD*%
%TA.AperFunction,SMDPad,CuDef*%
%ADD18RoundRect,0.200000X-0.750000X-0.200000X0.750000X-0.200000X0.750000X0.200000X-0.750000X0.200000X0*%
%TD*%
%TA.AperFunction,SMDPad,CuDef*%
%ADD19R,0.600000X1.140000*%
%TD*%
%TA.AperFunction,SMDPad,CuDef*%
%ADD20R,0.300000X1.140000*%
%TD*%
%TA.AperFunction,ComponentPad*%
%ADD21O,0.950000X2.050000*%
%TD*%
%TA.AperFunction,ComponentPad*%
%ADD22O,0.950000X1.750000*%
%TD*%
%TA.AperFunction,SMDPad,CuDef*%
%ADD23RoundRect,0.237500X-0.300000X-0.237500X0.300000X-0.237500X0.300000X0.237500X-0.300000X0.237500X0*%
%TD*%
%TA.AperFunction,SMDPad,CuDef*%
%ADD24RoundRect,0.250000X-0.337500X-0.475000X0.337500X-0.475000X0.337500X0.475000X-0.337500X0.475000X0*%
%TD*%
%TA.AperFunction,SMDPad,CuDef*%
%ADD25RoundRect,0.155000X-0.212500X-0.155000X0.212500X-0.155000X0.212500X0.155000X-0.212500X0.155000X0*%
%TD*%
G04 APERTURE END LIST*
D10*
%TO.P,U3,1,A1*%
%TO.N,Net-(U3-A1)*%
X156490000Y-102050000D03*
%TO.P,U3,2,A0*%
%TO.N,GND*%
X156490000Y-102700000D03*
%TO.P,U3,3,SDA*%
%TO.N,/Pin 17*%
X156490000Y-103350000D03*
%TO.P,U3,4,SCL*%
%TO.N,/Pin 16*%
X156490000Y-104000000D03*
%TO.P,U3,5,VS*%
%TO.N,/5V*%
X159000000Y-104000000D03*
%TO.P,U3,6,GND*%
%TO.N,GND*%
X159000000Y-103350000D03*
%TO.P,U3,7,IN-*%
%TO.N,/BAT_OUT*%
X159000000Y-102700000D03*
%TO.P,U3,8,IN+*%
%TO.N,/BAT_IN*%
X159000000Y-102050000D03*
%TD*%
D11*
%TO.P,U2,1,TS*%
%TO.N,GND*%
X158130000Y-91120000D03*
%TO.P,U2,2,PROG*%
%TO.N,Net-(Q1-D)*%
X158130000Y-91620000D03*
%TO.P,U2,3,GND*%
%TO.N,GND*%
X158130000Y-92120000D03*
%TO.P,U2,4,VCC*%
%TO.N,/VBUS*%
X158130000Y-92620000D03*
%TO.P,U2,5,BAT*%
%TO.N,/BAT_IN*%
X159930000Y-92620000D03*
%TO.P,U2,6,STBY*%
%TO.N,GND*%
X159930000Y-92120000D03*
%TO.P,U2,7,CHRG*%
X159930000Y-91620000D03*
%TO.P,U2,8,CE*%
%TO.N,Net-(U2-CE)*%
X159930000Y-91120000D03*
D12*
%TO.P,U2,9,EP*%
%TO.N,GND*%
X159030000Y-91870000D03*
%TD*%
D13*
%TO.P,U1,1,CC1*%
%TO.N,/CC1*%
X151170000Y-103250000D03*
%TO.P,U1,2,VBUS*%
%TO.N,/VBUS*%
X151170000Y-103900000D03*
%TO.P,U1,3,VSET*%
%TO.N,Net-(U1-VSET)*%
X151170000Y-104550000D03*
%TO.P,U1,4,D+*%
%TO.N,/D+*%
X153270000Y-104550000D03*
%TO.P,U1,5,D-*%
%TO.N,/D-*%
X153270000Y-103900000D03*
%TO.P,U1,6,CC2*%
%TO.N,/CC2*%
X153270000Y-103250000D03*
D14*
%TO.P,U1,7,GND*%
%TO.N,GND*%
X152220000Y-103900000D03*
%TD*%
D15*
%TO.P,R9,1*%
%TO.N,/VBUS*%
X157877500Y-88945000D03*
%TO.P,R9,2*%
%TO.N,Net-(U2-CE)*%
X159072500Y-88945000D03*
%TD*%
D16*
%TO.P,R8,1*%
%TO.N,Net-(Q1-D)*%
X140782500Y-99765000D03*
%TO.P,R8,2*%
%TO.N,GND*%
X142607500Y-99765000D03*
%TD*%
%TO.P,R7,1*%
%TO.N,Net-(Q1-S)*%
X140782500Y-97255000D03*
%TO.P,R7,2*%
%TO.N,GND*%
X142607500Y-97255000D03*
%TD*%
%TO.P,R6,1*%
%TO.N,/Pin 13*%
X140782500Y-94745000D03*
%TO.P,R6,2*%
%TO.N,Net-(Q1-G)*%
X142607500Y-94745000D03*
%TD*%
D15*
%TO.P,R5,1*%
%TO.N,GND*%
X157877500Y-86955000D03*
%TO.P,R5,2*%
%TO.N,/Pin 13*%
X159072500Y-86955000D03*
%TD*%
D16*
%TO.P,R4,1*%
%TO.N,Net-(U3-A1)*%
X140782500Y-92235000D03*
%TO.P,R4,2*%
%TO.N,/5V*%
X142607500Y-92235000D03*
%TD*%
D17*
%TO.P,R3,1*%
%TO.N,/BAT_OUT*%
X145295000Y-100965000D03*
%TO.P,R3,2*%
%TO.N,/BAT_IN*%
X148395000Y-100965000D03*
%TD*%
%TO.P,R2,1*%
%TO.N,/BAT_OUT*%
X145295000Y-97675000D03*
%TO.P,R2,2*%
%TO.N,/BAT_IN*%
X148395000Y-97675000D03*
%TD*%
D16*
%TO.P,R1,1*%
%TO.N,Net-(U1-VSET)*%
X140782500Y-89725000D03*
%TO.P,R1,2*%
%TO.N,GND*%
X142607500Y-89725000D03*
%TD*%
D18*
%TO.P,Q1,1,D*%
%TO.N,Net-(Q1-D)*%
X156355000Y-97580000D03*
%TO.P,Q1,2,G*%
%TO.N,Net-(Q1-G)*%
X156355000Y-99480000D03*
%TO.P,Q1,3,S*%
%TO.N,Net-(Q1-S)*%
X159355000Y-98530000D03*
%TD*%
D19*
%TO.P,J1,A1_B12*%
%TO.N,N/C*%
X146245000Y-87910000D03*
%TO.P,J1,A4_B9*%
X147045000Y-87910000D03*
D20*
%TO.P,J1,A6,D+*%
%TO.N,/D+*%
X149195000Y-87910000D03*
%TO.P,J1,B7,D-*%
%TO.N,unconnected-(J1-D--PadB7)*%
X148695000Y-87910000D03*
%TO.P,J1,A5,CC1*%
%TO.N,/CC1*%
X148195000Y-87910000D03*
%TO.P,J1,B8,SBU2*%
%TO.N,unconnected-(J1-SBU2-PadB8)*%
X147695000Y-87910000D03*
%TO.P,J1,A7,D-*%
%TO.N,/D-*%
X149695000Y-87910000D03*
%TO.P,J1,B6,D+*%
%TO.N,unconnected-(J1-D+-PadB6)*%
X150195000Y-87910000D03*
%TO.P,J1,A8,SBU1*%
%TO.N,unconnected-(J1-SBU1-PadA8)*%
X150695000Y-87910000D03*
%TO.P,J1,B5,CC2*%
%TO.N,/CC2*%
X151195000Y-87910000D03*
D19*
%TO.P,J1,B4_A9*%
%TO.N,N/C*%
X151845000Y-87910000D03*
%TO.P,J1,B1_A12*%
X152645000Y-87910000D03*
D21*
%TO.P,J1,SH1*%
X145120000Y-88460000D03*
%TO.P,J1,SH2*%
X153770000Y-88460000D03*
D22*
%TO.P,J1,SH3*%
X145120000Y-92660000D03*
%TO.P,J1,SH4*%
X153770000Y-92660000D03*
%TD*%
D23*
%TO.P,C4,1*%
%TO.N,GND*%
X140832500Y-87215000D03*
%TO.P,C4,2*%
%TO.N,/5V*%
X142557500Y-87215000D03*
%TD*%
D24*
%TO.P,C3,1*%
%TO.N,/BAT_IN*%
X151187500Y-100545000D03*
%TO.P,C3,2*%
%TO.N,GND*%
X153262500Y-100545000D03*
%TD*%
%TO.P,C2,1*%
%TO.N,/VBUS*%
X151187500Y-97535000D03*
%TO.P,C2,2*%
%TO.N,GND*%
X153262500Y-97535000D03*
%TD*%
D25*
%TO.P,C1,1*%
%TO.N,GND*%
X157887500Y-94625000D03*
%TO.P,C1,2*%
%TO.N,/VBUS*%
X159022500Y-94625000D03*
%TD*%
M02*
