M48
; DRILL file {KiCad 8.0.8} date 2025-03-28T14:50:43+0200
; FORMAT={-:-/ absolute / inch / decimal}
; #@! TF.CreationDate,2025-03-28T14:50:43+02:00
; #@! TF.GenerationSoftware,Kicad,Pcbnew,8.0.8
; #@! TF.FileFunction,Plated,1,2,PTH
FMAT,2
INCH
; #@! TA.AperFunction,Plated,PTH,ViaDrill
T1C0.0118
; #@! TA.AperFunction,Plated,PTH,ComponentDrill
T2C0.0197
; #@! TA.AperFunction,Plated,PTH,ComponentDrill
T3C0.0256
; #@! TA.AperFunction,Plated,PTH,ComponentDrill
T4C0.0315
; #@! TA.AperFunction,Plated,PTH,ComponentDrill
T5C0.0360
; #@! TA.AperFunction,Plated,PTH,ComponentDrill
T6C0.0394
; #@! TA.AperFunction,Plated,PTH,ComponentDrill
T7C0.0433
; #@! TA.AperFunction,Plated,PTH,ComponentDrill
T8C0.0630
%
G90
G05
T1
X4.9804Y-3.8247
X5.0446Y-3.7404
X5.1278Y-2.698
X5.1289Y-3.4061
X5.2072Y-2.6793
X5.2455Y-2.1364
X5.2536Y-3.265
X5.3748Y-3.8769
X5.3757Y-3.5112
X5.3757Y-2.2713
X5.3869Y-3.8314
X5.4739Y-3.6391
X5.4739Y-3.7047
X5.4761Y-3.756
X5.4789Y-2.3656
X5.4911Y-3.5855
X5.5151Y-3.8161
X5.5188Y-3.7565
X5.5336Y-2.2275
X5.5672Y-3.9017
X5.5734Y-2.3009
X5.5906Y-3.3967
X5.5956Y-2.0239
X5.5956Y-4.0121
X5.6295Y-2.3865
X5.6296Y-2.4502
X5.6768Y-3.6628
X5.7084Y-3.3967
X5.7122Y-2.3921
X5.8298Y-1.9979
X5.83Y-3.4886
X5.8318Y-3.6722
X5.859Y-2.5132
X5.8938Y-3.7688
X5.9175Y-3.8048
X5.9228Y-2.0204
X5.9252Y-2.8238
X5.9252Y-3.7102
X5.9303Y-3.5726
X5.9358Y-2.9384
X5.9358Y-3.0268
X5.9548Y-3.7711
X6.0623Y-2.4697
X6.0623Y-2.6188
X6.0842Y-3.5112
X6.0908Y-2.9384
X6.0909Y-3.088
X6.0913Y-3.869
X6.0956Y-2.6664
X6.1587Y-3.3571
X6.1601Y-3.2821
X6.179Y-3.4345
X6.2834Y-2.2836
X6.334Y-2.3681
X6.334Y-2.445
X6.3364Y-2.8936
X6.5634Y-2.397
X6.7624Y-2.609
T2
X5.4134Y-2.126
X5.4134Y-2.1654
X5.4528Y-2.126
X5.4528Y-2.1654
X5.4921Y-2.126
X5.4921Y-2.1654
X5.5315Y-2.126
X5.5315Y-2.1654
X5.5709Y-2.126
X5.5709Y-2.1654
X5.6102Y-2.126
X5.6102Y-2.1654
X5.6496Y-2.126
X5.6496Y-2.1654
X5.689Y-2.126
X5.689Y-2.1654
X5.7283Y-2.126
X5.7283Y-2.1654
X5.7677Y-2.126
X5.7677Y-2.1654
X5.8071Y-2.126
X5.8071Y-2.1654
X5.8465Y-2.126
X5.8465Y-2.1654
X5.8858Y-2.126
X5.8858Y-2.1654
X5.9252Y-2.126
X5.9252Y-2.1654
X5.9646Y-2.126
X5.9646Y-2.1654
X6.0039Y-2.126
X6.0039Y-2.1654
X6.1417Y-3.878
X6.1811Y-3.878
T4
X5.6693Y-3.1004
X5.6693Y-3.1594
X5.8169Y-2.6772
X5.876Y-2.6772
T5
X4.9803Y-2.3031
X4.9803Y-2.815
X5.0Y-2.9331
X5.0Y-3.4449
T6
X5.374Y-2.372
X5.374Y-2.7854
X5.3937Y-2.9035
X5.3937Y-3.3169
X5.9539Y-2.3622
X6.0177Y-3.4843
X6.0539Y-2.3622
X6.3976Y-3.5728
X6.3976Y-4.1831
X6.4232Y-3.4843
X6.565Y-4.0551
X6.6823Y-2.3228
X6.7823Y-2.3228
X6.9685Y-3.5138
X6.9685Y-3.9272
X6.9783Y-4.0551
T8
X6.2598Y-2.7118
X6.2598Y-3.3118
T3
G00X5.4203Y-3.969
M15
G01X5.4203Y-4.0133
M16
G05
G00X5.4203Y-4.1402
M15
G01X5.4203Y-4.1727
M16
G05
G00X5.7608Y-3.969
M15
G01X5.7608Y-4.0133
M16
G05
G00X5.7608Y-4.1402
M15
G01X5.7608Y-4.1727
M16
G05
T7
G00X6.689Y-3.4921
M15
G01X6.7362Y-3.4921
M16
G05
G00X6.689Y-3.6811
M15
G01X6.7362Y-3.6811
M16
G05
G00X6.689Y-3.8701
M15
G01X6.7362Y-3.8701
M16
G05
M30
