%TF.GenerationSoftware,KiCad,Pcbnew,8.0.8*%
%TF.CreationDate,2025-03-28T13:39:47+02:00*%
%TF.ProjectId,Main PCB,4d61696e-2050-4434-922e-6b696361645f,v1*%
%TF.SameCoordinates,Original*%
%TF.FileFunction,Soldermask,Top*%
%TF.FilePolarity,Negative*%
%FSLAX46Y46*%
G04 Gerber Fmt 4.6, Leading zero omitted, Abs format (unit mm)*
G04 Created by KiCad (PCBNEW 8.0.8) date 2025-03-28 13:39:47*
%MOMM*%
%LPD*%
G01*
G04 APERTURE LIST*
G04 Aperture macros list*
%AMRoundRect*
0 Rectangle with rounded corners*
0 $1 Rounding radius*
0 $2 $3 $4 $5 $6 $7 $8 $9 X,Y pos of 4 corners*
0 Add a 4 corners polygon primitive as box body*
4,1,4,$2,$3,$4,$5,$6,$7,$8,$9,$2,$3,0*
0 Add four circle primitives for the rounded corners*
1,1,$1+$1,$2,$3*
1,1,$1+$1,$4,$5*
1,1,$1+$1,$6,$7*
1,1,$1+$1,$8,$9*
0 Add four rect primitives between the rounded corners*
20,1,$1+$1,$2,$3,$4,$5,0*
20,1,$1+$1,$4,$5,$6,$7,0*
20,1,$1+$1,$6,$7,$8,$9,0*
20,1,$1+$1,$8,$9,$2,$3,0*%
G04 Aperture macros list end*
%ADD10C,0.010000*%
%ADD11C,1.500000*%
%ADD12R,1.410000X1.350000*%
%ADD13RoundRect,0.250000X0.625000X-0.400000X0.625000X0.400000X-0.625000X0.400000X-0.625000X-0.400000X0*%
%ADD14O,2.900000X1.700000*%
%ADD15RoundRect,0.150000X-0.825000X-0.150000X0.825000X-0.150000X0.825000X0.150000X-0.825000X0.150000X0*%
%ADD16R,1.728000X1.485000*%
%ADD17R,1.250000X0.700000*%
%ADD18R,0.650000X0.350000*%
%ADD19R,1.000000X1.600000*%
%ADD20RoundRect,0.087500X-0.487500X-0.087500X0.487500X-0.087500X0.487500X0.087500X-0.487500X0.087500X0*%
%ADD21RoundRect,0.050000X-0.675000X-0.050000X0.675000X-0.050000X0.675000X0.050000X-0.675000X0.050000X0*%
%ADD22RoundRect,0.062500X-0.162500X-0.062500X0.162500X-0.062500X0.162500X0.062500X-0.162500X0.062500X0*%
%ADD23R,1.070000X0.600000*%
%ADD24R,0.850000X0.850000*%
%ADD25O,0.850000X0.850000*%
%ADD26C,1.600000*%
%ADD27C,1.200000*%
%ADD28RoundRect,0.237500X-0.237500X0.250000X-0.237500X-0.250000X0.237500X-0.250000X0.237500X0.250000X0*%
%ADD29C,0.650000*%
%ADD30O,1.154000X2.254000*%
%ADD31O,1.154000X1.954000*%
%ADD32RoundRect,0.200000X-0.750000X-0.200000X0.750000X-0.200000X0.750000X0.200000X-0.750000X0.200000X0*%
%ADD33R,1.635000X2.700000*%
%ADD34C,1.524000*%
%ADD35RoundRect,0.237500X-0.250000X-0.237500X0.250000X-0.237500X0.250000X0.237500X-0.250000X0.237500X0*%
%ADD36RoundRect,0.237500X0.237500X-0.250000X0.237500X0.250000X-0.237500X0.250000X-0.237500X-0.250000X0*%
%ADD37RoundRect,0.085500X-0.621500X-0.256500X0.621500X-0.256500X0.621500X0.256500X-0.621500X0.256500X0*%
%ADD38RoundRect,0.250000X0.475000X-0.337500X0.475000X0.337500X-0.475000X0.337500X-0.475000X-0.337500X0*%
%ADD39RoundRect,0.237500X0.237500X-0.300000X0.237500X0.300000X-0.237500X0.300000X-0.237500X-0.300000X0*%
%ADD40C,1.879500*%
%ADD41RoundRect,0.160000X-0.160000X0.197500X-0.160000X-0.197500X0.160000X-0.197500X0.160000X0.197500X0*%
%ADD42RoundRect,0.155000X-0.212500X-0.155000X0.212500X-0.155000X0.212500X0.155000X-0.212500X0.155000X0*%
%ADD43RoundRect,0.100000X-0.637500X-0.100000X0.637500X-0.100000X0.637500X0.100000X-0.637500X0.100000X0*%
%ADD44R,1.485000X1.728000*%
%ADD45RoundRect,0.160000X-0.197500X-0.160000X0.197500X-0.160000X0.197500X0.160000X-0.197500X0.160000X0*%
%ADD46R,2.950000X4.500000*%
%ADD47R,0.500000X0.300000*%
%ADD48R,1.050000X1.750000*%
%ADD49R,3.200000X3.200000*%
%ADD50O,3.200000X3.200000*%
G04 APERTURE END LIST*
D10*
%TO.C,J1*%
X139150000Y-101445000D02*
X138450000Y-101445000D01*
X138450000Y-100205000D01*
X139150000Y-100205000D01*
X139150000Y-101445000D01*
G36*
X139150000Y-101445000D02*
G01*
X138450000Y-101445000D01*
X138450000Y-100205000D01*
X139150000Y-100205000D01*
X139150000Y-101445000D01*
G37*
X139950000Y-101445000D02*
X139250000Y-101445000D01*
X139250000Y-100205000D01*
X139950000Y-100205000D01*
X139950000Y-101445000D01*
G36*
X139950000Y-101445000D02*
G01*
X139250000Y-101445000D01*
X139250000Y-100205000D01*
X139950000Y-100205000D01*
X139950000Y-101445000D01*
G37*
X140450000Y-101445000D02*
X140050000Y-101445000D01*
X140050000Y-100205000D01*
X140450000Y-100205000D01*
X140450000Y-101445000D01*
G36*
X140450000Y-101445000D02*
G01*
X140050000Y-101445000D01*
X140050000Y-100205000D01*
X140450000Y-100205000D01*
X140450000Y-101445000D01*
G37*
X140950000Y-101445000D02*
X140550000Y-101445000D01*
X140550000Y-100205000D01*
X140950000Y-100205000D01*
X140950000Y-101445000D01*
G36*
X140950000Y-101445000D02*
G01*
X140550000Y-101445000D01*
X140550000Y-100205000D01*
X140950000Y-100205000D01*
X140950000Y-101445000D01*
G37*
X141450000Y-101445000D02*
X141050000Y-101445000D01*
X141050000Y-100205000D01*
X141450000Y-100205000D01*
X141450000Y-101445000D01*
G36*
X141450000Y-101445000D02*
G01*
X141050000Y-101445000D01*
X141050000Y-100205000D01*
X141450000Y-100205000D01*
X141450000Y-101445000D01*
G37*
X141950000Y-101445000D02*
X141550000Y-101445000D01*
X141550000Y-100205000D01*
X141950000Y-100205000D01*
X141950000Y-101445000D01*
G36*
X141950000Y-101445000D02*
G01*
X141550000Y-101445000D01*
X141550000Y-100205000D01*
X141950000Y-100205000D01*
X141950000Y-101445000D01*
G37*
X142450000Y-101445000D02*
X142050000Y-101445000D01*
X142050000Y-100205000D01*
X142450000Y-100205000D01*
X142450000Y-101445000D01*
G36*
X142450000Y-101445000D02*
G01*
X142050000Y-101445000D01*
X142050000Y-100205000D01*
X142450000Y-100205000D01*
X142450000Y-101445000D01*
G37*
X142950000Y-101445000D02*
X142550000Y-101445000D01*
X142550000Y-100205000D01*
X142950000Y-100205000D01*
X142950000Y-101445000D01*
G36*
X142950000Y-101445000D02*
G01*
X142550000Y-101445000D01*
X142550000Y-100205000D01*
X142950000Y-100205000D01*
X142950000Y-101445000D01*
G37*
X143450000Y-101445000D02*
X143050000Y-101445000D01*
X143050000Y-100205000D01*
X143450000Y-100205000D01*
X143450000Y-101445000D01*
G36*
X143450000Y-101445000D02*
G01*
X143050000Y-101445000D01*
X143050000Y-100205000D01*
X143450000Y-100205000D01*
X143450000Y-101445000D01*
G37*
X143950000Y-101445000D02*
X143550000Y-101445000D01*
X143550000Y-100205000D01*
X143950000Y-100205000D01*
X143950000Y-101445000D01*
G36*
X143950000Y-101445000D02*
G01*
X143550000Y-101445000D01*
X143550000Y-100205000D01*
X143950000Y-100205000D01*
X143950000Y-101445000D01*
G37*
X144750000Y-101445000D02*
X144050000Y-101445000D01*
X144050000Y-100205000D01*
X144750000Y-100205000D01*
X144750000Y-101445000D01*
G36*
X144750000Y-101445000D02*
G01*
X144050000Y-101445000D01*
X144050000Y-100205000D01*
X144750000Y-100205000D01*
X144750000Y-101445000D01*
G37*
X145550000Y-101445000D02*
X144850000Y-101445000D01*
X144850000Y-100205000D01*
X145550000Y-100205000D01*
X145550000Y-101445000D01*
G36*
X145550000Y-101445000D02*
G01*
X144850000Y-101445000D01*
X144850000Y-100205000D01*
X145550000Y-100205000D01*
X145550000Y-101445000D01*
G37*
%TD*%
D11*
%TO.C,3v3*%
X144300000Y-74850000D03*
%TD*%
%TO.C,5V*%
X137150000Y-87600000D03*
%TD*%
%TO.C,BAT*%
X158150000Y-101650000D03*
%TD*%
%TO.C,VBUS*%
X134400000Y-102800000D03*
%TD*%
D12*
%TO.C,C7*%
X151500000Y-65000000D03*
X153500000Y-65000000D03*
%TD*%
D13*
%TO.C,R3*%
X158500000Y-96050000D03*
X158500000Y-92950000D03*
%TD*%
D14*
%TO.C,SW1*%
X170500000Y-98300000D03*
X170500000Y-93500000D03*
X170500000Y-88700000D03*
%TD*%
D15*
%TO.C,U7*%
X148025000Y-74595000D03*
X148025000Y-75865000D03*
X148025000Y-77135000D03*
X148025000Y-78405000D03*
X152975000Y-78405000D03*
X152975000Y-77135000D03*
X152975000Y-75865000D03*
X152975000Y-74595000D03*
%TD*%
D16*
%TO.C,C14*%
X143500000Y-89592500D03*
X143500000Y-86407500D03*
%TD*%
D17*
%TO.C,Q4*%
X133000000Y-79950000D03*
X133000000Y-78050000D03*
X131000000Y-79000000D03*
%TD*%
%TO.C,Q6*%
X132000000Y-64450000D03*
X132000000Y-62550000D03*
X130000000Y-63500000D03*
%TD*%
D18*
%TO.C,U1*%
X141950000Y-96850000D03*
X141950000Y-97500000D03*
X141950000Y-98150000D03*
X144050000Y-98150000D03*
X144050000Y-97500000D03*
X144050000Y-96850000D03*
D19*
X143000000Y-97500000D03*
%TD*%
D20*
%TO.C,U4*%
X149375000Y-88450000D03*
D21*
X149525000Y-89000000D03*
D20*
X149375000Y-89550000D03*
D22*
X150975000Y-89750000D03*
X150975000Y-89250000D03*
X150975000Y-88750000D03*
X150975000Y-88250000D03*
%TD*%
D23*
%TO.C,Q5*%
X132235000Y-70950000D03*
X132235000Y-69050000D03*
X129765000Y-70000000D03*
%TD*%
D13*
%TO.C,R2*%
X155500000Y-96050000D03*
X155500000Y-92950000D03*
%TD*%
D24*
%TO.C,J3*%
X157000000Y-98500000D03*
D25*
X156000000Y-98500000D03*
%TD*%
D26*
%TO.C,C10*%
X169730000Y-59000000D03*
X172270000Y-59000000D03*
%TD*%
D27*
%TO.C,C13*%
X144000000Y-78750000D03*
X144000000Y-80250000D03*
%TD*%
D17*
%TO.C,Q7*%
X178500000Y-78950000D03*
X178500000Y-77050000D03*
X176500000Y-78000000D03*
%TD*%
D16*
%TO.C,C6*%
X146500000Y-89592500D03*
X146500000Y-86407500D03*
%TD*%
D28*
%TO.C,R8*%
X127000000Y-93087500D03*
X127000000Y-94912500D03*
%TD*%
D29*
%TO.C,J1*%
X139110000Y-101895000D03*
X144890000Y-101895000D03*
D30*
X137675000Y-101375000D03*
X146325000Y-101375000D03*
D31*
X137675000Y-105575000D03*
X146325000Y-105575000D03*
%TD*%
D32*
%TO.C,Q1*%
X130500000Y-92550000D03*
X130500000Y-94450000D03*
X133500000Y-93500000D03*
%TD*%
D17*
%TO.C,Q2*%
X178500000Y-85400000D03*
X178500000Y-83500000D03*
X176500000Y-84450000D03*
%TD*%
D33*
%TO.C,L1*%
X151017500Y-82000000D03*
X147982500Y-82000000D03*
%TD*%
D34*
%TO.C,R11*%
X162500000Y-90750000D03*
X162500000Y-106250000D03*
%TD*%
D35*
%TO.C,R7*%
X133087500Y-89000000D03*
X134912500Y-89000000D03*
%TD*%
D36*
%TO.C,R1*%
X135450000Y-96250000D03*
X135450000Y-98075000D03*
%TD*%
D24*
%TO.C,J2*%
X152500000Y-54000000D03*
D25*
X152500000Y-55000000D03*
X151500000Y-54000000D03*
X151500000Y-55000000D03*
X150500000Y-54000000D03*
X150500000Y-55000000D03*
X149500000Y-54000000D03*
X149500000Y-55000000D03*
X148500000Y-54000000D03*
X148500000Y-55000000D03*
X147500000Y-54000000D03*
X147500000Y-55000000D03*
X146500000Y-54000000D03*
X146500000Y-55000000D03*
X145500000Y-54000000D03*
X145500000Y-55000000D03*
X144500000Y-54000000D03*
X144500000Y-55000000D03*
X143500000Y-54000000D03*
X143500000Y-55000000D03*
X142500000Y-54000000D03*
X142500000Y-55000000D03*
X141500000Y-54000000D03*
X141500000Y-55000000D03*
X140500000Y-54000000D03*
X140500000Y-55000000D03*
X139500000Y-54000000D03*
X139500000Y-55000000D03*
X138500000Y-54000000D03*
X138500000Y-55000000D03*
X137500000Y-54000000D03*
X137500000Y-55000000D03*
%TD*%
D37*
%TO.C,U3*%
X149245000Y-93025000D03*
X149245000Y-93675000D03*
X149245000Y-94325000D03*
X149245000Y-94975000D03*
X151755000Y-94975000D03*
X151755000Y-94325000D03*
X151755000Y-93675000D03*
X151755000Y-93025000D03*
%TD*%
D16*
%TO.C,C5*%
X154000000Y-82407500D03*
X154000000Y-85592500D03*
%TD*%
D38*
%TO.C,C3*%
X145500000Y-95037500D03*
X145500000Y-92962500D03*
%TD*%
D39*
%TO.C,C4*%
X153500000Y-98362500D03*
X153500000Y-96637500D03*
%TD*%
D40*
%TO.C,R17*%
X177000000Y-99750000D03*
X177000000Y-89250000D03*
%TD*%
D23*
%TO.C,Q3*%
X133235000Y-85950000D03*
X133235000Y-84050000D03*
X130765000Y-85000000D03*
%TD*%
D27*
%TO.C,C11*%
X147750000Y-68000000D03*
X149250000Y-68000000D03*
%TD*%
D41*
%TO.C,R5*%
X127500000Y-96902500D03*
X127500000Y-98097500D03*
%TD*%
D42*
%TO.C,C1*%
X137432500Y-98500000D03*
X138567500Y-98500000D03*
%TD*%
D34*
%TO.C,R14*%
X127000000Y-74500000D03*
X127000000Y-87500000D03*
%TD*%
D43*
%TO.C,U5*%
X141637500Y-59225000D03*
X141637500Y-59875000D03*
X141637500Y-60525000D03*
X141637500Y-61175000D03*
X141637500Y-61825000D03*
X141637500Y-62475000D03*
X141637500Y-63125000D03*
X141637500Y-63775000D03*
X147362500Y-63775000D03*
X147362500Y-63125000D03*
X147362500Y-62475000D03*
X147362500Y-61825000D03*
X147362500Y-61175000D03*
X147362500Y-60525000D03*
X147362500Y-59875000D03*
X147362500Y-59225000D03*
%TD*%
%TO.C,U6*%
X159637500Y-58725000D03*
X159637500Y-59375000D03*
X159637500Y-60025000D03*
X159637500Y-60675000D03*
X159637500Y-61325000D03*
X159637500Y-61975000D03*
X159637500Y-62625000D03*
X159637500Y-63275000D03*
X165362500Y-63275000D03*
X165362500Y-62625000D03*
X165362500Y-61975000D03*
X165362500Y-61325000D03*
X165362500Y-60675000D03*
X165362500Y-60025000D03*
X165362500Y-59375000D03*
X165362500Y-58725000D03*
%TD*%
D44*
%TO.C,C12*%
X148907500Y-71500000D03*
X152092500Y-71500000D03*
%TD*%
D40*
%TO.C,R12*%
X166750000Y-103000000D03*
X177250000Y-103000000D03*
%TD*%
D45*
%TO.C,R9*%
X136402500Y-91000000D03*
X137597500Y-91000000D03*
%TD*%
D46*
%TO.C,L2*%
X164000000Y-80000000D03*
X173000000Y-80000000D03*
%TD*%
D34*
%TO.C,R16*%
X126500000Y-58500000D03*
X126500000Y-71500000D03*
%TD*%
D26*
%TO.C,C8*%
X151230000Y-60000000D03*
X153770000Y-60000000D03*
%TD*%
D38*
%TO.C,C2*%
X137500000Y-95037500D03*
X137500000Y-92962500D03*
%TD*%
D34*
%TO.C,R10*%
X152850000Y-88500000D03*
X163150000Y-88500000D03*
%TD*%
D12*
%TO.C,C9*%
X169000000Y-64500000D03*
X171000000Y-64500000D03*
%TD*%
D35*
%TO.C,R4*%
X148587500Y-98500000D03*
X150412500Y-98500000D03*
%TD*%
D47*
%TO.C,U2*%
X140100000Y-93250000D03*
X140100000Y-93750000D03*
X140100000Y-94250000D03*
X140100000Y-94750000D03*
X141900000Y-94750000D03*
X141900000Y-94250000D03*
X141900000Y-93750000D03*
X141900000Y-93250000D03*
D48*
X141000000Y-94000000D03*
%TD*%
D40*
%TO.C,R15*%
X136500000Y-70750000D03*
X136500000Y-60250000D03*
%TD*%
%TO.C,R13*%
X137000000Y-84250000D03*
X137000000Y-73750000D03*
%TD*%
D35*
%TO.C,R6*%
X130087500Y-98000000D03*
X131912500Y-98000000D03*
%TD*%
D49*
%TO.C,D1*%
X159000000Y-84120000D03*
D50*
X159000000Y-68880000D03*
%TD*%
D16*
%TO.C,C15*%
X140500000Y-89592500D03*
X140500000Y-86407500D03*
%TD*%
M02*
