%TF.GenerationSoftware,KiCad,Pcbnew,8.0.8*%
%TF.CreationDate,2025-03-26T11:51:04+02:00*%
%TF.ProjectId,Main PCB,4d61696e-2050-4434-922e-6b696361645f,rev?*%
%TF.SameCoordinates,Original*%
%TF.FileFunction,Soldermask,Top*%
%TF.FilePolarity,Negative*%
%FSLAX46Y46*%
G04 Gerber Fmt 4.6, Leading zero omitted, Abs format (unit mm)*
G04 Created by KiCad (PCBNEW 8.0.8) date 2025-03-26 11:51:04*
%MOMM*%
%LPD*%
G01*
G04 APERTURE LIST*
G04 Aperture macros list*
%AMRoundRect*
0 Rectangle with rounded corners*
0 $1 Rounding radius*
0 $2 $3 $4 $5 $6 $7 $8 $9 X,Y pos of 4 corners*
0 Add a 4 corners polygon primitive as box body*
4,1,4,$2,$3,$4,$5,$6,$7,$8,$9,$2,$3,0*
0 Add four circle primitives for the rounded corners*
1,1,$1+$1,$2,$3*
1,1,$1+$1,$4,$5*
1,1,$1+$1,$6,$7*
1,1,$1+$1,$8,$9*
0 Add four rect primitives between the rounded corners*
20,1,$1+$1,$2,$3,$4,$5,0*
20,1,$1+$1,$4,$5,$6,$7,0*
20,1,$1+$1,$6,$7,$8,$9,0*
20,1,$1+$1,$8,$9,$2,$3,0*%
G04 Aperture macros list end*
%ADD10C,0.010000*%
%ADD11RoundRect,0.085500X-0.621500X-0.256500X0.621500X-0.256500X0.621500X0.256500X-0.621500X0.256500X0*%
%ADD12R,0.500000X0.300000*%
%ADD13R,1.050000X1.750000*%
%ADD14R,0.650000X0.350000*%
%ADD15R,1.000000X1.600000*%
%ADD16RoundRect,0.160000X-0.197500X-0.160000X0.197500X-0.160000X0.197500X0.160000X-0.197500X0.160000X0*%
%ADD17RoundRect,0.237500X-0.250000X-0.237500X0.250000X-0.237500X0.250000X0.237500X-0.250000X0.237500X0*%
%ADD18RoundRect,0.250000X-0.400000X-0.625000X0.400000X-0.625000X0.400000X0.625000X-0.400000X0.625000X0*%
%ADD19RoundRect,0.200000X-0.750000X-0.200000X0.750000X-0.200000X0.750000X0.200000X-0.750000X0.200000X0*%
%ADD20C,0.650000*%
%ADD21O,1.154000X2.254000*%
%ADD22O,1.154000X1.954000*%
%ADD23RoundRect,0.237500X-0.300000X-0.237500X0.300000X-0.237500X0.300000X0.237500X-0.300000X0.237500X0*%
%ADD24RoundRect,0.250000X-0.337500X-0.475000X0.337500X-0.475000X0.337500X0.475000X-0.337500X0.475000X0*%
%ADD25RoundRect,0.155000X-0.212500X-0.155000X0.212500X-0.155000X0.212500X0.155000X-0.212500X0.155000X0*%
G04 APERTURE END LIST*
D10*
%TO.C,J1*%
X147895000Y-88530000D02*
X147495000Y-88530000D01*
X147495000Y-87290000D01*
X147895000Y-87290000D01*
X147895000Y-88530000D01*
G36*
X147895000Y-88530000D02*
G01*
X147495000Y-88530000D01*
X147495000Y-87290000D01*
X147895000Y-87290000D01*
X147895000Y-88530000D01*
G37*
X148395000Y-88530000D02*
X147995000Y-88530000D01*
X147995000Y-87290000D01*
X148395000Y-87290000D01*
X148395000Y-88530000D01*
G36*
X148395000Y-88530000D02*
G01*
X147995000Y-88530000D01*
X147995000Y-87290000D01*
X148395000Y-87290000D01*
X148395000Y-88530000D01*
G37*
X148895000Y-88530000D02*
X148495000Y-88530000D01*
X148495000Y-87290000D01*
X148895000Y-87290000D01*
X148895000Y-88530000D01*
G36*
X148895000Y-88530000D02*
G01*
X148495000Y-88530000D01*
X148495000Y-87290000D01*
X148895000Y-87290000D01*
X148895000Y-88530000D01*
G37*
X151395000Y-88530000D02*
X150995000Y-88530000D01*
X150995000Y-87290000D01*
X151395000Y-87290000D01*
X151395000Y-88530000D01*
G36*
X151395000Y-88530000D02*
G01*
X150995000Y-88530000D01*
X150995000Y-87290000D01*
X151395000Y-87290000D01*
X151395000Y-88530000D01*
G37*
X150895000Y-88530000D02*
X150495000Y-88530000D01*
X150495000Y-87290000D01*
X150895000Y-87290000D01*
X150895000Y-88530000D01*
G36*
X150895000Y-88530000D02*
G01*
X150495000Y-88530000D01*
X150495000Y-87290000D01*
X150895000Y-87290000D01*
X150895000Y-88530000D01*
G37*
X150395000Y-88530000D02*
X149995000Y-88530000D01*
X149995000Y-87290000D01*
X150395000Y-87290000D01*
X150395000Y-88530000D01*
G36*
X150395000Y-88530000D02*
G01*
X149995000Y-88530000D01*
X149995000Y-87290000D01*
X150395000Y-87290000D01*
X150395000Y-88530000D01*
G37*
X149395000Y-88530000D02*
X148995000Y-88530000D01*
X148995000Y-87290000D01*
X149395000Y-87290000D01*
X149395000Y-88530000D01*
G36*
X149395000Y-88530000D02*
G01*
X148995000Y-88530000D01*
X148995000Y-87290000D01*
X149395000Y-87290000D01*
X149395000Y-88530000D01*
G37*
X149895000Y-88530000D02*
X149495000Y-88530000D01*
X149495000Y-87290000D01*
X149895000Y-87290000D01*
X149895000Y-88530000D01*
G36*
X149895000Y-88530000D02*
G01*
X149495000Y-88530000D01*
X149495000Y-87290000D01*
X149895000Y-87290000D01*
X149895000Y-88530000D01*
G37*
X146595000Y-88530000D02*
X145895000Y-88530000D01*
X145895000Y-87290000D01*
X146595000Y-87290000D01*
X146595000Y-88530000D01*
G36*
X146595000Y-88530000D02*
G01*
X145895000Y-88530000D01*
X145895000Y-87290000D01*
X146595000Y-87290000D01*
X146595000Y-88530000D01*
G37*
X152995000Y-88530000D02*
X152295000Y-88530000D01*
X152295000Y-87290000D01*
X152995000Y-87290000D01*
X152995000Y-88530000D01*
G36*
X152995000Y-88530000D02*
G01*
X152295000Y-88530000D01*
X152295000Y-87290000D01*
X152995000Y-87290000D01*
X152995000Y-88530000D01*
G37*
X147395000Y-88530000D02*
X146695000Y-88530000D01*
X146695000Y-87290000D01*
X147395000Y-87290000D01*
X147395000Y-88530000D01*
G36*
X147395000Y-88530000D02*
G01*
X146695000Y-88530000D01*
X146695000Y-87290000D01*
X147395000Y-87290000D01*
X147395000Y-88530000D01*
G37*
X152195000Y-88530000D02*
X151495000Y-88530000D01*
X151495000Y-87290000D01*
X152195000Y-87290000D01*
X152195000Y-88530000D01*
G36*
X152195000Y-88530000D02*
G01*
X151495000Y-88530000D01*
X151495000Y-87290000D01*
X152195000Y-87290000D01*
X152195000Y-88530000D01*
G37*
%TD*%
D11*
%TO.C,U3*%
X156490000Y-102050000D03*
X156490000Y-102700000D03*
X156490000Y-103350000D03*
X156490000Y-104000000D03*
X159000000Y-104000000D03*
X159000000Y-103350000D03*
X159000000Y-102700000D03*
X159000000Y-102050000D03*
%TD*%
D12*
%TO.C,U2*%
X158130000Y-91120000D03*
X158130000Y-91620000D03*
X158130000Y-92120000D03*
X158130000Y-92620000D03*
X159930000Y-92620000D03*
X159930000Y-92120000D03*
X159930000Y-91620000D03*
X159930000Y-91120000D03*
D13*
X159030000Y-91870000D03*
%TD*%
D14*
%TO.C,U1*%
X151170000Y-103250000D03*
X151170000Y-103900000D03*
X151170000Y-104550000D03*
X153270000Y-104550000D03*
X153270000Y-103900000D03*
X153270000Y-103250000D03*
D15*
X152220000Y-103900000D03*
%TD*%
D16*
%TO.C,R9*%
X157877500Y-88945000D03*
X159072500Y-88945000D03*
%TD*%
D17*
%TO.C,R8*%
X140782500Y-99765000D03*
X142607500Y-99765000D03*
%TD*%
%TO.C,R7*%
X140782500Y-97255000D03*
X142607500Y-97255000D03*
%TD*%
%TO.C,R6*%
X140782500Y-94745000D03*
X142607500Y-94745000D03*
%TD*%
D16*
%TO.C,R5*%
X157877500Y-86955000D03*
X159072500Y-86955000D03*
%TD*%
D17*
%TO.C,R4*%
X140782500Y-92235000D03*
X142607500Y-92235000D03*
%TD*%
D18*
%TO.C,R3*%
X145295000Y-100965000D03*
X148395000Y-100965000D03*
%TD*%
%TO.C,R2*%
X145295000Y-97675000D03*
X148395000Y-97675000D03*
%TD*%
D17*
%TO.C,R1*%
X140782500Y-89725000D03*
X142607500Y-89725000D03*
%TD*%
D19*
%TO.C,Q1*%
X156355000Y-97580000D03*
X156355000Y-99480000D03*
X159355000Y-98530000D03*
%TD*%
D20*
%TO.C,J1*%
X146555000Y-88980000D03*
X152335000Y-88980000D03*
D21*
X145120000Y-88460000D03*
X153770000Y-88460000D03*
D22*
X145120000Y-92660000D03*
X153770000Y-92660000D03*
%TD*%
D23*
%TO.C,C4*%
X140832500Y-87215000D03*
X142557500Y-87215000D03*
%TD*%
D24*
%TO.C,C3*%
X151187500Y-100545000D03*
X153262500Y-100545000D03*
%TD*%
%TO.C,C2*%
X151187500Y-97535000D03*
X153262500Y-97535000D03*
%TD*%
D25*
%TO.C,C1*%
X157887500Y-94625000D03*
X159022500Y-94625000D03*
%TD*%
M02*
